<?xml version="1.0" encoding="utf-8"?>
<!-- Generator: Adobe Illustrator 16.0.0, SVG Export Plug-In . SVG Version: 6.00 Build 0)  -->
<!DOCTYPE svg PUBLIC "-//W3C//DTD SVG 1.1//EN" "http://www.w3.org/Graphics/SVG/1.1/DTD/svg11.dtd">
<svg version="1.1" id="Layer_1" xmlns="http://www.w3.org/2000/svg" xmlns:xlink="http://www.w3.org/1999/xlink" x="0px" y="0px"
	 width="125.666px" height="54.415px" viewBox="0 0 125.666 54.415" enable-background="new 0 0 125.666 54.415"
	 xml:space="preserve">
<g>
	<path fill="#3D3D3D" d="M3.304,52.358h8.151V5.801c-0.734,0.54-1.567,1.078-2.496,1.616l-8.372,4.772L0,11.235
		c3.23-1.811,6.168-3.549,8.812-5.214C11.455,4.357,13.952,2.35,16.302,0h1.469v52.358h8.151v1.028H3.304V52.358z"/>
	<path fill="#3D3D3D" d="M31.061,40.609c0-2.104,0.452-3.94,1.359-5.508c0.905-1.566,2.007-2.912,3.304-4.039
		c1.297-1.125,2.668-2.057,4.112-2.79c1.444-0.734,2.681-1.322,3.709-1.763c-1.421-0.636-2.754-1.333-4.002-2.093
		c-1.249-0.759-2.326-1.64-3.231-2.644c-0.906-1.003-1.615-2.19-2.13-3.562c-0.514-1.37-0.771-3.035-0.771-4.993
		c0-1.91,0.428-3.672,1.285-5.287c0.855-1.616,1.97-3.012,3.341-4.187c1.37-1.175,2.925-2.093,4.663-2.754
		C44.438,0.331,46.213,0,48.024,0c1.664,0,3.305,0.257,4.92,0.771c1.615,0.514,3.048,1.249,4.296,2.204
		c1.248,0.954,2.251,2.105,3.011,3.451c0.759,1.347,1.139,2.852,1.139,4.516c0,1.568-0.27,2.95-0.808,4.149
		c-0.54,1.2-1.274,2.302-2.203,3.305c-0.931,1.004-1.983,1.922-3.158,2.753c-1.175,0.834-2.399,1.642-3.672,2.424
		c1.42,0.687,2.852,1.457,4.296,2.313c1.443,0.856,2.741,1.872,3.893,3.048c1.149,1.174,2.093,2.521,2.827,4.039
		s1.102,3.23,1.102,5.14c0,2.155-0.393,4.211-1.175,6.169c-0.784,1.959-1.922,3.684-3.415,5.177
		c-1.494,1.494-3.305,2.692-5.435,3.599c-2.129,0.904-4.541,1.358-7.232,1.358c-2.155,0-4.175-0.343-6.059-1.028
		c-1.886-0.686-3.514-1.64-4.884-2.863c-1.371-1.224-2.448-2.682-3.23-4.37C31.452,44.465,31.061,42.617,31.061,40.609z
		 M37.083,41.123c0,1.615,0.184,3.158,0.551,4.627s0.954,2.779,1.762,3.928c0.808,1.151,1.86,2.057,3.158,2.718
		c1.296,0.661,2.875,0.991,4.736,0.991c1.615,0,3.059-0.404,4.333-1.211c1.272-0.809,2.373-1.812,3.304-3.012
		c0.93-1.199,1.64-2.533,2.13-4.002c0.489-1.469,0.734-2.863,0.734-4.186c0-2.104-0.38-3.855-1.139-5.251s-1.762-2.595-3.011-3.599
		c-1.248-1.002-2.668-1.896-4.259-2.68c-1.592-0.783-3.194-1.59-4.81-2.424c-1.616,0.784-2.914,1.678-3.893,2.681
		c-0.979,1.004-1.738,2.093-2.276,3.269c-0.539,1.174-0.894,2.447-1.064,3.818C37.168,38.162,37.083,39.606,37.083,41.123z
		 M38.478,10.795c0,1.567,0.232,2.913,0.698,4.039c0.465,1.127,1.138,2.105,2.02,2.938c0.342,0.343,0.855,0.734,1.542,1.175
		c0.685,0.44,1.443,0.894,2.276,1.358c0.832,0.466,1.726,0.931,2.681,1.395c0.954,0.467,1.896,0.918,2.827,1.359
		c0.587-0.342,1.186-0.795,1.799-1.359c0.611-0.562,1.187-1.271,1.726-2.129c0.538-0.855,0.979-1.873,1.322-3.047
		c0.342-1.176,0.514-2.521,0.514-4.039c0-1.469-0.099-2.889-0.294-4.26c-0.196-1.37-0.563-2.594-1.102-3.672
		c-0.539-1.076-1.334-1.934-2.387-2.57c-1.053-0.636-2.411-0.955-4.075-0.955c-2.938,0-5.264,0.906-6.977,2.717
		C39.334,5.557,38.478,7.906,38.478,10.795z"/>
</g>
<g>
	<path fill="#3D3D3D" d="M82.377,15.173c0,0.749-0.078,1.451-0.232,2.108c-0.155,0.657-0.411,1.232-0.767,1.725
		c-0.356,0.493-0.826,0.881-1.41,1.164c-0.585,0.283-1.297,0.424-2.137,0.424c-0.584,0-1.122-0.068-1.615-0.205
		s-0.922-0.338-1.287-0.602c-0.365-0.266-0.652-0.58-0.862-0.945s-0.314-0.775-0.314-1.232c0-0.547,0.154-0.99,0.465-1.328
		s0.767-0.506,1.369-0.506c0.274,0,0.502,0.045,0.685,0.137s0.324,0.196,0.425,0.314c0.1,0.119,0.173,0.252,0.219,0.397
		s0.068,0.274,0.068,0.384c0,0.201-0.027,0.374-0.082,0.52c-0.055,0.146-0.109,0.293-0.164,0.438s-0.109,0.301-0.164,0.466
		c-0.055,0.164-0.083,0.374-0.083,0.629c0,0.42,0.124,0.717,0.37,0.891s0.579,0.26,0.999,0.26c0.529,0,0.959-0.195,1.287-0.589
		c0.329-0.392,0.493-1.081,0.493-2.067V1.071H76.6V0.688h8.816v0.383h-3.039V15.173z"/>
	<path fill="#3D3D3D" d="M99.408,20.184H95v-2.766h-0.055c-0.164,0.365-0.36,0.734-0.589,1.109
		c-0.229,0.374-0.511,0.711-0.849,1.013s-0.73,0.548-1.178,0.739s-0.972,0.287-1.574,0.287c-0.73,0-1.324-0.082-1.78-0.246
		s-0.812-0.338-1.067-0.52c-0.128-0.092-0.27-0.206-0.425-0.343s-0.297-0.323-0.424-0.562c-0.128-0.236-0.238-0.543-0.329-0.917
		c-0.092-0.374-0.137-0.835-0.137-1.383V8.82h-2.108V8.437h4.463v8.406c0,0.476,0.032,0.913,0.097,1.314
		c0.063,0.401,0.187,0.753,0.369,1.054c0.183,0.302,0.42,0.539,0.712,0.713s0.675,0.26,1.15,0.26c0.401,0,0.816-0.119,1.246-0.355
		c0.429-0.237,0.821-0.576,1.177-1.014c0.356-0.438,0.652-0.963,0.89-1.574s0.356-1.301,0.356-2.067V8.82h-2.081V8.437H97.3v11.364
		h2.108V20.184z"/>
	<path fill="#3D3D3D" d="M99.299,19.801h2.108V0.824h-2.108V0.441h4.464v19.36h2.108v0.383h-6.572V19.801z"/>
	<path fill="#3D3D3D" d="M105.869,19.801h2.108V8.82h-2.108V8.437h4.464v11.364h2.108v0.383h-6.572V19.801z M107.649,2.057
		c0-0.401,0.141-0.744,0.424-1.027c0.283-0.283,0.625-0.424,1.027-0.424c0.401,0,0.743,0.142,1.026,0.424
		c0.283,0.283,0.425,0.625,0.425,1.027c0,0.402-0.142,0.744-0.425,1.027s-0.625,0.424-1.026,0.424c-0.402,0-0.744-0.141-1.027-0.424
		S107.649,2.458,107.649,2.057z"/>
	<path fill="#3D3D3D" d="M112.906,14.324c0-0.895,0.195-1.726,0.589-2.492c0.392-0.767,0.894-1.428,1.506-1.985
		c0.611-0.557,1.296-0.989,2.054-1.301c0.757-0.31,1.501-0.466,2.231-0.466c0.729,0,1.474,0.156,2.231,0.466
		c0.758,0.312,1.442,0.744,2.054,1.301c0.611,0.558,1.113,1.219,1.506,1.985s0.589,1.598,0.589,2.492
		c0,0.857-0.183,1.666-0.548,2.423c-0.365,0.758-0.844,1.419-1.438,1.985c-0.593,0.566-1.273,1.014-2.04,1.342
		s-1.552,0.492-2.354,0.492c-0.804,0-1.588-0.164-2.354-0.492c-0.768-0.328-1.447-0.775-2.04-1.342
		c-0.594-0.566-1.073-1.228-1.438-1.985C113.088,15.99,112.906,15.182,112.906,14.324z M115.645,14.324
		c0,1.296,0.1,2.327,0.301,3.094s0.466,1.355,0.794,1.766c0.329,0.411,0.712,0.681,1.15,0.809c0.438,0.127,0.903,0.191,1.396,0.191
		s0.958-0.064,1.396-0.191c0.438-0.128,0.821-0.397,1.15-0.809c0.328-0.41,0.593-0.999,0.794-1.766
		c0.2-0.767,0.301-1.798,0.301-3.094c0-1.096-0.073-2.014-0.219-2.752c-0.146-0.74-0.37-1.342-0.671-1.808
		c-0.302-0.466-0.681-0.798-1.137-0.999s-0.995-0.302-1.615-0.302c-0.621,0-1.159,0.101-1.615,0.302
		c-0.457,0.201-0.836,0.533-1.137,0.999s-0.525,1.067-0.671,1.808C115.717,12.311,115.645,13.229,115.645,14.324z"/>
	<path fill="#3D3D3D" d="M86.799,53.043H74.285v-0.384c0.712-0.603,1.365-1.159,1.958-1.671c0.594-0.51,1.15-1.013,1.671-1.506
		c0.52-0.492,1.018-0.994,1.492-1.506c0.475-0.511,0.958-1.059,1.451-1.643c1.168-1.424,1.967-2.803,2.396-4.135
		s0.644-2.564,0.644-3.697c0-1.643-0.278-2.884-0.835-3.724c-0.557-0.839-1.438-1.259-2.643-1.259c-0.931,0-1.697,0.205-2.3,0.615
		c-0.603,0.411-0.903,0.982-0.903,1.711c0,0.256,0.059,0.517,0.178,0.781c0.118,0.265,0.178,0.533,0.178,0.808
		c0,0.311-0.109,0.544-0.328,0.698c-0.22,0.155-0.476,0.232-0.767,0.232c-0.384,0-0.712-0.1-0.986-0.301
		c-0.273-0.201-0.41-0.566-0.41-1.096c0-0.475,0.137-0.944,0.41-1.41c0.274-0.465,0.648-0.876,1.123-1.232
		c0.475-0.355,1.04-0.643,1.697-0.861c0.657-0.22,1.36-0.329,2.108-0.329c1.059,0,1.967,0.155,2.725,0.466s1.383,0.717,1.876,1.219
		s0.857,1.072,1.096,1.711c0.236,0.639,0.355,1.296,0.355,1.971c0,0.822-0.119,1.584-0.355,2.287
		c-0.238,0.703-0.562,1.365-0.973,1.984c-0.41,0.621-0.881,1.215-1.41,1.781c-0.529,0.565-1.086,1.131-1.67,1.697
		c-0.822,0.821-1.63,1.606-2.424,2.354c-0.794,0.749-1.666,1.552-2.615,2.409h6.271c1.077,0,1.853-0.26,2.328-0.779
		c0.475-0.521,0.767-1.236,0.876-2.15h0.301V53.043z"/>
	<path fill="#3D3D3D" d="M87.374,43.268c0-1.096,0.087-2.241,0.26-3.438c0.174-1.195,0.497-2.29,0.973-3.285
		c0.475-0.995,1.127-1.812,1.958-2.451c0.83-0.639,1.902-0.958,3.217-0.958s2.387,0.319,3.218,0.958
		c0.83,0.64,1.482,1.456,1.958,2.451c0.475,0.995,0.798,2.09,0.972,3.285c0.174,1.196,0.26,2.342,0.26,3.438
		c0,1.113-0.086,2.268-0.26,3.463c-0.174,1.196-0.497,2.291-0.972,3.286c-0.476,0.995-1.128,1.812-1.958,2.45
		c-0.831,0.64-1.903,0.959-3.218,0.959s-2.387-0.319-3.217-0.959c-0.831-0.639-1.483-1.455-1.958-2.45
		c-0.476-0.995-0.799-2.09-0.973-3.286C87.461,45.535,87.374,44.381,87.374,43.268z M90.112,43.268c0,1.697,0.05,3.162,0.15,4.395
		s0.283,2.245,0.548,3.039c0.265,0.795,0.634,1.383,1.109,1.766c0.474,0.384,1.095,0.576,1.861,0.576s1.388-0.192,1.862-0.576
		c0.475-0.383,0.844-0.971,1.109-1.766c0.264-0.794,0.446-1.807,0.547-3.039s0.151-2.697,0.151-4.395
		c0-1.698-0.051-3.158-0.151-4.382c-0.101-1.223-0.283-2.231-0.547-3.025c-0.266-0.794-0.635-1.383-1.109-1.767
		c-0.475-0.383-1.096-0.574-1.862-0.574s-1.388,0.191-1.861,0.574c-0.476,0.384-0.845,0.973-1.109,1.767s-0.447,1.803-0.548,3.025
		C90.162,40.109,90.112,41.569,90.112,43.268z"/>
	<path fill="#3D3D3D" d="M102.763,52.659h3.039v-17.36c-0.273,0.201-0.584,0.402-0.931,0.603l-3.122,1.78l-0.219-0.356
		c1.205-0.675,2.3-1.323,3.286-1.944c0.985-0.62,1.917-1.369,2.793-2.245h0.548v19.523h3.039v0.384h-8.434V52.659z"/>
	<path fill="#3D3D3D" d="M115.357,33.136h0.903c0.273,0.273,0.552,0.548,0.835,0.821s0.593,0.521,0.932,0.739
		c0.337,0.22,0.716,0.394,1.136,0.521c0.42,0.128,0.904,0.191,1.451,0.191c0.365,0,0.703-0.031,1.014-0.096
		c0.31-0.064,0.611-0.182,0.903-0.355s0.589-0.406,0.89-0.699c0.302-0.291,0.635-0.666,1-1.122l0.301,0.191
		c-0.492,0.676-0.94,1.269-1.342,1.78c-0.401,0.511-0.799,0.936-1.19,1.273c-0.394,0.338-0.809,0.588-1.246,0.752
		c-0.438,0.165-0.94,0.247-1.506,0.247c-0.329,0-0.635-0.022-0.918-0.068s-0.584-0.124-0.903-0.233s-0.662-0.241-1.026-0.396
		c-0.366-0.154-0.785-0.342-1.26-0.562l-1.041,6.653l0.055,0.056c0.42-0.603,0.995-1.077,1.726-1.425
		c0.729-0.346,1.588-0.52,2.573-0.52c0.986,0,1.857,0.169,2.615,0.506c0.758,0.339,1.392,0.781,1.903,1.328
		c0.511,0.549,0.895,1.174,1.15,1.877c0.255,0.702,0.383,1.419,0.383,2.148c0,0.548-0.105,1.201-0.314,1.959
		c-0.21,0.757-0.566,1.487-1.068,2.189c-0.502,0.703-1.182,1.301-2.04,1.794s-1.935,0.739-3.23,0.739
		c-0.968,0-1.758-0.123-2.369-0.369c-0.611-0.247-1.1-0.539-1.465-0.877s-0.616-0.684-0.753-1.04s-0.205-0.653-0.205-0.89
		c0-0.42,0.141-0.717,0.424-0.891c0.283-0.173,0.607-0.26,0.973-0.26c0.383,0,0.688,0.092,0.917,0.273
		c0.229,0.184,0.343,0.457,0.343,0.822c0,0.127-0.005,0.273-0.015,0.438c-0.009,0.164-0.014,0.301-0.014,0.41
		c0,0.822,0.229,1.361,0.685,1.616c0.456,0.256,1.068,0.384,1.835,0.384c0.603,0,1.127-0.101,1.574-0.302
		c0.447-0.2,0.826-0.557,1.137-1.067c0.311-0.512,0.543-1.201,0.698-2.068c0.155-0.866,0.232-1.967,0.232-3.299
		c0-0.768-0.055-1.461-0.164-2.081s-0.297-1.15-0.562-1.589c-0.265-0.438-0.625-0.775-1.081-1.013
		c-0.457-0.237-1.041-0.356-1.753-0.356c-0.821,0-1.506,0.123-2.054,0.37s-0.995,0.544-1.342,0.89
		c-0.347,0.348-0.606,0.713-0.78,1.096s-0.297,0.712-0.369,0.986l-0.302-0.083L115.357,33.136z"/>
</g>
<g>
</g>
<g>
</g>
<g>
</g>
<g>
</g>
<g>
</g>
<g>
</g>
</svg>
