<?xml version="1.0" encoding="utf-8"?>
<!-- Generator: Adobe Illustrator 16.0.0, SVG Export Plug-In . SVG Version: 6.00 Build 0)  -->
<!DOCTYPE svg PUBLIC "-//W3C//DTD SVG 1.1//EN" "http://www.w3.org/Graphics/SVG/1.1/DTD/svg11.dtd">
<svg version="1.1" id="Layer_1" xmlns="http://www.w3.org/2000/svg" xmlns:xlink="http://www.w3.org/1999/xlink" x="0px" y="0px"
	 width="130.156px" height="40.938px" viewBox="0 0 130.156 40.938" enable-background="new 0 0 130.156 40.938"
	 xml:space="preserve">
<g>
	<rect x="1.526" fill="#3D3D3D" width="126.232" height="0.5"/>
</g>
<g>
	<rect x="1.526" y="35.363" fill="#3D3D3D" width="126.232" height="0.5"/>
</g>
<g>
	<path fill="#64665D" d="M4.175,38.382c-0.646,1.974-1.747,2.557-2.783,2.557C0.453,40.938,0,40.291,0,39.481
		c0-2.006,5.017-10.971,6.765-16.699c0.064-0.13,0.776-0.13,0.68,0C5.664,28.511,5.017,35.695,4.175,38.382z M7.962,20.743
		c-0.712,0-1.263-0.583-1.263-1.392c0-1.197,0.972-2.298,2.104-2.298c0.776,0,1.326,0.55,1.326,1.392
		C10.13,19.643,9.127,20.743,7.962,20.743z"/>
	<path fill="#64665D" d="M30.68,12.813c-0.032,0.065-0.679,0.065-0.679,0c1.003-3.106-0.033-5.663-3.884-5.663h-2.687
		c-0.162,0-0.227,0.064-0.259,0.129l-3.042,9.742h1.197c2.653,0,4.175-1.165,4.854-3.398c0.032-0.064,0.68-0.064,0.68,0
		l-2.589,8.155c0,0.098-0.68,0.098-0.647,0c0.712-2.2,0.162-4.109-2.492-4.109h-1.229l-3.496,11.003c0,0.098,0.033,0.13,0.194,0.13
		h3.043c0.097,0-0.13,0.647-0.194,0.647H8.996c-0.064,0,0.13-0.647,0.227-0.647h2.881c0.161,0,0.227-0.032,0.259-0.13l6.731-21.393
		c0.032-0.064-0.032-0.129-0.162-0.129H16.02c-0.065,0,0.129-0.647,0.194-0.647h16.149c0.064,0,0.064,0.064,0.064,0.097
		L30.68,12.813z"/>
	<path fill="#64665D" d="M45.146,7.215h-2.881c-0.162,0-0.227,0.064-0.259,0.13l-6.765,21.393c-0.032,0.097,0.033,0.129,0.162,0.129
		h2.913c0.064,0-0.13,0.647-0.194,0.647H27.83c-0.064,0,0.13-0.647,0.194-0.647h2.913c0.129,0,0.227-0.032,0.259-0.129l6.731-21.393
		c0-0.065-0.032-0.13-0.194-0.13h-2.88c-0.098,0,0.129-0.647,0.194-0.647h10.291C45.404,6.567,45.242,7.215,45.146,7.215z"/>
	<path fill="#64665D" d="M62.426,12.879c-0.032,0.097-0.712,0.097-0.68,0c0.971-3.107-0.064-5.632-3.916-5.632h-2.621
		c-0.162,0-0.227,0.032-0.259,0.098l-3.075,9.773h0.906c2.654,0,4.143-1.197,4.854-3.431c0.033-0.064,0.712-0.064,0.68,0
		l-2.557,8.188c-0.032,0.064-0.712,0.064-0.68,0c0.68-2.233,0.13-4.143-2.524-4.143h-0.873L48.186,28.77
		c-0.032,0.064,0.032,0.097,0.162,0.097h2.298c5.825,0,8.512-2.978,9.547-6.278c0.033-0.064,0.713-0.064,0.68,0l-2.168,6.829
		c0,0.064-0.032,0.097-0.097,0.097H40.774c-0.064,0,0.13-0.647,0.227-0.647h2.881c0.161,0,0.227-0.032,0.259-0.097l6.731-21.425
		c0.032-0.065-0.032-0.098-0.162-0.098h-2.912c-0.065,0,0.129-0.647,0.193-0.647h16.085c0.098,0,0.098,0.033,0.065,0.098
		L62.426,12.879z"/>
	<path fill="#64665D" d="M78.605,12.069c0,0.098-0.646,0.098-0.646,0c1.067-3.431-0.906-5.404-3.237-5.404
		c-2.653,0-4.175,1.488-4.175,3.884c0,4.53,7.509,6.278,7.509,11.715c0,4.402-2.945,7.8-7.8,7.8c-2.783,0-3.852-1.294-5.017-1.294
		c-0.874,0-1.165,0.161-1.456,0.68c-0.032,0.064-0.68,0.064-0.647,0l2.104-7.186c0.032-0.064,0.712-0.064,0.68,0
		c-1.101,3.431,0.291,7.186,4.401,7.186c3.172,0,4.952-1.586,4.952-4.401c0-4.854-7.411-6.085-7.411-11.716
		c0-3.884,3.042-7.314,6.926-7.314c1.877,0,2.978,0.809,3.754,0.809c0.68,0,1.003-0.227,1.263-0.712c0.064-0.097,0.68-0.097,0.646,0
		L78.605,12.069z"/>
	<path fill="#64665D" d="M100.903,13.817c0,0.064-0.647,0.064-0.615,0c1.165-3.755,0.81-6.603-3.98-6.603h-0.453
		c-0.13,0-0.194,0.064-0.227,0.13l-6.731,21.393c-0.033,0.097,0.032,0.129,0.161,0.129h2.913c0.064,0-0.13,0.647-0.227,0.647h-10.26
		c-0.064,0,0.13-0.647,0.194-0.647h2.881c0.161,0,0.227-0.032,0.259-0.129l6.764-21.393c0.032-0.065-0.032-0.13-0.161-0.13h-0.389
		c-4.66,0-6.731,2.589-7.896,6.344c0,0.064-0.68,0.064-0.68,0l2.168-6.894c0-0.032,0.032-0.098,0.13-0.098h18.35
		c0.065,0,0.065,0.065,0.065,0.098L100.903,13.817z"/>
	<path fill="#64665D" d="M108.021,29.514c-0.064,0,0.162-0.647,0.227-0.647h2.363c0.161,0,0.227-0.032,0.227-0.097v-6.926h-7.638
		l-4.208,5.663c-0.874,1.165-0.874,1.359-0.453,1.359h2.428c0.064,0-0.162,0.647-0.227,0.647h-6.538
		c-0.064,0,0.13-0.647,0.194-0.647h2.071c0.519,0,0.906-0.291,1.65-1.327l15.794-21.425c0.098-0.129,0.776-0.097,0.776,0V28.77
		c0,0.064,0.065,0.097,0.227,0.097h3.075c0.064,0-0.098,0.647-0.162,0.647H108.021z M110.837,11.487l-7.152,9.677h7.152V11.487z"/>
	<path fill="#64665D" d="M121.353,29.935c-0.776,0-1.326-0.551-1.326-1.392c0-1.197,1.003-2.298,2.136-2.298
		c0.744,0,1.327,0.582,1.327,1.392C123.489,28.834,122.453,29.935,121.353,29.935z M123.392,24.206c-0.064,0.13-0.744,0.13-0.68,0
		c1.78-5.729,2.428-12.913,3.302-15.6c0.614-1.974,1.747-2.557,2.751-2.557c0.938,0,1.392,0.647,1.392,1.456
		C130.156,9.513,125.14,18.478,123.392,24.206z"/>
</g>
<g>
</g>
<g>
</g>
<g>
</g>
<g>
</g>
<g>
</g>
<g>
</g>
</svg>
