<?xml version="1.0" encoding="utf-8"?>
<!-- Generator: Adobe Illustrator 16.0.0, SVG Export Plug-In . SVG Version: 6.00 Build 0)  -->
<!DOCTYPE svg PUBLIC "-//W3C//DTD SVG 1.1//EN" "http://www.w3.org/Graphics/SVG/1.1/DTD/svg11.dtd">
<svg version="1.1" id="Layer_1" xmlns="http://www.w3.org/2000/svg" xmlns:xlink="http://www.w3.org/1999/xlink" x="0px" y="0px"
	 width="130.364px" height="101.861px" viewBox="0 0 130.364 101.861" enable-background="new 0 0 130.364 101.861"
	 xml:space="preserve">
<g>
	<path fill="#64665D" d="M1.943,0.432h7.416v0.336H6.695l5.328,13.92l5.256-13.92h-2.616V0.432h5.185v0.336h-2.16L11.231,17.88h-0.6
		L4.104,0.768h-2.16V0.432z"/>
	<path fill="#64665D" d="M18.72,0.432h7.729v0.336h-2.664V12.36c0,0.96,0.084,1.772,0.252,2.436c0.168,0.664,0.42,1.2,0.756,1.608
		c0.336,0.408,0.752,0.7,1.248,0.876c0.495,0.176,1.063,0.264,1.704,0.264c0.896,0,1.688-0.132,2.376-0.396
		c0.688-0.264,1.279-0.732,1.775-1.404c0.16-0.208,0.301-0.416,0.42-0.624c0.12-0.208,0.225-0.452,0.312-0.732
		s0.156-0.616,0.204-1.008c0.048-0.392,0.072-0.876,0.072-1.452V0.768H30.24V0.432h5.688v0.336h-2.664v11.64
		c0,0.672-0.072,1.284-0.216,1.836c-0.144,0.552-0.44,1.124-0.888,1.716c-0.433,0.576-1.032,1.041-1.801,1.392
		c-0.768,0.352-1.784,0.528-3.048,0.528c-1.92,0-3.388-0.472-4.403-1.416c-1.017-0.944-1.524-2.392-1.524-4.344V0.768H18.72V0.432z"
		/>
	<path fill="#64665D" d="M35.807,17.184h2.664V0.768h-2.664V0.432h13.729v4.152h-0.265c-0.208-0.624-0.432-1.172-0.672-1.644
		c-0.239-0.472-0.527-0.872-0.863-1.2c-0.337-0.328-0.736-0.572-1.2-0.732c-0.465-0.16-1.024-0.24-1.681-0.24h-3.983v7.416h1.56
		c0.528,0,0.976-0.048,1.345-0.144c0.367-0.096,0.684-0.276,0.947-0.54c0.265-0.264,0.488-0.624,0.672-1.08
		c0.185-0.456,0.364-1.044,0.54-1.764h0.265v7.464h-0.265c-0.111-0.464-0.228-0.912-0.348-1.344
		c-0.12-0.432-0.288-0.816-0.504-1.152s-0.504-0.604-0.864-0.804c-0.359-0.2-0.828-0.3-1.404-0.3h-1.943v8.664h4.536
		c0.88,0,1.611-0.188,2.195-0.564s1.061-0.824,1.429-1.344c0.367-0.52,0.64-1.06,0.815-1.62s0.288-1.024,0.336-1.392h0.265v5.256
		H35.807V17.184z"/>
	<path fill="#64665D" d="M52.438,12.36h0.265c0.176,0.864,0.403,1.592,0.684,2.184c0.279,0.592,0.588,1.08,0.924,1.464
		c0.336,0.384,0.688,0.681,1.056,0.888c0.368,0.208,0.74,0.36,1.116,0.456s0.736,0.152,1.08,0.168s0.668,0.024,0.973,0.024
		c0.848,0,1.543-0.128,2.088-0.384c0.543-0.256,0.976-0.58,1.296-0.972c0.319-0.392,0.544-0.816,0.672-1.272s0.191-0.876,0.191-1.26
		c0-0.56-0.104-1.04-0.312-1.44c-0.208-0.399-0.472-0.74-0.792-1.02c-0.32-0.279-0.668-0.507-1.044-0.684s-0.732-0.312-1.068-0.408
		l-2.76-0.84c-1.296-0.4-2.276-0.928-2.94-1.584s-0.995-1.536-0.995-2.64c0-0.72,0.128-1.388,0.384-2.004
		c0.256-0.616,0.615-1.148,1.08-1.596c0.464-0.448,1.02-0.8,1.668-1.056C56.65,0.128,57.358,0,58.127,0
		c0.56,0,1.027,0.048,1.403,0.144s0.7,0.204,0.973,0.324c0.271,0.12,0.516,0.228,0.731,0.324s0.437,0.144,0.66,0.144
		c0.208,0,0.348-0.028,0.42-0.084c0.072-0.056,0.172-0.196,0.3-0.42h0.336v4.344h-0.287c-0.097-0.576-0.261-1.132-0.492-1.668
		c-0.232-0.536-0.532-1.008-0.9-1.416c-0.368-0.408-0.812-0.736-1.332-0.984s-1.124-0.372-1.812-0.372
		c-0.385,0-0.809,0.052-1.272,0.156s-0.896,0.284-1.296,0.54c-0.4,0.256-0.731,0.592-0.996,1.008
		c-0.264,0.416-0.396,0.944-0.396,1.584c0,0.512,0.104,0.948,0.312,1.308c0.208,0.36,0.476,0.664,0.804,0.912
		s0.696,0.456,1.104,0.624c0.408,0.168,0.819,0.316,1.236,0.444l2.903,0.912c0.304,0.096,0.688,0.224,1.152,0.384
		c0.464,0.16,0.916,0.4,1.356,0.72c0.439,0.32,0.815,0.744,1.128,1.272c0.312,0.528,0.468,1.2,0.468,2.016
		c0,0.752-0.141,1.468-0.42,2.148c-0.28,0.68-0.685,1.28-1.212,1.8c-0.528,0.52-1.169,0.936-1.92,1.248
		c-0.753,0.312-1.601,0.468-2.544,0.468c-0.337,0-0.633-0.004-0.889-0.012c-0.256-0.008-0.496-0.028-0.72-0.06
		c-0.225-0.032-0.448-0.068-0.672-0.108c-0.225-0.041-0.473-0.1-0.744-0.18c-0.32-0.096-0.664-0.208-1.032-0.336
		c-0.368-0.128-0.688-0.192-0.96-0.192c-0.24,0-0.404,0.048-0.492,0.144c-0.088,0.096-0.164,0.224-0.228,0.384h-0.36V12.36z"/>
	<path fill="#64665D" d="M69.646,17.184h2.664V0.768h-1.392c-0.32,0-0.681,0.028-1.08,0.084c-0.4,0.056-0.804,0.212-1.212,0.468
		c-0.408,0.256-0.801,0.66-1.176,1.212c-0.377,0.552-0.7,1.316-0.973,2.292h-0.264V0.432h14.592v4.392h-0.264
		c-0.272-0.976-0.597-1.74-0.973-2.292c-0.376-0.552-0.768-0.956-1.176-1.212c-0.408-0.255-0.812-0.412-1.212-0.468
		c-0.4-0.056-0.76-0.084-1.08-0.084h-1.392v16.416h2.664v0.336h-7.729V17.184z"/>
	<path fill="#64665D" d="M81.095,17.184h2.664V0.768h-2.664V0.432h4.561c0.191,0,0.384-0.004,0.576-0.012
		c0.191-0.008,0.384-0.02,0.575-0.036c0.192,0,0.385-0.003,0.576-0.012c0.192-0.008,0.384-0.012,0.576-0.012
		c0.944,0,1.776,0.052,2.496,0.156s1.392,0.404,2.016,0.9c0.561,0.432,0.956,0.92,1.188,1.464c0.231,0.544,0.348,1.056,0.348,1.536
		c0,0.24-0.044,0.548-0.132,0.924c-0.088,0.376-0.28,0.76-0.576,1.152s-0.724,0.752-1.284,1.08c-0.56,0.328-1.304,0.548-2.231,0.66
		V8.28c0.256,0.033,0.604,0.092,1.044,0.18c0.439,0.088,0.888,0.236,1.344,0.444c0.456,0.208,0.876,0.484,1.26,0.828
		c0.385,0.344,0.656,0.789,0.816,1.332c0.096,0.32,0.164,0.684,0.204,1.092c0.04,0.408,0.072,0.828,0.096,1.26
		c0.024,0.432,0.048,0.848,0.072,1.248c0.023,0.4,0.067,0.736,0.132,1.008c0.096,0.417,0.248,0.792,0.456,1.128
		c0.208,0.336,0.544,0.504,1.008,0.504c0.208,0,0.424-0.04,0.648-0.12c0.224-0.08,0.424-0.208,0.6-0.384l0.216,0.264
		c-0.08,0.064-0.172,0.132-0.275,0.204c-0.104,0.072-0.236,0.14-0.396,0.204c-0.16,0.063-0.356,0.116-0.588,0.156
		c-0.232,0.04-0.516,0.06-0.852,0.06c-0.641,0-1.173-0.08-1.597-0.24c-0.424-0.16-0.764-0.396-1.02-0.708s-0.444-0.696-0.564-1.152
		s-0.204-0.988-0.252-1.596l-0.168-2.184c-0.063-0.8-0.224-1.424-0.479-1.872c-0.257-0.448-0.557-0.776-0.9-0.984
		s-0.7-0.332-1.068-0.372s-0.688-0.06-0.96-0.06h-2.399v8.664h2.664v0.336h-7.729V17.184z M86.159,8.184h2.208
		c0.447,0,0.855-0.056,1.224-0.168s0.685-0.308,0.948-0.588s0.468-0.66,0.612-1.14c0.144-0.48,0.216-1.088,0.216-1.824
		c0-0.832-0.108-1.5-0.324-2.004s-0.496-0.884-0.84-1.14c-0.345-0.255-0.729-0.423-1.152-0.504c-0.424-0.08-0.844-0.12-1.26-0.12
		c-0.288,0-0.58,0.004-0.876,0.012c-0.296,0.008-0.548,0.028-0.756,0.06V8.184z"/>
	<path fill="#64665D" d="M96.334,17.184h2.112L104.927,0h0.575l6.528,17.184h2.136v0.336h-7.392v-0.336h2.664l-2.521-6.672h-5.567
		l-2.521,6.672h2.664v0.336h-5.16V17.184z M104.135,3.192l-2.641,6.984h5.28L104.135,3.192z"/>
	<path fill="#64665D" d="M114.599,12.36h0.265c0.176,0.864,0.403,1.592,0.684,2.184c0.279,0.592,0.588,1.08,0.924,1.464
		c0.336,0.384,0.688,0.681,1.056,0.888c0.368,0.208,0.74,0.36,1.116,0.456s0.736,0.152,1.08,0.168s0.668,0.024,0.973,0.024
		c0.848,0,1.543-0.128,2.088-0.384c0.543-0.256,0.976-0.58,1.296-0.972c0.319-0.392,0.544-0.816,0.672-1.272s0.191-0.876,0.191-1.26
		c0-0.56-0.104-1.04-0.312-1.44c-0.208-0.399-0.472-0.74-0.792-1.02c-0.32-0.279-0.668-0.507-1.044-0.684s-0.732-0.312-1.068-0.408
		l-2.76-0.84c-1.296-0.4-2.276-0.928-2.94-1.584s-0.995-1.536-0.995-2.64c0-0.72,0.128-1.388,0.384-2.004
		c0.256-0.616,0.615-1.148,1.08-1.596c0.464-0.448,1.02-0.8,1.668-1.056C118.811,0.128,119.519,0,120.287,0
		c0.56,0,1.027,0.048,1.403,0.144s0.7,0.204,0.973,0.324c0.271,0.12,0.516,0.228,0.731,0.324s0.437,0.144,0.66,0.144
		c0.208,0,0.348-0.028,0.42-0.084c0.072-0.056,0.172-0.196,0.3-0.42h0.336v4.344h-0.287c-0.097-0.576-0.261-1.132-0.492-1.668
		c-0.232-0.536-0.532-1.008-0.9-1.416c-0.368-0.408-0.812-0.736-1.332-0.984s-1.124-0.372-1.812-0.372
		c-0.385,0-0.809,0.052-1.272,0.156s-0.896,0.284-1.296,0.54c-0.4,0.256-0.731,0.592-0.996,1.008
		c-0.264,0.416-0.396,0.944-0.396,1.584c0,0.512,0.104,0.948,0.312,1.308c0.208,0.36,0.476,0.664,0.804,0.912
		s0.696,0.456,1.104,0.624c0.408,0.168,0.819,0.316,1.236,0.444l2.903,0.912c0.304,0.096,0.688,0.224,1.152,0.384
		c0.464,0.16,0.916,0.4,1.356,0.72c0.439,0.32,0.815,0.744,1.128,1.272c0.312,0.528,0.468,1.2,0.468,2.016
		c0,0.752-0.141,1.468-0.42,2.148c-0.28,0.68-0.685,1.28-1.212,1.8c-0.528,0.52-1.169,0.936-1.92,1.248
		c-0.753,0.312-1.601,0.468-2.544,0.468c-0.337,0-0.633-0.004-0.889-0.012c-0.256-0.008-0.496-0.028-0.72-0.06
		c-0.225-0.032-0.448-0.068-0.672-0.108c-0.225-0.041-0.473-0.1-0.744-0.18c-0.32-0.096-0.664-0.208-1.032-0.336
		c-0.368-0.128-0.688-0.192-0.96-0.192c-0.24,0-0.404,0.048-0.492,0.144c-0.088,0.096-0.164,0.224-0.228,0.384h-0.36V12.36z"/>
	<path fill="#3D3D3D" d="M0,39.072h2.464V26.24H0v-0.448h2.464v-1.696c0-0.747,0.037-1.392,0.111-1.936
		c0.075-0.544,0.177-1.024,0.305-1.44s0.276-0.779,0.447-1.088c0.171-0.309,0.363-0.592,0.576-0.848
		c0.555-0.704,1.248-1.317,2.08-1.84C6.815,16.421,7.7,16.16,8.64,16.16c0.704,0,1.307,0.102,1.808,0.304
		c0.501,0.203,0.912,0.454,1.232,0.752c0.32,0.299,0.555,0.624,0.704,0.976c0.148,0.352,0.224,0.667,0.224,0.944
		c0,0.405-0.117,0.779-0.352,1.12c-0.235,0.342-0.63,0.512-1.185,0.512c-0.277,0-0.592-0.064-0.943-0.192
		C9.775,20.448,9.6,20.171,9.6,19.744c0-0.363,0.101-0.688,0.304-0.976s0.304-0.613,0.304-0.976c0-0.469-0.191-0.784-0.575-0.944
		c-0.385-0.16-0.779-0.24-1.185-0.24c-0.875,0-1.632,0.384-2.271,1.152c-0.641,0.768-0.96,1.963-0.96,3.584v4.448h3.968v0.448H5.216
		v12.832h2.912v0.448H0V39.072z"/>
	<path fill="#3D3D3D" d="M9.087,32.672c0-1.045,0.229-2.016,0.688-2.912s1.045-1.669,1.76-2.32c0.715-0.65,1.515-1.157,2.4-1.52
		c0.885-0.362,1.755-0.544,2.608-0.544c0.853,0,1.722,0.182,2.607,0.544c0.885,0.363,1.686,0.87,2.4,1.52
		c0.714,0.651,1.301,1.424,1.76,2.32c0.458,0.896,0.688,1.867,0.688,2.912c0,1.003-0.213,1.947-0.64,2.832
		c-0.427,0.886-0.987,1.659-1.68,2.32c-0.693,0.661-1.488,1.184-2.384,1.568c-0.896,0.384-1.813,0.576-2.752,0.576
		c-0.939,0-1.856-0.192-2.753-0.576c-0.896-0.384-1.69-0.907-2.384-1.568s-1.253-1.435-1.68-2.32
		C9.3,34.619,9.087,33.675,9.087,32.672z M12.286,32.672c0,1.515,0.117,2.72,0.353,3.616c0.234,0.896,0.544,1.584,0.928,2.064
		s0.832,0.795,1.344,0.944c0.513,0.149,1.057,0.224,1.633,0.224c0.575,0,1.119-0.075,1.632-0.224
		c0.512-0.149,0.96-0.464,1.344-0.944s0.693-1.168,0.928-2.064s0.353-2.101,0.353-3.616c0-1.28-0.086-2.352-0.256-3.216
		c-0.172-0.864-0.433-1.568-0.784-2.112c-0.353-0.544-0.795-0.933-1.328-1.168c-0.533-0.234-1.163-0.352-1.888-0.352
		c-0.726,0-1.355,0.117-1.889,0.352c-0.533,0.235-0.976,0.624-1.328,1.168c-0.352,0.544-0.613,1.248-0.783,2.112
		C12.371,30.32,12.286,31.392,12.286,32.672z"/>
	<path fill="#3D3D3D" d="M24.191,25.792h2.464v-4.128c0.171,0.064,0.331,0.118,0.48,0.16c0.148,0.043,0.404,0.064,0.768,0.064
		c0.32,0,0.597-0.037,0.832-0.112c0.234-0.074,0.459-0.197,0.672-0.368v4.384h4.544v0.448h-4.544v10.464
		c0,0.598,0.059,1.083,0.176,1.456c0.117,0.374,0.272,0.661,0.465,0.864c0.191,0.203,0.399,0.336,0.624,0.4
		c0.224,0.064,0.442,0.096,0.655,0.096c0.747,0,1.35-0.272,1.809-0.816c0.458-0.544,0.752-1.168,0.88-1.872l0.448,0.16
		c-0.064,0.277-0.16,0.587-0.288,0.928c-0.128,0.342-0.326,0.667-0.593,0.976c-0.267,0.31-0.613,0.565-1.039,0.768
		c-0.428,0.203-0.961,0.304-1.601,0.304c-1.6,0-2.715-0.31-3.344-0.928c-0.63-0.619-0.944-1.493-0.944-2.624V26.24h-2.464V25.792z"
		/>
	<path fill="#3D3D3D" d="M33.95,32.672c0-1.045,0.229-2.016,0.688-2.912s1.045-1.669,1.76-2.32c0.715-0.65,1.515-1.157,2.4-1.52
		c0.885-0.362,1.755-0.544,2.608-0.544c0.853,0,1.722,0.182,2.607,0.544c0.885,0.363,1.686,0.87,2.4,1.52
		c0.714,0.651,1.301,1.424,1.76,2.32c0.458,0.896,0.688,1.867,0.688,2.912c0,1.003-0.213,1.947-0.64,2.832
		c-0.427,0.886-0.987,1.659-1.68,2.32c-0.693,0.661-1.488,1.184-2.384,1.568c-0.896,0.384-1.813,0.576-2.752,0.576
		c-0.939,0-1.856-0.192-2.753-0.576c-0.896-0.384-1.69-0.907-2.384-1.568s-1.253-1.435-1.68-2.32
		C34.163,34.619,33.95,33.675,33.95,32.672z M37.149,32.672c0,1.515,0.117,2.72,0.353,3.616c0.234,0.896,0.544,1.584,0.928,2.064
		s0.832,0.795,1.344,0.944c0.513,0.149,1.057,0.224,1.633,0.224c0.575,0,1.119-0.075,1.632-0.224
		c0.512-0.149,0.96-0.464,1.344-0.944s0.693-1.168,0.928-2.064s0.353-2.101,0.353-3.616c0-1.28-0.086-2.352-0.256-3.216
		c-0.172-0.864-0.433-1.568-0.784-2.112c-0.353-0.544-0.795-0.933-1.328-1.168c-0.533-0.234-1.163-0.352-1.888-0.352
		c-0.726,0-1.355,0.117-1.889,0.352c-0.533,0.235-0.976,0.624-1.328,1.168c-0.352,0.544-0.613,1.248-0.783,2.112
		C37.234,30.32,37.149,31.392,37.149,32.672z"/>
	<path fill="#3D3D3D" d="M49.919,37.44c0-0.576,0.106-1.072,0.319-1.488c0.214-0.416,0.475-0.779,0.784-1.088
		s0.641-0.56,0.992-0.752c0.353-0.192,0.667-0.352,0.944-0.48c-1.237-0.853-1.856-2.005-1.856-3.456
		c0-0.746,0.182-1.418,0.544-2.016s0.821-1.104,1.376-1.52s1.168-0.73,1.84-0.944c0.673-0.213,1.317-0.32,1.937-0.32
		c0.96,0,1.786,0.192,2.479,0.576c0.693,0.384,1.2,0.736,1.521,1.056c0.234-0.405,0.581-0.778,1.04-1.12
		c0.458-0.341,1.029-0.512,1.712-0.512c0.427,0,0.821,0.091,1.184,0.272c0.363,0.182,0.544,0.571,0.544,1.168
		c0,0.384-0.123,0.672-0.367,0.864c-0.246,0.192-0.496,0.288-0.752,0.288c-0.3,0-0.513-0.085-0.641-0.256
		c-0.128-0.17-0.24-0.352-0.336-0.544s-0.197-0.373-0.304-0.544c-0.107-0.17-0.268-0.256-0.48-0.256s-0.432,0.091-0.655,0.272
		c-0.225,0.181-0.422,0.389-0.593,0.624c0.192,0.213,0.438,0.576,0.736,1.088s0.448,1.152,0.448,1.92c0,0.64-0.16,1.227-0.48,1.76
		c-0.319,0.533-0.741,1.003-1.264,1.408c-0.523,0.406-1.131,0.72-1.824,0.944c-0.693,0.224-1.403,0.336-2.128,0.336
		c-0.747,0-1.397-0.101-1.952-0.304c-0.555-0.203-0.981-0.378-1.279-0.528c-0.235,0.107-0.486,0.224-0.753,0.352
		c-0.267,0.128-0.512,0.288-0.735,0.48c-0.225,0.192-0.411,0.421-0.561,0.688s-0.224,0.571-0.224,0.912
		c0,0.32,0.064,0.587,0.192,0.8c0.128,0.213,0.293,0.374,0.495,0.48c0.203,0.107,0.433,0.182,0.688,0.224
		c0.256,0.043,0.522,0.064,0.8,0.064h5.057c1.492,0,2.682,0.357,3.567,1.072c0.885,0.714,1.328,1.84,1.328,3.376
		c0,0.938-0.203,1.792-0.608,2.56s-0.943,1.435-1.615,2c-0.672,0.565-1.446,1.002-2.32,1.312c-0.875,0.309-1.771,0.464-2.688,0.464
		c-0.831,0-1.595-0.096-2.287-0.288c-0.694-0.192-1.297-0.453-1.809-0.784c-0.512-0.331-0.912-0.731-1.2-1.2
		s-0.432-0.992-0.432-1.568c0-0.555,0.112-1.062,0.336-1.52c0.224-0.459,0.512-0.864,0.864-1.216c0.352-0.352,0.752-0.656,1.2-0.912
		c0.447-0.256,0.896-0.47,1.344-0.64V40.48c-1.408,0-2.448-0.229-3.12-0.688S49.919,38.549,49.919,37.44z M54.719,40.48
		c-0.277,0.17-0.56,0.347-0.848,0.528s-0.544,0.411-0.769,0.688c-0.224,0.277-0.405,0.603-0.544,0.976
		c-0.139,0.373-0.208,0.837-0.208,1.392c0,0.768,0.133,1.402,0.4,1.904c0.267,0.501,0.607,0.906,1.023,1.216
		c0.416,0.309,0.88,0.528,1.393,0.656c0.512,0.128,1.013,0.192,1.504,0.192c0.768,0,1.467-0.118,2.096-0.352
		c0.629-0.235,1.173-0.55,1.632-0.944c0.459-0.395,0.811-0.848,1.057-1.36c0.245-0.512,0.367-1.045,0.367-1.6
		c0-1.195-0.325-2.043-0.976-2.544c-0.651-0.501-1.541-0.752-2.672-0.752H54.719z M59.902,30.08c0-0.491-0.031-0.986-0.096-1.488
		c-0.063-0.501-0.197-0.96-0.399-1.376c-0.203-0.416-0.513-0.752-0.929-1.008s-0.976-0.384-1.68-0.384
		c-1.088,0-1.909,0.331-2.464,0.992c-0.556,0.662-0.832,1.75-0.832,3.264c0,0.64,0.048,1.216,0.144,1.728
		c0.097,0.512,0.272,0.955,0.528,1.328s0.597,0.656,1.024,0.848c0.426,0.192,0.97,0.288,1.632,0.288c1.108,0,1.898-0.347,2.368-1.04
		C59.668,32.539,59.902,31.488,59.902,30.08z"/>
	<path fill="#3D3D3D" d="M64.19,39.072h2.464V26.24H64.19v-0.448h5.151v3.232h0.064c0.085-0.32,0.224-0.683,0.416-1.088
		c0.192-0.405,0.458-0.794,0.8-1.168c0.341-0.373,0.752-0.688,1.232-0.944c0.479-0.256,1.061-0.384,1.744-0.384
		c0.49,0,0.917,0.08,1.279,0.24c0.362,0.16,0.661,0.363,0.896,0.608c0.234,0.246,0.404,0.528,0.512,0.848
		c0.106,0.32,0.16,0.64,0.16,0.96c0,0.704-0.16,1.173-0.48,1.408c-0.319,0.235-0.693,0.352-1.12,0.352
		c-0.938,0-1.407-0.298-1.407-0.896c0-0.192,0.021-0.347,0.063-0.464s0.091-0.234,0.145-0.352c0.053-0.117,0.101-0.25,0.144-0.4
		c0.043-0.149,0.064-0.363,0.064-0.64c0-0.683-0.374-1.024-1.12-1.024c-0.342,0-0.704,0.128-1.088,0.384
		c-0.385,0.256-0.742,0.63-1.072,1.12c-0.331,0.491-0.608,1.083-0.832,1.776c-0.224,0.694-0.336,1.488-0.336,2.384v7.328h2.784
		v0.448h-8V39.072z"/>
	<path fill="#3D3D3D" d="M89.854,39.168c-0.277,0.213-0.607,0.4-0.992,0.56c-0.384,0.16-0.854,0.24-1.407,0.24
		c-1.024,0-1.766-0.219-2.225-0.656s-0.773-1.05-0.944-1.84h-0.063c-0.086,0.192-0.203,0.432-0.353,0.72s-0.379,0.565-0.688,0.832
		c-0.31,0.267-0.72,0.491-1.232,0.672c-0.512,0.181-1.163,0.272-1.951,0.272c-0.896,0-1.611-0.102-2.145-0.304
		s-0.949-0.453-1.248-0.752s-0.496-0.635-0.592-1.008c-0.096-0.373-0.145-0.72-0.145-1.04c0-0.747,0.149-1.344,0.448-1.792
		c0.299-0.448,0.688-0.805,1.168-1.072c0.48-0.267,1.014-0.485,1.601-0.656c0.586-0.171,1.178-0.352,1.775-0.544
		c0.704-0.234,1.285-0.437,1.744-0.608c0.459-0.17,0.816-0.378,1.072-0.624c0.256-0.245,0.432-0.554,0.528-0.928
		c0.096-0.373,0.144-0.88,0.144-1.52c0-0.512-0.032-0.971-0.096-1.376c-0.064-0.405-0.182-0.752-0.353-1.04
		s-0.416-0.506-0.735-0.656c-0.32-0.149-0.747-0.224-1.28-0.224c-0.704,0-1.285,0.123-1.744,0.368
		c-0.459,0.246-0.688,0.646-0.688,1.2c0,0.363,0.031,0.72,0.096,1.072c0.063,0.352,0.096,0.614,0.096,0.784
		c0,0.299-0.106,0.549-0.32,0.752c-0.213,0.203-0.522,0.304-0.928,0.304c-0.704,0-1.142-0.128-1.312-0.384
		c-0.171-0.256-0.256-0.586-0.256-0.992c0-0.469,0.106-0.917,0.319-1.344c0.213-0.426,0.528-0.805,0.944-1.136
		s0.938-0.592,1.567-0.784c0.63-0.192,1.35-0.288,2.16-0.288c0.981,0,1.803,0.123,2.464,0.368c0.661,0.246,1.195,0.576,1.601,0.992
		s0.693,0.886,0.864,1.408c0.17,0.523,0.256,1.072,0.256,1.648v7.968c0,0.619,0.096,1.035,0.288,1.248
		c0.191,0.214,0.469,0.32,0.832,0.32c0.234,0,0.479-0.042,0.735-0.128c0.256-0.085,0.501-0.213,0.736-0.384L89.854,39.168z
		 M84.254,31.68h-0.064c-0.043,0.277-0.395,0.555-1.056,0.832l-2.4,0.96c-0.683,0.277-1.205,0.667-1.567,1.168
		c-0.363,0.501-0.544,1.125-0.544,1.872c0,0.32,0.031,0.651,0.096,0.992c0.063,0.342,0.181,0.646,0.352,0.912
		c0.171,0.267,0.411,0.485,0.721,0.656c0.309,0.171,0.709,0.256,1.199,0.256c0.704,0,1.274-0.149,1.712-0.448
		c0.438-0.298,0.769-0.672,0.992-1.12c0.225-0.448,0.373-0.933,0.448-1.456c0.074-0.522,0.112-0.997,0.112-1.424V31.68z"/>
	<path fill="#3D3D3D" d="M89.055,39.072h2.464V26.24h-2.464v-0.448h2.464v-1.696c0-0.747,0.037-1.392,0.111-1.936
		c0.075-0.544,0.177-1.024,0.305-1.44s0.276-0.779,0.447-1.088c0.171-0.309,0.363-0.592,0.576-0.848
		c0.555-0.704,1.248-1.317,2.08-1.84c0.832-0.522,1.717-0.784,2.656-0.784c0.704,0,1.307,0.102,1.808,0.304
		c0.501,0.203,0.912,0.454,1.232,0.752c0.32,0.299,0.555,0.624,0.704,0.976c0.148,0.352,0.224,0.667,0.224,0.944
		c0,0.405-0.117,0.779-0.352,1.12c-0.235,0.342-0.63,0.512-1.185,0.512c-0.277,0-0.592-0.064-0.943-0.192
		c-0.353-0.128-0.528-0.405-0.528-0.832c0-0.363,0.101-0.688,0.304-0.976s0.304-0.613,0.304-0.976c0-0.469-0.191-0.784-0.575-0.944
		c-0.385-0.16-0.779-0.24-1.185-0.24c-0.875,0-1.632,0.384-2.271,1.152c-0.641,0.768-0.96,1.963-0.96,3.584v4.448h3.968v0.448
		h-3.968v12.832h2.912v0.448h-8.128V39.072z"/>
	<path fill="#3D3D3D" d="M97.917,39.072h2.464V26.24h-2.464v-0.448h5.216v13.28h2.464v0.448h-7.68V39.072z M104.188,17.248
		c0.427-0.512,0.73-0.853,0.912-1.024c0.181-0.17,0.421-0.256,0.72-0.256s0.555,0.112,0.769,0.336
		c0.213,0.224,0.319,0.485,0.319,0.784c0,0.235-0.069,0.416-0.208,0.544c-0.139,0.128-0.261,0.235-0.368,0.32l-5.472,3.904h-0.448
		L104.188,17.248z"/>
	<path fill="#3D3D3D" d="M119.997,39.168c-0.277,0.213-0.607,0.4-0.992,0.56c-0.384,0.16-0.854,0.24-1.407,0.24
		c-1.024,0-1.766-0.219-2.225-0.656s-0.773-1.05-0.944-1.84h-0.063c-0.086,0.192-0.203,0.432-0.353,0.72s-0.379,0.565-0.688,0.832
		c-0.31,0.267-0.72,0.491-1.232,0.672c-0.512,0.181-1.163,0.272-1.951,0.272c-0.896,0-1.611-0.102-2.145-0.304
		s-0.949-0.453-1.248-0.752s-0.496-0.635-0.592-1.008c-0.096-0.373-0.145-0.72-0.145-1.04c0-0.747,0.149-1.344,0.448-1.792
		c0.299-0.448,0.688-0.805,1.168-1.072c0.48-0.267,1.014-0.485,1.601-0.656c0.586-0.171,1.178-0.352,1.775-0.544
		c0.704-0.234,1.285-0.437,1.744-0.608c0.459-0.17,0.816-0.378,1.072-0.624c0.256-0.245,0.432-0.554,0.528-0.928
		c0.096-0.373,0.144-0.88,0.144-1.52c0-0.512-0.032-0.971-0.096-1.376c-0.064-0.405-0.182-0.752-0.353-1.04
		s-0.416-0.506-0.735-0.656c-0.32-0.149-0.747-0.224-1.28-0.224c-0.704,0-1.285,0.123-1.744,0.368
		c-0.459,0.246-0.688,0.646-0.688,1.2c0,0.363,0.031,0.72,0.096,1.072c0.063,0.352,0.096,0.614,0.096,0.784
		c0,0.299-0.106,0.549-0.32,0.752c-0.213,0.203-0.522,0.304-0.928,0.304c-0.704,0-1.142-0.128-1.312-0.384
		c-0.171-0.256-0.256-0.586-0.256-0.992c0-0.469,0.106-0.917,0.319-1.344c0.213-0.426,0.528-0.805,0.944-1.136
		s0.938-0.592,1.567-0.784c0.63-0.192,1.35-0.288,2.16-0.288c0.981,0,1.803,0.123,2.464,0.368c0.661,0.246,1.195,0.576,1.601,0.992
		s0.693,0.886,0.864,1.408c0.17,0.523,0.256,1.072,0.256,1.648v7.968c0,0.619,0.096,1.035,0.288,1.248
		c0.191,0.214,0.469,0.32,0.832,0.32c0.234,0,0.479-0.042,0.735-0.128c0.256-0.085,0.501-0.213,0.736-0.384L119.997,39.168z
		 M114.397,31.68h-0.064c-0.043,0.277-0.395,0.555-1.056,0.832l-2.4,0.96c-0.683,0.277-1.205,0.667-1.567,1.168
		c-0.363,0.501-0.544,1.125-0.544,1.872c0,0.32,0.031,0.651,0.096,0.992c0.063,0.342,0.181,0.646,0.352,0.912
		c0.171,0.267,0.411,0.485,0.721,0.656c0.309,0.171,0.709,0.256,1.199,0.256c0.704,0,1.274-0.149,1.712-0.448
		c0.438-0.298,0.769-0.672,0.992-1.12c0.225-0.448,0.373-0.933,0.448-1.456c0.074-0.522,0.112-0.997,0.112-1.424V31.68z"/>
	<path fill="#3D3D3D" d="M120.092,35.04h0.352c0.149,0.512,0.342,1.029,0.576,1.552c0.234,0.523,0.549,1.003,0.944,1.44
		c0.395,0.438,0.88,0.795,1.456,1.072c0.576,0.277,1.269,0.416,2.08,0.416c0.683,0,1.29-0.208,1.824-0.624
		c0.532-0.416,0.8-1.093,0.8-2.032c0-0.811-0.208-1.381-0.624-1.712c-0.416-0.331-0.901-0.592-1.456-0.784l-2.496-0.864
		c-0.32-0.106-0.667-0.24-1.04-0.4s-0.72-0.384-1.04-0.672s-0.581-0.656-0.784-1.104c-0.203-0.448-0.304-1.024-0.304-1.728
		c0-0.597,0.117-1.152,0.352-1.664s0.555-0.96,0.96-1.344c0.405-0.384,0.891-0.682,1.456-0.896c0.565-0.213,1.179-0.32,1.841-0.32
		c0.469,0,0.848,0.038,1.136,0.112c0.288,0.075,0.538,0.15,0.752,0.224c0.213,0.075,0.405,0.149,0.576,0.224
		c0.17,0.075,0.373,0.112,0.607,0.112s0.405-0.085,0.513-0.256h0.352v3.648h-0.352c-0.15-0.469-0.32-0.922-0.513-1.36
		c-0.191-0.437-0.421-0.827-0.688-1.168c-0.268-0.341-0.598-0.608-0.992-0.8c-0.396-0.192-0.859-0.288-1.392-0.288
		c-1.024,0-1.819,0.229-2.385,0.688c-0.565,0.459-0.848,1.072-0.848,1.84c0,0.683,0.24,1.2,0.72,1.552
		c0.48,0.352,1.189,0.678,2.128,0.976l2.336,0.768c1.003,0.342,1.824,0.811,2.464,1.408c0.641,0.597,0.961,1.387,0.961,2.368
		c0,0.576-0.112,1.142-0.337,1.696c-0.224,0.555-0.555,1.04-0.991,1.456c-0.438,0.416-0.972,0.752-1.601,1.008
		s-1.35,0.384-2.16,0.384c-0.469,0-0.901-0.048-1.296-0.144c-0.395-0.096-0.757-0.198-1.088-0.304s-0.635-0.208-0.912-0.304
		c-0.277-0.096-0.533-0.144-0.768-0.144c-0.235,0-0.405,0.048-0.512,0.144c-0.107,0.096-0.192,0.198-0.257,0.304h-0.352V35.04z"/>
	<path fill="#3D3D3D" d="M4.686,55.568c0,0.16-0.004,0.324-0.012,0.492c-0.009,0.168-0.012,0.38-0.012,0.636
		c0,0.528,0.031,1.08,0.096,1.656c0.063,0.576,0.204,1.096,0.42,1.56c0.216,0.464,0.536,0.848,0.96,1.152
		c0.424,0.304,0.987,0.456,1.692,0.456c0.703,0,1.283-0.104,1.739-0.312c0.456-0.208,0.816-0.46,1.08-0.756
		c0.265-0.296,0.46-0.596,0.588-0.9c0.128-0.304,0.225-0.552,0.288-0.744l0.36,0.072c-0.048,0.176-0.141,0.428-0.276,0.756
		s-0.352,0.656-0.647,0.984c-0.297,0.328-0.696,0.616-1.2,0.864c-0.504,0.248-1.156,0.372-1.956,0.372s-1.54-0.128-2.22-0.384
		c-0.681-0.256-1.269-0.624-1.765-1.104s-0.88-1.052-1.151-1.716c-0.272-0.664-0.408-1.404-0.408-2.22
		c0-0.704,0.14-1.388,0.42-2.052c0.279-0.664,0.664-1.251,1.152-1.764c0.487-0.512,1.06-0.924,1.716-1.236
		c0.655-0.312,1.359-0.468,2.112-0.468c0.447,0,0.928,0.08,1.439,0.24c0.512,0.16,0.988,0.42,1.428,0.78
		c0.44,0.36,0.808,0.836,1.104,1.428c0.296,0.592,0.444,1.329,0.444,2.208H4.686z M9.63,55.232c0.031-0.224,0.048-0.432,0.048-0.624
		s0-0.392,0-0.6c0-0.543-0.052-0.992-0.156-1.344c-0.104-0.352-0.248-0.632-0.432-0.84c-0.185-0.208-0.408-0.356-0.672-0.444
		c-0.265-0.087-0.549-0.132-0.853-0.132c-0.544,0-0.992,0.108-1.344,0.324c-0.353,0.216-0.632,0.508-0.84,0.876
		S5.018,53.24,4.914,53.72C4.81,54.2,4.741,54.704,4.71,55.232H9.63z"/>
	<path fill="#3D3D3D" d="M12.438,61.184h1.849V51.56h-1.849v-0.336h3.864v2.568h0.048c0.097-0.208,0.236-0.472,0.42-0.792
		c0.185-0.32,0.437-0.632,0.757-0.936c0.319-0.304,0.72-0.564,1.199-0.78c0.48-0.216,1.064-0.324,1.752-0.324
		c1.057,0,1.916,0.256,2.58,0.768c0.664,0.512,0.996,1.328,0.996,2.448v7.008h1.849v0.336h-5.761v-0.336h1.849v-7.752
		c0-0.624-0.148-1.136-0.444-1.536c-0.296-0.4-0.756-0.6-1.38-0.6c-0.513,0-1,0.112-1.464,0.336
		c-0.465,0.225-0.872,0.537-1.225,0.936c-0.352,0.4-0.628,0.873-0.828,1.416c-0.2,0.544-0.3,1.136-0.3,1.776v5.424h1.849v0.336
		h-5.761V61.184z"/>
	<path fill="#3D3D3D" d="M43.104,44.299H40.88c-0.125,0-0.176,0.05-0.2,0.1L35.48,60.92c-0.024,0.075,0.025,0.1,0.125,0.1h2.25
		c0.05,0-0.101,0.5-0.15,0.5h-8.373c-0.05,0,0.125-0.5,0.175-0.5h2.25c0.1,0,0.15-0.025,0.175-0.1l5.199-16.521
		c0.024-0.05-0.025-0.1-0.125-0.1h-2.25c-0.05,0,0.125-0.5,0.175-0.5h8.349C43.329,43.799,43.179,44.299,43.104,44.299z"/>
	<path fill="#3D3D3D" d="M48.254,61.745c-1.35,0-2.124-0.9-2.124-1.925c0-2.024,1.975-4.424,1.975-6.648
		c0-0.6-0.226-1.049-0.825-1.049c-1.175,0-2.1,1.125-3.773,4.124l-1.65,5.274h-2.799l2.749-8.698c0.225-0.7-0.024-1.175-0.524-1.175
		s-0.975,0.35-1.475,1.425l-0.476-0.175c0.601-1.35,1.8-2.25,3.125-2.25c1.449,0,2.424,1.2,1.624,3.699
		c1.675-2.899,3.3-3.699,4.624-3.699s2.1,0.825,2.1,2.25c0,2.575-2.199,5.474-2.199,6.874c0,0.575,0.225,0.975,0.774,0.975
		c0.75,0,1.375-0.5,2.1-1.7l0.45,0.175C51.104,60.895,49.604,61.745,48.254,61.745z"/>
	<path fill="#3D3D3D" d="M58.705,54.172c-0.774,0-1.1-0.425-1.1-0.975c0-0.575,0.5-0.775,0.5-1.25c0-0.475-0.475-0.775-1.3-0.775
		c-1.05,0-1.6,0.525-1.6,1.5c0,2.174,3.399,2.724,3.399,5.749c0,1.774-1.575,3.324-4.249,3.324c-1.95,0-3.425-1-3.425-2.5
		c0-0.85,0.55-1.649,1.3-1.649c0.825,0,1.175,0.675,1.175,1.149c0,1.05-0.675,0.875-0.675,1.525s0.425,0.975,1.6,0.975
		c1.375,0,1.949-0.7,1.949-1.774c0-2.5-3.148-2.7-3.148-5.324c0-1.85,1.749-3.5,3.824-3.5c1.524,0,2.924,0.875,2.924,2.225
		C59.88,53.747,59.405,54.172,58.705,54.172z"/>
	<path fill="#3D3D3D" d="M67.055,51.223H65.18l-2.749,8.723c-0.125,0.45,0.05,0.8,0.5,0.8c0.774,0,1.399-0.45,2.1-1.7l0.475,0.175
		c-0.85,1.7-2.175,2.524-3.6,2.524c-1.549,0-2.399-1.35-1.774-3.399l2.274-7.123h-1.799c-0.051,0,0.074-0.55,0.149-0.55h1.8
		l1.1-3.549l2.85-0.1l-1.15,3.649h1.85C67.255,50.673,67.13,51.223,67.055,51.223z"/>
	<path fill="#3D3D3D" d="M74.829,59.996c-0.1,0.35,0.025,0.725,0.5,0.725c0.825,0,1.575-0.75,2.1-1.7l0.5,0.175
		c-0.725,1.475-2.274,2.549-3.524,2.549c-1.449,0-2.324-1.025-1.975-2.424c-0.824,1.6-1.85,2.424-3.349,2.424
		c-2.449,0-3.274-2.05-3.274-4.024c0-3.149,3.024-7.048,6.873-7.048c0.851,0,1.7,0.45,1.875,1.274l0.524-1.025l2.725-0.35
		L74.829,59.996z M72.68,51.123c-0.324,0-0.675,0.1-1.274,0.525c-1.824,1.399-2.949,5.749-2.949,7.823
		c0,1.299,0.5,1.649,1.149,1.649c1.15,0,2.2-1.3,3.399-4.299l1.3-4.074C74.255,51.772,73.63,51.123,72.68,51.123z"/>
	<path fill="#3D3D3D" d="M86.354,61.545c-1.575,4.974-4.424,7.873-7.823,7.873c-2,0-3.574-1.6-3.574-3.299
		c0-1.075,0.7-1.999,1.749-1.999c0.775,0,1.425,0.675,1.425,1.375c0,0.625-0.399,1.274-0.874,1.35c-0.4,0.1-0.625,0.35-0.625,0.775
		c0,0.675,0.574,1.3,2.024,1.3c1.899,0,2.874-0.95,5.198-8.298l0.425-1.25c-0.824,1.6-1.999,2.399-3.224,2.399
		c-2.475,0-3.274-1.925-3.274-3.899c0-3.274,3.024-7.148,6.873-7.148c0.925,0,1.7,0.45,2,1.075l0.375-0.725l2.749-0.45
		L86.354,61.545z M84.779,51.198c-0.449,0-0.874,0.15-1.3,0.5c-1.725,1.2-3.099,4.849-3.099,7.798c0,1.3,0.325,1.7,1,1.7
		c1.274,0,2.399-1.25,3.674-4.449l1.274-3.999C86.354,51.772,85.754,51.198,84.779,51.198z"/>
	<path fill="#3D3D3D" d="M98.104,54.722c-0.85,0-1.3-0.5-1.3-1.075c0-0.5,0.3-0.65,0.3-1c0-0.425-0.125-0.675-0.625-0.675
		c-0.749,0-1.649,1.525-3.273,5.049l-1.4,4.499H88.98l2.75-8.698c0.225-0.7-0.025-1.175-0.525-1.175s-1,0.425-1.475,1.425
		l-0.475-0.175c0.649-1.35,1.824-2.25,3.124-2.25c1.399,0,2.374,1.1,1.75,3.449c1.074-2.349,2.149-3.449,3.374-3.449
		c1.249,0,2.074,0.925,2.074,2.175C99.578,53.722,98.929,54.722,98.104,54.722z"/>
	<path fill="#3D3D3D" d="M107.653,59.996c-0.1,0.35,0.025,0.725,0.5,0.725c0.825,0,1.575-0.75,2.1-1.7l0.5,0.175
		c-0.725,1.475-2.274,2.549-3.524,2.549c-1.449,0-2.324-1.025-1.975-2.424c-0.824,1.6-1.85,2.424-3.349,2.424
		c-2.449,0-3.274-2.05-3.274-4.024c0-3.149,3.024-7.048,6.873-7.048c0.851,0,1.7,0.45,1.875,1.274l0.524-1.025l2.725-0.35
		L107.653,59.996z M105.504,51.123c-0.324,0-0.675,0.1-1.274,0.525c-1.824,1.399-2.949,5.749-2.949,7.823
		c0,1.299,0.5,1.649,1.149,1.649c1.15,0,2.2-1.3,3.399-4.299l1.3-4.074C107.079,51.772,106.454,51.123,105.504,51.123z"/>
	<path fill="#3D3D3D" d="M125.727,61.745c-1.35,0-2.124-0.9-2.124-1.925c0-2.024,1.975-4.449,1.975-6.648
		c0-0.6-0.2-1.049-0.825-1.049c-0.75,0-1.699,1.075-3.449,4.374l-1.55,5.024h-2.824l2.199-6.874c0.5-1.649,0.226-2.524-0.624-2.524
		c-0.925,0-1.65,0.774-3.524,4.099l-1.649,5.299h-2.8l2.75-8.698c0.225-0.7-0.025-1.175-0.525-1.175s-0.975,0.35-1.475,1.425
		l-0.475-0.175c0.625-1.35,1.8-2.25,3.124-2.25c1.449,0,2.425,1.175,1.649,3.699c1.649-2.899,2.999-3.699,4.374-3.699
		c1.524,0,2.749,1.25,2.024,3.699c1.45-2.574,2.899-3.699,4.225-3.699c1.324,0,2.099,0.8,2.099,2.25
		c0,2.575-2.224,5.274-2.224,6.874c0,0.575,0.225,0.975,0.774,0.975c0.75,0,1.375-0.5,2.124-1.7l0.45,0.175
		C128.576,60.895,127.076,61.745,125.727,61.745z"/>
	<path fill="#3D3D3D" d="M7.881,89.579L7.101,92.6h2.101c0.04,0,0.04,0.4,0,0.4H6.98l-0.92,3.381c0,0.04-0.38,0-0.36-0.04L6.601,93
		H4.3L3.42,96.38c-0.021,0.04-0.38,0-0.38-0.04L3.939,93H2.02c-0.04,0-0.04-0.4,0-0.4H4.08l0.74-3.021H2.939c-0.04,0-0.04-0.4,0-0.4
		H4.94l0.82-3.041c0.02-0.04,0.38,0,0.359,0.04l-0.8,3h2.28l0.8-3.041c0.021-0.04,0.4,0,0.381,0.04l-0.78,3h2.101
		c0.04,0,0.04,0.4,0,0.4H7.881z M5.22,89.579L4.42,92.6h2.301l0.78-3.021H5.22z"/>
	<path fill="#3D3D3D" d="M21.422,95.52c-0.02,0-0.02-0.4,0-0.4h1.141c0.08,0,0.14-0.02,0.14-0.08v-5.781
		c0-1.4-0.68-2.041-1.36-2.041c-1.66,0-2.341,1.3-2.341,2.34v5.481c0,0.06,0.021,0.08,0.12,0.08h1.141c0.06,0,0.06,0.4,0,0.4h-4.541
		c-0.04,0-0.04-0.4,0-0.4h1.12c0.08,0,0.12-0.02,0.12-0.08v-5.781c0-1.4-0.62-2.041-1.34-2.041c-1.221,0-1.881,0.6-2.321,1.98v5.841
		c0,0.06,0.04,0.08,0.12,0.08h1.12c0.061,0,0.061,0.4,0,0.4H9.999c-0.06,0-0.06-0.4,0-0.4h1.121c0.12,0,0.16-0.02,0.16-0.08v-7.562
		c0-0.06-0.04-0.08-0.16-0.08H9.999c-0.06,0-0.06-0.4,0-0.4h3.241c0.04,0,0.06,0.02,0.06,0.06v1.32c0.36-1.12,1.4-1.56,2.321-1.56
		c1.84,0,2.88,0.64,3.28,1.6c0.48-1.16,1.521-1.6,2.44-1.6c2.101,0,3.361,0.8,3.361,2.92v5.301c0,0.06,0.06,0.08,0.14,0.08h1.16
		c0.02,0,0.02,0.4,0,0.4H21.422z"/>
	<path fill="#3D3D3D" d="M30.279,95.7c-2.34,0-4.28-2-4.28-4.441c0-2.441,1.94-4.441,4.28-4.441c2.381,0,4.302,2,4.302,4.441
		C34.581,93.7,32.66,95.7,30.279,95.7z M31.64,87.638c-0.359-0.34-0.8-0.42-1.36-0.42c-0.52,0-0.979,0.08-1.34,0.42
		c-0.58,0.54-0.84,1.681-0.84,3.621c0,2.22,0.26,3.081,0.84,3.621c0.36,0.34,0.82,0.42,1.34,0.42c0.561,0,1.001-0.08,1.36-0.42
		c0.58-0.54,0.82-1.4,0.82-3.621C32.46,89.319,32.22,88.178,31.64,87.638z"/>
	<path fill="#3D3D3D" d="M40.7,95.52c-0.061,0-0.061-0.4,0-0.4h1.12c0.08,0,0.1-0.02,0.1-0.08v-5.781c0-1.4-0.62-2.041-1.34-2.041
		c-1.221,0-1.881,0.6-2.341,1.98v5.841c0,0.06,0.06,0.08,0.14,0.08h1.141c0.04,0,0.04,0.4,0,0.4h-4.562c-0.039,0-0.039-0.4,0-0.4
		h1.121c0.1,0,0.16-0.02,0.16-0.08v-7.562c0-0.06-0.061-0.08-0.16-0.08h-1.121c-0.039,0-0.039-0.4,0-0.4h3.221
		c0.061,0,0.061,0.02,0.061,0.06v1.32c0.38-1.12,1.42-1.56,2.341-1.56c2.12,0,3.4,1.22,3.4,3.34v4.881c0,0.06,0.02,0.08,0.12,0.08
		h1.12c0.06,0,0.06,0.4,0,0.4H40.7z"/>
	<path fill="#3D3D3D" d="M45.158,95.52c-0.04,0-0.04-0.4,0-0.4h1.141c0.1,0,0.14-0.02,0.14-0.08v-7.562c0-0.06-0.04-0.08-0.14-0.08
		h-1.141c-0.04,0-0.04-0.4,0-0.4h3.241c0.04,0,0.06,0.02,0.06,0.06v7.982c0,0.06,0.04,0.08,0.12,0.08h1.16c0.04,0,0.04,0.4,0,0.4
		H45.158z M47.459,83.578c-0.72,0-1.28-0.6-1.28-1.32c0-0.74,0.561-1.36,1.28-1.36c0.721,0,1.261,0.62,1.261,1.36
		C48.72,82.978,48.18,83.578,47.459,83.578z"/>
	<path fill="#3D3D3D" d="M54.32,95.7c-2.36,0-4.301-2-4.301-4.441c0-2.441,1.94-4.441,4.301-4.441c1.86,0,3.101,1.34,3.101,2.34
		c0,0.62-0.38,0.9-0.92,0.9c-0.561,0-0.881-0.34-0.881-0.74c0-0.521,0.221-0.48,0.221-1.081c0-0.76-0.521-1.02-1.521-1.02
		c-0.54,0-1,0.08-1.34,0.42c-0.601,0.54-0.841,1.4-0.841,3.621c0,2.22,0.24,3.081,0.841,3.621c0.34,0.34,0.8,0.42,1.34,0.42
		c1.44,0,2.66-0.72,3.32-1.72c0.021-0.02,0.221,0.18,0.181,0.22C57.041,94.94,55.74,95.7,54.32,95.7z"/>
	<path fill="#3D3D3D" d="M64.541,95.68c-0.881,0-1.661-0.64-1.801-1.42c-0.28,0.8-1.04,1.42-2.12,1.42
		c-1.381,0-2.861-0.52-2.861-2.101c0-2.101,1.94-2.46,2.761-2.541c1.12-0.1,2.161-0.18,2.161-0.6v-1.521c0-1.6-0.62-1.72-1.341-1.72
		c-0.58,0-1,0.08-1,0.68c0,0.34,0.16,0.46,0.16,0.8c0,0.4-0.261,0.76-0.94,0.76c-0.641,0-0.9-0.5-0.9-0.96
		c0-0.74,1.061-1.68,2.681-1.68c2.101,0,3.381,1.12,3.381,3.621V94.4c0,0.5,0.18,0.7,0.44,0.7c0.34,0,0.56-0.22,0.62-0.42
		c0.02-0.04,0.26,0.18,0.239,0.22C65.901,95.26,65.301,95.68,64.541,95.68z M62.681,91.019c-0.461,0.3-1.181,0.3-1.761,0.4
		c-0.72,0.14-1.16,0.32-1.16,2.161c0,1.04,0.28,1.62,1.22,1.62c1.041,0,1.701-1.06,1.701-2.14V91.019z"/>
	<path fill="#3D3D3D" d="M73.421,87.378c-0.16,0-0.22,0.08-0.5,0.84l-4.562,12.023c-0.439,1.2-1.12,1.62-1.92,1.62
		c-0.86,0-1.5-0.74-1.5-1.521c0-0.68,0.439-1.22,1.06-1.22c0.561,0,0.881,0.38,0.881,0.8c0,0.48-0.44,0.62-0.44,1.06
		c0,0.22,0.08,0.42,0.36,0.42c0.279,0,0.779-0.08,1.18-1.12l1.74-4.561l-3.9-8.262c-0.021-0.04-0.061-0.08-0.16-0.08h-1.101
		c-0.06,0-0.06-0.38,0-0.38h4.802c0.08,0,0.08,0.38,0,0.38H68.14c-0.08,0-0.1,0.04-0.08,0.08l2.521,5.921l1.961-5.161
		c0.3-0.78,0.279-0.84,0.14-0.84H71.54c-0.06,0-0.06-0.38,0-0.38h3.061c0.061,0,0.061,0.38,0,0.38H73.421z"/>
	<path fill="#3D3D3D" d="M78.84,95.7c-0.8,0-1.7-0.46-2.18-0.98v0.74c0,0.04,0,0.06-0.061,0.06h-3.261c-0.04,0-0.04-0.4,0-0.4h1.181
		c0.08,0,0.12-0.02,0.12-0.08V81.297c0-0.06-0.04-0.08-0.12-0.08h-1.181c-0.04,0-0.04-0.4,0-0.4H76.6c0.061,0,0.061,0.04,0.061,0.06
		v6.761c0.479-0.52,1.08-0.82,1.9-0.82c2.36,0,4.28,2.28,4.28,4.501C82.841,93.52,81.221,95.7,78.84,95.7z M79.92,87.638
		c-0.359-0.32-0.819-0.42-1.359-0.42c-0.761,0-1.661,0.42-1.9,1.12v5.621c0.38,0.92,1.399,1.34,2.18,1.34
		c0.54,0,0.721-0.08,1.08-0.42c0.581-0.52,0.801-1.64,0.801-3.561C80.721,89.419,80.501,88.159,79.92,87.638z"/>
	<path fill="#3D3D3D" d="M87.72,95.7c-2.34,0-4.28-2-4.28-4.441c0-2.441,1.94-4.441,4.28-4.441c2.381,0,4.302,2,4.302,4.441
		C92.021,93.7,90.101,95.7,87.72,95.7z M89.08,87.638c-0.359-0.34-0.8-0.42-1.36-0.42c-0.52,0-0.979,0.08-1.34,0.42
		c-0.58,0.54-0.84,1.681-0.84,3.621c0,2.22,0.26,3.081,0.84,3.621c0.36,0.34,0.82,0.42,1.34,0.42c0.561,0,1.001-0.08,1.36-0.42
		c0.58-0.54,0.82-1.4,0.82-3.621C89.9,89.319,89.66,88.178,89.08,87.638z"/>
	<path fill="#3D3D3D" d="M98.4,89.779c-0.66,0-1.04-0.34-1.04-0.78c0-0.52,0.279-0.56,0.279-0.96c0-0.4-0.239-0.64-0.56-0.64
		c-0.601,0-1.08,0.36-1.48,2.06v5.582c0,0.06,0.02,0.08,0.12,0.08h1.101c0.06,0,0.06,0.4,0,0.4h-4.541c-0.04,0-0.04-0.4,0-0.4h1.14
		c0.101,0,0.141-0.02,0.141-0.08v-7.562c0-0.06-0.04-0.08-0.141-0.08h-1.14c-0.04,0-0.04-0.4,0-0.4h3.261
		c0.02,0,0.06,0.02,0.06,0.06v1.32c0.42-1.26,1.101-1.56,2.061-1.56c1.12,0,1.78,0.84,1.78,1.7S98.98,89.779,98.4,89.779z"/>
	<path fill="#3D3D3D" d="M99.398,95.52c-0.04,0-0.04-0.4,0-0.4h1.141c0.1,0,0.14-0.02,0.14-0.08v-7.562c0-0.06-0.04-0.08-0.14-0.08
		h-1.141c-0.04,0-0.04-0.4,0-0.4h3.241c0.04,0,0.06,0.02,0.06,0.06v7.982c0,0.06,0.04,0.08,0.12,0.08h1.16c0.04,0,0.04,0.4,0,0.4
		H99.398z M101.699,83.578c-0.72,0-1.28-0.6-1.28-1.32c0-0.74,0.561-1.36,1.28-1.36c0.721,0,1.261,0.62,1.261,1.36
		C102.96,82.978,102.42,83.578,101.699,83.578z"/>
	<path fill="#3D3D3D" d="M107.579,95.7c-1.22,0-1.44-0.54-2.061-0.54c-0.38,0-0.7,0.24-0.74,0.38c-0.02,0.06-0.38,0.04-0.359,0
		l0.1-3.101c0-0.04,0.36-0.04,0.36,0c-0.021,1.56,1.12,2.86,2.7,2.86c1.141,0,1.881-0.5,1.881-1.68c0-1.02-0.78-1.28-2.381-1.72
		c-1.48-0.36-2.381-1.061-2.381-2.381c0-1.74,1.241-2.7,2.521-2.7c1,0,0.96,0.3,1.66,0.3c0.26,0,0.42-0.26,0.439-0.34
		c0.021-0.04,0.381-0.04,0.381,0v2.521c0,0.04-0.381,0.04-0.381,0c0-1.16-1.14-2.081-2.1-2.081c-0.961,0-1.541,0.44-1.541,1.38
		c0,0.98,0.801,1.2,2.341,1.64c1.42,0.38,2.58,1.14,2.58,2.561C110.6,94.42,109.54,95.7,107.579,95.7z"/>
	<path fill="#3D3D3D" d="M112.52,95.24h2.22V82.56c-0.2,0.147-0.427,0.293-0.681,0.44l-2.279,1.3l-0.16-0.26
		c0.88-0.493,1.68-0.967,2.4-1.42c0.72-0.453,1.399-1,2.039-1.64h0.4v14.26h2.22v0.28h-6.159V95.24z"/>
	<path fill="#3D3D3D" d="M120.078,92.04c0-0.573,0.123-1.073,0.37-1.5s0.547-0.793,0.9-1.1c0.353-0.307,0.727-0.56,1.12-0.76
		c0.393-0.2,0.729-0.36,1.01-0.48c-0.387-0.173-0.75-0.363-1.09-0.57c-0.34-0.207-0.634-0.446-0.88-0.72
		c-0.247-0.273-0.44-0.597-0.58-0.97c-0.141-0.373-0.21-0.827-0.21-1.36c0-0.52,0.116-1,0.35-1.44s0.536-0.82,0.91-1.14
		c0.373-0.32,0.797-0.57,1.27-0.75c0.474-0.18,0.957-0.27,1.45-0.27c0.453,0,0.9,0.07,1.34,0.21c0.44,0.14,0.83,0.34,1.17,0.6
		c0.341,0.26,0.613,0.573,0.82,0.94s0.31,0.777,0.31,1.23c0,0.427-0.073,0.804-0.22,1.13c-0.146,0.327-0.347,0.627-0.6,0.9
		c-0.254,0.273-0.54,0.523-0.86,0.75s-0.653,0.447-1,0.66c0.387,0.187,0.776,0.397,1.17,0.63c0.394,0.234,0.747,0.51,1.061,0.83
		c0.312,0.32,0.569,0.687,0.77,1.1c0.2,0.414,0.3,0.88,0.3,1.4c0,0.587-0.106,1.147-0.319,1.68c-0.214,0.533-0.523,1.003-0.931,1.41
		c-0.406,0.407-0.899,0.733-1.479,0.98s-1.237,0.37-1.97,0.37c-0.587,0-1.138-0.093-1.65-0.28c-0.514-0.187-0.957-0.447-1.33-0.78
		c-0.373-0.333-0.667-0.73-0.88-1.19C120.185,93.09,120.078,92.587,120.078,92.04z M121.719,92.18c0,0.44,0.05,0.86,0.149,1.26
		c0.101,0.4,0.26,0.757,0.48,1.07c0.22,0.313,0.506,0.56,0.859,0.74s0.783,0.27,1.29,0.27c0.44,0,0.833-0.11,1.181-0.33
		c0.347-0.22,0.646-0.493,0.899-0.82s0.447-0.69,0.58-1.09c0.133-0.4,0.2-0.78,0.2-1.14c0-0.573-0.104-1.05-0.31-1.43
		c-0.207-0.38-0.48-0.707-0.82-0.98c-0.34-0.273-0.727-0.517-1.16-0.73c-0.434-0.213-0.87-0.433-1.31-0.66
		c-0.44,0.213-0.794,0.457-1.061,0.73c-0.267,0.273-0.474,0.57-0.62,0.89s-0.243,0.667-0.29,1.04
		C121.741,91.374,121.719,91.767,121.719,92.18z M122.099,83.92c0,0.427,0.062,0.793,0.189,1.1s0.311,0.573,0.55,0.8
		c0.094,0.094,0.233,0.2,0.421,0.32c0.187,0.12,0.393,0.243,0.619,0.37c0.227,0.126,0.471,0.253,0.73,0.38
		c0.26,0.127,0.517,0.25,0.77,0.37c0.16-0.093,0.323-0.217,0.49-0.37s0.323-0.347,0.47-0.58c0.147-0.233,0.267-0.51,0.36-0.83
		c0.093-0.32,0.14-0.687,0.14-1.1c0-0.4-0.026-0.787-0.079-1.16c-0.054-0.374-0.154-0.707-0.301-1s-0.363-0.527-0.649-0.7
		c-0.287-0.173-0.657-0.26-1.11-0.26c-0.8,0-1.434,0.247-1.899,0.74C122.331,82.494,122.099,83.133,122.099,83.92z"/>
</g>
<g>
</g>
<g>
</g>
<g>
</g>
<g>
</g>
<g>
</g>
<g>
</g>
</svg>
