<?xml version="1.0" encoding="utf-8"?>
<!-- Generator: Adobe Illustrator 16.0.0, SVG Export Plug-In . SVG Version: 6.00 Build 0)  -->
<!DOCTYPE svg PUBLIC "-//W3C//DTD SVG 1.1//EN" "http://www.w3.org/Graphics/SVG/1.1/DTD/svg11.dtd">
<svg version="1.1" id="Layer_1" xmlns="http://www.w3.org/2000/svg" xmlns:xlink="http://www.w3.org/1999/xlink" x="0px" y="0px"
	 width="43.399px" height="10.164px" viewBox="0 0 43.399 10.164" enable-background="new 0 0 43.399 10.164" xml:space="preserve">
<g opacity="0.4">
	<path d="M12.729,10.028H8.615V9.81c0.315,0,0.502-0.05,0.561-0.15c0.059-0.1,0.088-0.336,0.088-0.709l0.013-0.628V5.566
		L9.264,5.007c0-0.391-0.047-0.673-0.142-0.846S8.858,3.902,8.615,3.902c-0.163,0-0.336,0.075-0.521,0.225S7.785,4.57,7.722,5.007
		v3.315L7.736,8.95c0,0.291,0.015,0.5,0.047,0.627C7.814,9.705,7.988,9.782,8.304,9.81v0.218H4.426V9.81
		c0.307,0,0.491-0.05,0.554-0.15c0.063-0.1,0.095-0.336,0.095-0.709l0.014-0.628V5.566L5.075,5.007c0-0.391-0.047-0.673-0.142-0.846
		C4.838,3.988,4.67,3.902,4.426,3.902c-0.307,0-0.517,0.1-0.629,0.3c-0.113,0.2-0.201,0.405-0.264,0.614v3.506L3.547,8.95
		c0,0.291,0.016,0.5,0.048,0.627C3.625,9.705,3.799,9.782,4.115,9.81v0.218H0.028V9.81l0.3-0.014
		C0.591,9.768,0.75,9.705,0.805,9.605C0.86,9.504,0.887,9.287,0.887,8.95L0.9,8.322V5.062L0.887,4.502
		C0.869,4.284,0.841,4.12,0.805,4.011c-0.036-0.109-0.2-0.177-0.491-0.205L0,3.779V3.561h3.479v1.023
		C3.561,4.33,3.722,4.072,3.963,3.813c0.241-0.259,0.73-0.389,1.467-0.389c0.509,0,0.953,0.107,1.33,0.32
		C7.137,3.959,7.417,4.279,7.6,4.707c0.045-0.164,0.166-0.418,0.361-0.764c0.195-0.345,0.748-0.519,1.658-0.519
		c0.618,0,1.155,0.173,1.609,0.519c0.455,0.346,0.682,0.791,0.682,1.337v3.042l0.014,0.628c0,0.345,0.025,0.564,0.076,0.655
		c0.05,0.09,0.211,0.155,0.484,0.191l0.246,0.014V10.028z"/>
	<path d="M20.009,9.359c0.215,0,0.366-0.135,0.451-0.404c0.085-0.27,0.127-0.592,0.127-0.967h0.191c0,0.803-0.143,1.332-0.429,1.587
		c-0.287,0.256-0.543,0.417-0.771,0.486c-0.228,0.068-0.519,0.103-0.874,0.103c-0.391,0-0.739-0.1-1.043-0.301
		c-0.305-0.2-0.489-0.469-0.553-0.806c-0.145,0.369-0.389,0.646-0.729,0.831c-0.341,0.184-0.785,0.276-1.331,0.276
		c-0.582,0-1.055-0.159-1.418-0.479c-0.364-0.319-0.546-0.761-0.546-1.326c0-0.455,0.114-0.822,0.341-1.101
		c0.227-0.278,0.458-0.449,0.695-0.513c0.237-0.063,0.6-0.119,1.092-0.164c0.491-0.045,0.852-0.098,1.084-0.157
		c0.232-0.06,0.398-0.124,0.498-0.191c0.1-0.068,0.15-0.185,0.15-0.349l-0.014-1.244c0-0.355-0.045-0.611-0.135-0.766
		c-0.09-0.155-0.279-0.233-0.567-0.233c-0.18,0-0.331,0.042-0.452,0.124c-0.122,0.083-0.183,0.187-0.183,0.315
		c0,0.1,0.097,0.226,0.291,0.376c0.194,0.151,0.291,0.377,0.291,0.679c0,0.283-0.125,0.535-0.376,0.754S15.14,6.22,14.575,6.22
		c-0.311,0-0.582-0.084-0.815-0.253c-0.232-0.169-0.349-0.395-0.349-0.678c0-0.567,0.317-1.019,0.95-1.357
		c0.634-0.338,1.388-0.507,2.263-0.507c0.738,0,1.417,0.153,2.038,0.459c0.619,0.307,0.93,0.779,0.93,1.418v3.139
		c0,0.292,0.027,0.516,0.081,0.671C19.717,9.277,19.829,9.359,20.009,9.359z M16.945,8.95V6.343L16.904,6.33
		c-0.081,0.109-0.231,0.212-0.452,0.307c-0.221,0.096-0.373,0.189-0.458,0.28c-0.086,0.091-0.153,0.266-0.203,0.525
		c-0.049,0.259-0.074,0.525-0.074,0.798c0,0.409,0.031,0.737,0.094,0.982s0.207,0.369,0.432,0.369c0.171,0,0.322-0.069,0.452-0.205
		C16.826,9.25,16.909,9.104,16.945,8.95z"/>
	<path d="M25.158,10.028h-4.435V9.81l0.328-0.014c0.264-0.028,0.423-0.091,0.478-0.191c0.055-0.101,0.082-0.318,0.082-0.655
		l0.014-0.628V5.062l-0.014-0.559c-0.018-0.218-0.045-0.382-0.082-0.492c-0.037-0.109-0.2-0.177-0.491-0.205l-0.369-0.027V3.561
		h3.588v4.761l0.014,0.628c0,0.327,0.027,0.543,0.082,0.648s0.213,0.17,0.478,0.198l0.327,0.014V10.028z M21.583,1.283
		c0-0.355,0.13-0.657,0.391-0.907S22.548,0,22.914,0c0.375,0,0.693,0.121,0.953,0.362c0.261,0.241,0.391,0.548,0.391,0.921
		c0,0.363-0.13,0.67-0.391,0.92c-0.26,0.25-0.578,0.375-0.953,0.375c-0.365,0-0.679-0.125-0.939-0.375
		C21.714,1.953,21.583,1.646,21.583,1.283z"/>
	<path d="M26.154,4.08h-0.928V3.711c0.309-0.082,0.632-0.234,0.97-0.457c0.337-0.223,0.66-0.482,0.966-0.777
		c0.307-0.296,0.562-0.584,0.768-0.867c0.206-0.282,0.363-0.537,0.474-0.764h0.384v2.715h1.775l-0.19,0.519h-1.585v3.711
		l0.027,0.695c0,0.391,0.086,0.687,0.257,0.887c0.171,0.2,0.388,0.3,0.651,0.3c0.352,0,0.609-0.148,0.772-0.443
		c0.163-0.296,0.244-0.625,0.244-0.989h0.191c0,0.509-0.149,0.957-0.448,1.344c-0.298,0.386-0.94,0.58-1.927,0.58
		c-0.631,0-1.189-0.164-1.674-0.491s-0.727-0.786-0.727-1.378V4.08z"/>
	<path d="M35.295,10.028H30.86V9.81l0.328-0.014c0.264-0.028,0.423-0.091,0.479-0.191c0.054-0.101,0.082-0.318,0.082-0.655
		l0.014-0.628V5.062l-0.014-0.559c-0.019-0.218-0.045-0.382-0.082-0.492c-0.036-0.109-0.2-0.177-0.491-0.205l-0.369-0.027V3.561
		h3.588v4.761l0.014,0.628c0,0.327,0.027,0.543,0.082,0.648c0.055,0.104,0.214,0.17,0.478,0.198l0.328,0.014V10.028z M31.72,1.283
		c0-0.355,0.13-0.657,0.391-0.907C32.371,0.125,32.685,0,33.051,0c0.375,0,0.692,0.121,0.953,0.362s0.391,0.548,0.391,0.921
		c0,0.363-0.13,0.67-0.391,0.92c-0.261,0.25-0.578,0.375-0.953,0.375c-0.366,0-0.68-0.125-0.939-0.375
		C31.85,1.953,31.72,1.646,31.72,1.283z"/>
	<path d="M42.629,9.359c0.215,0,0.365-0.135,0.451-0.404c0.085-0.27,0.128-0.592,0.128-0.967h0.191c0,0.803-0.143,1.332-0.43,1.587
		c-0.287,0.256-0.544,0.417-0.771,0.486c-0.228,0.068-0.519,0.103-0.873,0.103c-0.391,0-0.739-0.1-1.044-0.301
		c-0.305-0.2-0.489-0.469-0.552-0.806c-0.146,0.369-0.389,0.646-0.73,0.831c-0.341,0.184-0.785,0.276-1.33,0.276
		c-0.583,0-1.056-0.159-1.419-0.479c-0.364-0.319-0.545-0.761-0.545-1.326c0-0.455,0.113-0.822,0.34-1.101
		c0.228-0.278,0.459-0.449,0.696-0.513c0.237-0.063,0.601-0.119,1.092-0.164s0.853-0.098,1.084-0.157
		c0.232-0.06,0.398-0.124,0.498-0.191c0.1-0.068,0.15-0.185,0.15-0.349l-0.014-1.244c0-0.355-0.045-0.611-0.135-0.766
		c-0.09-0.155-0.279-0.233-0.567-0.233c-0.18,0-0.332,0.042-0.453,0.124c-0.121,0.083-0.182,0.187-0.182,0.315
		c0,0.1,0.097,0.226,0.291,0.376c0.193,0.151,0.291,0.377,0.291,0.679c0,0.283-0.125,0.535-0.376,0.754
		C38.168,6.11,37.76,6.22,37.194,6.22c-0.31,0-0.582-0.084-0.814-0.253c-0.233-0.169-0.349-0.395-0.349-0.678
		c0-0.567,0.316-1.019,0.95-1.357s1.388-0.507,2.263-0.507c0.739,0,1.417,0.153,2.038,0.459c0.62,0.307,0.93,0.779,0.93,1.418v3.139
		c0,0.292,0.026,0.516,0.081,0.671C42.338,9.277,42.449,9.359,42.629,9.359z M39.565,8.95V6.343L39.524,6.33
		c-0.081,0.109-0.232,0.212-0.452,0.307c-0.22,0.096-0.374,0.189-0.458,0.28c-0.086,0.091-0.154,0.266-0.203,0.525
		c-0.049,0.259-0.074,0.525-0.074,0.798c0,0.409,0.032,0.737,0.095,0.982c0.062,0.246,0.207,0.369,0.432,0.369
		c0.171,0,0.321-0.069,0.452-0.205C39.446,9.25,39.529,9.104,39.565,8.95z"/>
</g>
<g>
</g>
<g>
</g>
<g>
</g>
<g>
</g>
<g>
</g>
<g>
</g>
</svg>
