<?xml version="1.0" encoding="utf-8"?>
<!-- Generator: Adobe Illustrator 16.0.0, SVG Export Plug-In . SVG Version: 6.00 Build 0)  -->
<!DOCTYPE svg PUBLIC "-//W3C//DTD SVG 1.1//EN" "http://www.w3.org/Graphics/SVG/1.1/DTD/svg11.dtd">
<svg version="1.1" id="Layer_1" xmlns="http://www.w3.org/2000/svg" xmlns:xlink="http://www.w3.org/1999/xlink" x="0px" y="0px"
	 width="126.229px" height="81.524px" viewBox="0 0 126.229 81.524" enable-background="new 0 0 126.229 81.524"
	 xml:space="preserve">
<g>
	<path fill="#3D3D3D" d="M3.782,52.358h8.151V5.801c-0.734,0.54-1.567,1.078-2.497,1.616L1.065,12.19l-0.587-0.955
		c3.231-1.81,6.168-3.548,8.812-5.213C11.933,4.358,14.43,2.35,16.78,0h1.469v52.358H26.4v1.029H3.782V52.358z"/>
	<path fill="#3D3D3D" d="M31.54,40.61c0-2.105,0.452-3.941,1.358-5.508c0.905-1.566,2.007-2.912,3.305-4.039
		c1.296-1.126,2.667-2.057,4.112-2.791c1.443-0.734,2.68-1.322,3.709-1.762c-1.421-0.637-2.754-1.334-4.003-2.094
		c-1.248-0.758-2.325-1.639-3.231-2.643c-0.906-1.004-1.615-2.191-2.129-3.562c-0.514-1.369-0.771-3.035-0.771-4.993
		c0-1.909,0.428-3.672,1.285-5.287c0.856-1.616,1.971-3.011,3.342-4.186c1.369-1.175,2.924-2.093,4.662-2.754
		C44.917,0.331,46.691,0,48.502,0c1.664,0,3.305,0.257,4.92,0.771c1.616,0.514,3.048,1.249,4.297,2.203
		c1.248,0.955,2.251,2.105,3.01,3.452c0.76,1.347,1.139,2.852,1.139,4.516c0,1.567-0.27,2.949-0.808,4.148
		c-0.539,1.201-1.273,2.303-2.203,3.305c-0.931,1.004-1.982,1.922-3.157,2.754c-1.176,0.833-2.399,1.641-3.672,2.424
		c1.419,0.686,2.852,1.457,4.296,2.312c1.443,0.857,2.741,1.873,3.892,3.048s2.094,2.522,2.828,4.039
		c0.734,1.519,1.102,3.231,1.102,5.14c0,2.155-0.393,4.211-1.176,6.169c-0.783,1.959-1.922,3.685-3.414,5.177
		c-1.494,1.494-3.305,2.693-5.435,3.599s-4.542,1.358-7.233,1.358c-2.154,0-4.174-0.343-6.059-1.027
		c-1.885-0.686-3.514-1.641-4.883-2.864c-1.372-1.224-2.449-2.681-3.231-4.37C31.931,44.464,31.54,42.618,31.54,40.61z
		 M37.561,41.124c0,1.615,0.184,3.157,0.551,4.626s0.955,2.779,1.763,3.929c0.808,1.15,1.86,2.057,3.157,2.717
		c1.297,0.661,2.875,0.992,4.736,0.992c1.615,0,3.06-0.404,4.333-1.212c1.272-0.808,2.374-1.812,3.305-3.011
		c0.929-1.199,1.64-2.533,2.13-4.002c0.488-1.469,0.734-2.864,0.734-4.186c0-2.105-0.381-3.855-1.139-5.252
		c-0.76-1.395-1.762-2.594-3.011-3.598c-1.249-1.003-2.669-1.896-4.259-2.68c-1.592-0.783-3.195-1.591-4.811-2.424
		c-1.615,0.783-2.913,1.678-3.893,2.68c-0.979,1.004-1.738,2.094-2.275,3.269c-0.539,1.175-0.895,2.448-1.064,3.818
		C37.646,38.162,37.561,39.606,37.561,41.124z M38.957,10.795c0,1.567,0.231,2.913,0.697,4.04c0.465,1.126,1.138,2.105,2.02,2.937
		c0.342,0.343,0.856,0.734,1.542,1.175c0.686,0.441,1.443,0.895,2.277,1.359c0.831,0.465,1.725,0.93,2.68,1.395
		c0.955,0.466,1.896,0.918,2.827,1.359c0.587-0.343,1.187-0.796,1.8-1.359c0.611-0.562,1.186-1.272,1.725-2.129
		s0.979-1.873,1.322-3.048c0.342-1.175,0.514-2.521,0.514-4.039c0-1.469-0.098-2.888-0.293-4.259
		c-0.197-1.37-0.564-2.594-1.102-3.671c-0.539-1.077-1.335-1.934-2.387-2.57c-1.054-0.636-2.412-0.955-4.076-0.955
		c-2.938,0-5.263,0.906-6.977,2.717C39.813,5.557,38.957,7.907,38.957,10.795z"/>
</g>
<g>
	<path fill="#3D3D3D" d="M82.856,15.172c0,0.749-0.078,1.451-0.233,2.109c-0.155,0.656-0.411,1.231-0.767,1.725
		c-0.355,0.492-0.826,0.881-1.41,1.164c-0.584,0.282-1.297,0.424-2.136,0.424c-0.585,0-1.122-0.068-1.616-0.205
		c-0.492-0.137-0.922-0.338-1.287-0.603s-0.652-0.579-0.861-0.944c-0.211-0.365-0.315-0.775-0.315-1.232
		c0-0.548,0.155-0.99,0.466-1.328s0.767-0.507,1.369-0.507c0.273,0,0.502,0.046,0.684,0.138c0.184,0.091,0.324,0.195,0.426,0.314
		c0.1,0.119,0.172,0.251,0.219,0.396c0.045,0.146,0.068,0.274,0.068,0.384c0,0.201-0.027,0.374-0.082,0.521
		s-0.109,0.292-0.164,0.438c-0.055,0.146-0.11,0.301-0.165,0.466c-0.055,0.164-0.082,0.374-0.082,0.63c0,0.42,0.123,0.717,0.37,0.89
		c0.246,0.174,0.578,0.261,0.999,0.261c0.529,0,0.958-0.196,1.287-0.59c0.329-0.392,0.493-1.081,0.493-2.066V1.071h-3.04V0.688
		h8.817v0.383h-3.039V15.172z"/>
	<path fill="#3D3D3D" d="M99.887,20.184h-4.408v-2.766h-0.055c-0.164,0.365-0.361,0.734-0.59,1.108s-0.511,0.712-0.848,1.013
		c-0.338,0.302-0.73,0.549-1.178,0.74s-0.973,0.287-1.574,0.287c-0.73,0-1.324-0.082-1.78-0.246s-0.812-0.338-1.067-0.521
		c-0.129-0.091-0.27-0.206-0.425-0.343s-0.298-0.323-0.425-0.561c-0.128-0.237-0.237-0.543-0.328-0.918
		c-0.092-0.373-0.137-0.835-0.137-1.383V8.82h-2.109V8.437h4.464v8.406c0,0.476,0.032,0.914,0.096,1.314
		c0.063,0.402,0.187,0.754,0.37,1.055c0.182,0.301,0.42,0.539,0.711,0.712c0.293,0.174,0.676,0.261,1.15,0.261
		c0.401,0,0.816-0.119,1.246-0.356c0.429-0.237,0.821-0.575,1.178-1.013c0.355-0.438,0.652-0.963,0.89-1.574
		c0.237-0.612,0.356-1.301,0.356-2.068V8.82h-2.082V8.437h4.437V19.8h2.108V20.184z"/>
	<path fill="#3D3D3D" d="M99.777,19.8h2.108V0.824h-2.108V0.441h4.464V19.8h2.107v0.384h-6.571V19.8z"/>
	<path fill="#3D3D3D" d="M106.348,19.8h2.109V8.82h-2.109V8.437h4.464V19.8h2.108v0.384h-6.572V19.8z M108.128,2.057
		c0-0.401,0.142-0.744,0.425-1.027c0.283-0.283,0.625-0.424,1.027-0.424c0.4,0,0.742,0.142,1.025,0.424
		c0.283,0.283,0.426,0.625,0.426,1.027c0,0.402-0.143,0.744-0.426,1.027c-0.283,0.283-0.625,0.424-1.025,0.424
		c-0.402,0-0.744-0.141-1.027-0.424C108.27,2.801,108.128,2.458,108.128,2.057z"/>
	<path fill="#3D3D3D" d="M113.385,14.324c0-0.894,0.196-1.726,0.589-2.491c0.393-0.767,0.895-1.429,1.507-1.986
		c0.611-0.557,1.295-0.99,2.053-1.301c0.758-0.31,1.502-0.465,2.232-0.465c0.729,0,1.474,0.155,2.23,0.465
		c0.758,0.311,1.442,0.744,2.055,1.301c0.611,0.557,1.113,1.219,1.506,1.986c0.393,0.766,0.588,1.598,0.588,2.491
		c0,0.858-0.182,1.666-0.547,2.423c-0.365,0.758-0.845,1.42-1.438,1.986c-0.594,0.565-1.273,1.013-2.04,1.342
		c-0.767,0.328-1.552,0.492-2.354,0.492c-0.805,0-1.589-0.164-2.355-0.492c-0.767-0.329-1.447-0.776-2.04-1.342
		c-0.593-0.566-1.072-1.229-1.438-1.986C113.568,15.99,113.385,15.182,113.385,14.324z M116.124,14.324
		c0,1.296,0.1,2.327,0.301,3.095c0.201,0.766,0.467,1.355,0.795,1.766s0.712,0.68,1.15,0.808c0.438,0.128,0.902,0.192,1.396,0.192
		c0.492,0,0.958-0.064,1.396-0.192c0.438-0.128,0.82-0.397,1.149-0.808s0.593-1,0.794-1.766c0.201-0.768,0.301-1.799,0.301-3.095
		c0-1.095-0.072-2.013-0.219-2.752s-0.369-1.342-0.67-1.807c-0.302-0.465-0.681-0.798-1.137-1c-0.457-0.201-0.996-0.301-1.615-0.301
		c-0.621,0-1.16,0.101-1.616,0.301c-0.456,0.201-0.835,0.534-1.136,1c-0.302,0.465-0.525,1.068-0.672,1.807
		S116.124,13.229,116.124,14.324z"/>
	<path fill="#3D3D3D" d="M87.278,53.042H74.764v-0.384c0.712-0.602,1.364-1.158,1.958-1.67c0.593-0.511,1.149-1.014,1.67-1.506
		c0.521-0.493,1.018-0.994,1.493-1.506c0.474-0.512,0.957-1.059,1.451-1.643c1.168-1.424,1.967-2.803,2.396-4.135
		c0.429-1.333,0.644-2.564,0.644-3.697c0-1.643-0.279-2.885-0.836-3.725c-0.557-0.839-1.438-1.259-2.642-1.259
		c-0.931,0-1.698,0.205-2.3,0.616c-0.604,0.41-0.904,0.981-0.904,1.711c0,0.256,0.059,0.516,0.178,0.781
		c0.119,0.264,0.178,0.533,0.178,0.807c0,0.311-0.109,0.544-0.328,0.699c-0.219,0.154-0.475,0.232-0.767,0.232
		c-0.384,0-0.712-0.1-0.985-0.301s-0.411-0.566-0.411-1.096c0-0.475,0.138-0.945,0.411-1.41c0.273-0.466,0.647-0.877,1.123-1.232
		c0.474-0.355,1.04-0.644,1.697-0.862c0.656-0.22,1.359-0.329,2.108-0.329c1.058,0,1.967,0.156,2.724,0.466
		c0.758,0.311,1.383,0.717,1.877,1.219c0.492,0.502,0.857,1.072,1.095,1.711c0.237,0.64,0.356,1.296,0.356,1.972
		c0,0.821-0.119,1.584-0.356,2.287c-0.237,0.702-0.562,1.364-0.972,1.984c-0.411,0.621-0.881,1.215-1.41,1.78
		c-0.53,0.565-1.087,1.132-1.671,1.697c-0.821,0.821-1.629,1.606-2.423,2.354c-0.795,0.75-1.666,1.553-2.615,2.41h6.271
		c1.077,0,1.853-0.26,2.327-0.78s0.768-1.236,0.877-2.149h0.301V53.042z"/>
	<path fill="#3D3D3D" d="M87.852,43.267c0-1.095,0.087-2.241,0.261-3.437c0.173-1.195,0.497-2.291,0.972-3.286
		s1.127-1.812,1.958-2.45s1.903-0.959,3.218-0.959s2.387,0.32,3.217,0.959c0.831,0.639,1.483,1.455,1.958,2.45
		s0.798,2.091,0.972,3.286s0.261,2.342,0.261,3.437c0,1.114-0.087,2.269-0.261,3.464s-0.497,2.291-0.972,3.285
		c-0.475,0.996-1.127,1.812-1.958,2.451c-0.83,0.639-1.902,0.959-3.217,0.959s-2.387-0.32-3.218-0.959s-1.483-1.455-1.958-2.451
		c-0.475-0.994-0.799-2.09-0.972-3.285C87.939,45.536,87.852,44.381,87.852,43.267z M90.59,43.267c0,1.698,0.051,3.163,0.15,4.396
		c0.101,1.231,0.283,2.244,0.549,3.039c0.264,0.794,0.634,1.383,1.108,1.766s1.095,0.575,1.862,0.575
		c0.767,0,1.387-0.192,1.861-0.575s0.845-0.972,1.109-1.766c0.265-0.795,0.447-1.808,0.548-3.039c0.101-1.232,0.15-2.697,0.15-4.396
		s-0.05-3.158-0.15-4.382c-0.101-1.223-0.283-2.23-0.548-3.025c-0.265-0.794-0.635-1.383-1.109-1.766
		c-0.475-0.384-1.095-0.575-1.861-0.575c-0.768,0-1.388,0.191-1.862,0.575c-0.475,0.383-0.845,0.972-1.108,1.766
		c-0.266,0.795-0.448,1.803-0.549,3.025C90.641,40.109,90.59,41.569,90.59,43.267z"/>
	<path fill="#3D3D3D" d="M103.241,52.659h3.039V35.299c-0.273,0.201-0.584,0.401-0.931,0.602l-3.122,1.78l-0.219-0.356
		c1.205-0.675,2.301-1.322,3.286-1.943s1.917-1.369,2.793-2.246h0.548v19.523h3.039v0.384h-8.434V52.659z"/>
	<path fill="#3D3D3D" d="M115.836,33.135h0.903c0.274,0.273,0.552,0.548,0.835,0.822c0.283,0.273,0.594,0.52,0.932,0.738
		c0.337,0.22,0.716,0.394,1.136,0.521c0.42,0.127,0.903,0.191,1.452,0.191c0.364,0,0.701-0.032,1.013-0.096
		c0.31-0.064,0.611-0.183,0.903-0.356c0.292-0.173,0.589-0.406,0.891-0.698c0.301-0.292,0.633-0.666,0.999-1.123l0.301,0.191
		c-0.493,0.676-0.94,1.27-1.341,1.78c-0.402,0.511-0.799,0.937-1.191,1.273c-0.393,0.338-0.809,0.589-1.246,0.753
		c-0.438,0.164-0.94,0.246-1.506,0.246c-0.329,0-0.635-0.022-0.918-0.068c-0.283-0.045-0.584-0.123-0.903-0.232
		s-0.662-0.242-1.026-0.396c-0.365-0.155-0.785-0.343-1.26-0.562l-1.041,6.654l0.055,0.055c0.42-0.602,0.995-1.076,1.726-1.424
		c0.729-0.346,1.588-0.52,2.573-0.52c0.986,0,1.857,0.168,2.615,0.506s1.393,0.781,1.903,1.328c0.511,0.548,0.894,1.174,1.149,1.876
		s0.384,1.419,0.384,2.149c0,0.547-0.104,1.201-0.315,1.958c-0.209,0.757-0.565,1.487-1.067,2.19s-1.183,1.301-2.04,1.793
		c-0.857,0.493-1.936,0.74-3.23,0.74c-0.969,0-1.758-0.123-2.369-0.37s-1.1-0.538-1.465-0.876s-0.616-0.685-0.753-1.041
		c-0.137-0.355-0.206-0.652-0.206-0.89c0-0.42,0.143-0.716,0.426-0.89c0.282-0.174,0.605-0.26,0.971-0.26
		c0.385,0,0.689,0.091,0.918,0.273s0.342,0.456,0.342,0.821c0,0.128-0.004,0.274-0.014,0.438c-0.009,0.164-0.014,0.301-0.014,0.41
		c0,0.822,0.229,1.36,0.686,1.615c0.455,0.256,1.067,0.384,1.834,0.384c0.603,0,1.127-0.101,1.574-0.302
		c0.447-0.2,0.826-0.557,1.137-1.067s0.543-1.2,0.698-2.067s0.233-1.967,0.233-3.299c0-0.768-0.055-1.461-0.165-2.082
		c-0.109-0.62-0.297-1.15-0.562-1.588s-0.625-0.775-1.082-1.014c-0.455-0.236-1.04-0.355-1.752-0.355
		c-0.821,0-1.506,0.123-2.053,0.369c-0.549,0.247-0.996,0.544-1.342,0.891c-0.348,0.347-0.607,0.712-0.781,1.096
		c-0.174,0.383-0.297,0.711-0.369,0.985l-0.302-0.083L115.836,33.135z"/>
</g>
<g>
	<path fill="#3D3D3D" d="M45.46,65.473h6.294c-0.054,0.939-0.193,1.883-0.42,2.832s-0.475,1.828-0.744,2.638
		c-0.271,0.809-0.529,1.502-0.777,2.079s-0.415,0.957-0.502,1.141c-0.345,0.744-0.637,1.324-0.873,1.739
		c-0.238,0.415-0.445,0.72-0.623,0.914s-0.34,0.31-0.485,0.349c-0.146,0.037-0.294,0.057-0.445,0.057s-0.313-0.044-0.485-0.13
		c-0.172-0.087-0.259-0.222-0.259-0.405c0-0.204,0.067-0.369,0.202-0.492c0.135-0.125,0.299-0.283,0.494-0.479
		c0.463-0.453,0.852-0.859,1.164-1.221s0.583-0.707,0.81-1.036s0.426-0.655,0.599-0.979c0.172-0.323,0.351-0.675,0.533-1.052
		c0.281-0.582,0.513-1.139,0.696-1.666c0.184-0.529,0.326-1.001,0.429-1.416c0.103-0.416,0.176-0.761,0.219-1.036
		c0.043-0.274,0.07-0.456,0.081-0.542H47.37c-0.55,0-0.96,0.154-1.229,0.461c-0.27,0.308-0.437,0.721-0.501,1.238H45.46V65.473z"/>
	<path fill="#3D3D3D" d="M55.913,81.298h1.246V70.28h-1.246v-0.227h2.605v1.359h0.032c0.162-0.453,0.429-0.828,0.802-1.125
		c0.371-0.297,0.854-0.445,1.447-0.445c0.464,0,0.9,0.1,1.311,0.299c0.41,0.2,0.771,0.465,1.084,0.793
		c0.312,0.33,0.561,0.715,0.744,1.157s0.275,0.906,0.275,1.392c0,0.496-0.094,0.969-0.283,1.416
		c-0.188,0.447-0.445,0.844-0.769,1.189s-0.698,0.62-1.124,0.824c-0.427,0.205-0.877,0.309-1.352,0.309
		c-0.367,0-0.677-0.062-0.93-0.187c-0.254-0.124-0.461-0.27-0.623-0.437c-0.162-0.168-0.286-0.34-0.373-0.518
		c-0.086-0.179-0.145-0.321-0.178-0.43H58.55v5.647h1.246v0.226h-3.884V81.298z M62.596,73.29c0-0.496-0.027-0.941-0.082-1.336
		c-0.054-0.393-0.148-0.73-0.283-1.011s-0.323-0.496-0.566-0.647c-0.242-0.15-0.553-0.227-0.93-0.227
		c-0.399,0-0.729,0.07-0.987,0.211c-0.259,0.14-0.47,0.318-0.631,0.533c-0.118,0.151-0.213,0.312-0.283,0.486
		c-0.07,0.172-0.127,0.377-0.17,0.614s-0.073,0.51-0.089,0.817c-0.016,0.307-0.024,0.671-0.024,1.092c0,0.355,0.026,0.723,0.081,1.1
		c0.054,0.379,0.156,0.721,0.308,1.028s0.364,0.558,0.639,0.753c0.275,0.193,0.64,0.291,1.093,0.291c0.441,0,0.793-0.087,1.051-0.26
		c0.26-0.172,0.453-0.42,0.583-0.744c0.13-0.323,0.21-0.715,0.243-1.173C62.579,74.36,62.596,73.85,62.596,73.29z"/>
	<path fill="#3D3D3D" d="M64.651,76.315c0-0.237,0.083-0.439,0.25-0.607c0.168-0.167,0.369-0.25,0.607-0.25
		c0.236,0,0.439,0.083,0.606,0.25c0.167,0.168,0.251,0.37,0.251,0.607c0,0.236-0.084,0.439-0.251,0.606s-0.37,0.251-0.606,0.251
		c-0.238,0-0.439-0.084-0.607-0.251C64.734,76.754,64.651,76.551,64.651,76.315z"/>
	<path fill="#3D3D3D" d="M67.174,76.768h1.246V70.28h-1.246v-0.227h2.605v1.698h0.031c0.227-0.647,0.553-1.122,0.979-1.424
		c0.426-0.302,0.94-0.452,1.546-0.452c0.539,0,1.016,0.118,1.432,0.355c0.414,0.237,0.688,0.631,0.816,1.182h0.033
		c0.074-0.195,0.178-0.383,0.307-0.566c0.13-0.184,0.291-0.349,0.486-0.494c0.193-0.146,0.422-0.262,0.688-0.348
		c0.264-0.086,0.562-0.129,0.897-0.129c1.575,0,2.362,0.803,2.362,2.41v4.482h1.246v0.227h-3.883v-0.227h1.245v-5.502
		c0-0.366-0.1-0.652-0.3-0.857c-0.199-0.205-0.471-0.308-0.816-0.308c-0.27,0-0.539,0.052-0.809,0.153
		c-0.27,0.104-0.513,0.257-0.729,0.462s-0.391,0.47-0.525,0.792c-0.136,0.324-0.203,0.702-0.203,1.133v4.127h1.246v0.227h-3.883
		v-0.227h1.246v-5.275c0-0.475-0.098-0.825-0.292-1.052s-0.452-0.34-0.776-0.34c-0.227,0-0.475,0.057-0.744,0.17
		s-0.521,0.292-0.752,0.534c-0.232,0.242-0.427,0.559-0.583,0.946c-0.157,0.389-0.235,0.863-0.235,1.425v3.592h1.246v0.227h-3.883
		V76.768z"/>
	<path fill="#3D3D3D" d="M81.413,76.315c0-0.237,0.084-0.439,0.251-0.607c0.167-0.167,0.37-0.25,0.606-0.25
		c0.238,0,0.439,0.083,0.607,0.25c0.167,0.168,0.25,0.37,0.25,0.607c0,0.236-0.083,0.439-0.25,0.606
		c-0.168,0.167-0.369,0.251-0.607,0.251c-0.236,0-0.439-0.084-0.606-0.251S81.413,76.551,81.413,76.315z"/>
</g>
<line fill="none" stroke="#3D3D3D" stroke-miterlimit="10" x1="30.389" y1="70.706" x2="0" y2="70.706"/>
<line fill="none" stroke="#3D3D3D" stroke-miterlimit="10" x1="126.229" y1="70.706" x2="95.839" y2="70.706"/>
<g>
</g>
<g>
</g>
<g>
</g>
<g>
</g>
<g>
</g>
<g>
</g>
</svg>
