<?xml version="1.0" encoding="utf-8"?>
<!-- Generator: Adobe Illustrator 16.0.0, SVG Export Plug-In . SVG Version: 6.00 Build 0)  -->
<!DOCTYPE svg PUBLIC "-//W3C//DTD SVG 1.1//EN" "http://www.w3.org/Graphics/SVG/1.1/DTD/svg11.dtd">
<svg version="1.1" id="Layer_1" xmlns="http://www.w3.org/2000/svg" xmlns:xlink="http://www.w3.org/1999/xlink" x="0px" y="0px"
	 width="62.989px" height="27.124px" viewBox="0 0 62.989 27.124" enable-background="new 0 0 62.989 27.124" xml:space="preserve">
<g>
	<path fill="#C4C3A7" d="M18.394,5.76c0.08,0.187,0.161,0.366,0.245,0.539c0.083,0.174,0.182,0.327,0.295,0.461
		c0.113,0.133,0.25,0.241,0.41,0.324c0.16,0.084,0.356,0.125,0.59,0.125c0.061,0,0.14-0.003,0.24-0.01
		c0.1-0.006,0.197-0.035,0.295-0.085c0.096-0.05,0.18-0.126,0.25-0.229s0.104-0.252,0.104-0.445c0-0.061-0.009-0.121-0.024-0.186
		c-0.018-0.062-0.053-0.128-0.105-0.194c-0.053-0.067-0.132-0.132-0.234-0.195c-0.104-0.063-0.246-0.128-0.426-0.194l-0.81-0.301
		c-0.094-0.033-0.193-0.078-0.3-0.135c-0.107-0.057-0.205-0.131-0.295-0.225s-0.166-0.205-0.226-0.336
		c-0.06-0.129-0.09-0.284-0.09-0.465c0-0.193,0.04-0.376,0.12-0.549c0.08-0.174,0.191-0.326,0.335-0.455
		c0.144-0.131,0.316-0.234,0.521-0.311c0.203-0.076,0.424-0.115,0.664-0.115c0.127,0,0.245,0.014,0.355,0.04
		c0.109,0.026,0.21,0.056,0.3,0.085c0.09,0.03,0.17,0.059,0.24,0.085c0.069,0.026,0.125,0.04,0.165,0.04
		c0.073,0,0.119-0.014,0.14-0.04s0.036-0.056,0.05-0.09h0.141v1.22h-0.131c-0.066-0.16-0.135-0.312-0.205-0.459
		c-0.069-0.147-0.152-0.275-0.25-0.386c-0.096-0.11-0.215-0.196-0.354-0.26S20.09,2.92,19.883,2.92
		c-0.219,0-0.421,0.059-0.604,0.174c-0.183,0.117-0.274,0.289-0.274,0.516c0,0.047,0.006,0.1,0.02,0.16s0.043,0.121,0.09,0.186
		c0.047,0.062,0.12,0.126,0.221,0.189c0.1,0.063,0.232,0.125,0.399,0.186l0.851,0.289c0.359,0.127,0.633,0.294,0.819,0.5
		c0.187,0.207,0.28,0.471,0.28,0.791c0,0.219-0.049,0.418-0.145,0.594c-0.098,0.178-0.225,0.327-0.381,0.451
		c-0.156,0.123-0.338,0.218-0.545,0.284c-0.207,0.067-0.42,0.101-0.64,0.101c-0.12,0-0.25-0.014-0.39-0.041
		c-0.141-0.025-0.275-0.058-0.405-0.094c-0.13-0.037-0.249-0.068-0.355-0.096c-0.106-0.026-0.19-0.04-0.25-0.04
		c-0.054,0-0.091,0.011-0.114,0.03s-0.045,0.057-0.065,0.109h-0.14V5.76H18.394z"/>
	<path fill="#C4C3A7" d="M26.028,2.965c0.296,0.123,0.555,0.288,0.774,0.494c0.221,0.207,0.393,0.449,0.516,0.726
		s0.186,0.568,0.186,0.875c0,0.313-0.062,0.608-0.186,0.885s-0.295,0.519-0.516,0.726c-0.22,0.206-0.479,0.369-0.774,0.49
		c-0.297,0.119-0.618,0.18-0.966,0.18c-0.346,0-0.668-0.061-0.965-0.18c-0.297-0.121-0.555-0.284-0.774-0.49
		c-0.22-0.207-0.392-0.449-0.515-0.726c-0.124-0.276-0.186-0.571-0.186-0.885c0-0.307,0.062-0.599,0.186-0.875
		c0.123-0.276,0.295-0.519,0.515-0.726c0.22-0.206,0.478-0.371,0.774-0.494s0.619-0.186,0.965-0.186
		C25.41,2.779,25.731,2.842,26.028,2.965z M25.674,7.024c0.146-0.123,0.254-0.285,0.324-0.485c0.07-0.199,0.113-0.43,0.131-0.689
		c0.016-0.26,0.024-0.523,0.024-0.79s-0.009-0.528-0.024-0.785c-0.018-0.257-0.061-0.485-0.131-0.685
		c-0.07-0.2-0.178-0.361-0.324-0.485C25.526,2.98,25.323,2.92,25.062,2.92c-0.26,0-0.463,0.061-0.609,0.185S24.198,3.39,24.129,3.59
		c-0.07,0.199-0.114,0.428-0.131,0.685s-0.025,0.519-0.025,0.785s0.009,0.53,0.025,0.79s0.061,0.49,0.131,0.689
		c0.069,0.2,0.178,0.362,0.324,0.485c0.146,0.124,0.35,0.185,0.609,0.185C25.323,7.209,25.526,7.148,25.674,7.024z"/>
	<path fill="#C4C3A7" d="M28.363,0.14V0h1.88v3.619h0.021c0.1-0.279,0.242-0.49,0.43-0.63c0.187-0.14,0.43-0.21,0.73-0.21
		c0.386,0,0.716,0.075,0.989,0.225c0.273,0.15,0.499,0.339,0.675,0.565c0.177,0.228,0.307,0.474,0.391,0.74
		c0.083,0.267,0.125,0.517,0.125,0.75c0,0.3-0.054,0.587-0.16,0.86c-0.107,0.273-0.256,0.515-0.445,0.725s-0.418,0.379-0.686,0.505
		c-0.266,0.126-0.562,0.19-0.889,0.19c-0.301,0-0.545-0.075-0.736-0.226c-0.189-0.149-0.338-0.364-0.444-0.646h-0.021v0.74h-1.859
		v-0.14h0.66V0.14H28.363z M30.268,5.754c0.018,0.25,0.065,0.484,0.146,0.701s0.198,0.396,0.354,0.539
		c0.157,0.144,0.375,0.215,0.656,0.215c0.186,0,0.334-0.049,0.444-0.149s0.193-0.243,0.25-0.431c0.057-0.186,0.093-0.411,0.11-0.674
		c0.016-0.264,0.025-0.559,0.025-0.886c0-0.399-0.016-0.738-0.046-1.015c-0.03-0.277-0.081-0.498-0.155-0.665
		c-0.072-0.167-0.166-0.286-0.279-0.36c-0.113-0.073-0.257-0.109-0.43-0.109c-0.247,0-0.443,0.069-0.59,0.209
		c-0.147,0.141-0.258,0.317-0.33,0.531c-0.074,0.213-0.123,0.445-0.146,0.699c-0.023,0.254-0.035,0.49-0.035,0.71
		C30.243,5.276,30.252,5.504,30.268,5.754z"/>
	<path fill="#C4C3A7" d="M36.453,2.92v0.84h0.02c0.12-0.254,0.281-0.472,0.485-0.655c0.203-0.183,0.472-0.274,0.805-0.274
		c0.28,0,0.507,0.074,0.681,0.225c0.173,0.15,0.26,0.358,0.26,0.625c0,0.199-0.049,0.356-0.145,0.47
		c-0.098,0.113-0.252,0.17-0.466,0.17c-0.153,0-0.294-0.031-0.42-0.095s-0.19-0.182-0.19-0.355c0-0.02,0.004-0.055,0.01-0.104
		c0.008-0.05,0.016-0.104,0.025-0.16s0.019-0.108,0.025-0.155c0.006-0.047,0.01-0.073,0.01-0.08
		c-0.006-0.053-0.017-0.095-0.029-0.125c-0.014-0.029-0.035-0.057-0.065-0.08s-0.075-0.035-0.136-0.035
		c-0.066,0-0.149,0.032-0.25,0.096c-0.1,0.063-0.193,0.154-0.279,0.275c-0.087,0.119-0.162,0.265-0.225,0.435
		c-0.064,0.17-0.096,0.362-0.096,0.575v2.56h0.79v0.14h-2.659v-0.14h0.649V3.06h-0.649V2.92H36.453z"/>
	<path fill="#C4C3A7" d="M40.543,5.149c0,0.24,0.01,0.481,0.029,0.726c0.021,0.242,0.074,0.463,0.16,0.66
		c0.087,0.195,0.214,0.357,0.381,0.484c0.166,0.127,0.399,0.189,0.699,0.189c0.267,0,0.492-0.049,0.676-0.149
		c0.183-0.101,0.333-0.216,0.449-0.345c0.117-0.131,0.203-0.259,0.26-0.385c0.057-0.127,0.089-0.221,0.096-0.281l0.14,0.051
		c-0.033,0.127-0.09,0.262-0.17,0.404c-0.08,0.145-0.19,0.277-0.33,0.4s-0.313,0.227-0.521,0.311
		c-0.206,0.083-0.456,0.125-0.75,0.125c-0.346,0-0.67-0.053-0.969-0.155c-0.301-0.104-0.562-0.253-0.785-0.45
		c-0.224-0.196-0.398-0.437-0.525-0.72c-0.127-0.284-0.189-0.604-0.189-0.966c0-0.286,0.06-0.566,0.18-0.84
		c0.119-0.273,0.285-0.515,0.494-0.725c0.211-0.21,0.457-0.38,0.74-0.51c0.283-0.131,0.589-0.195,0.916-0.195
		c0.232,0,0.466,0.037,0.699,0.11s0.443,0.187,0.63,0.34s0.341,0.352,0.46,0.595c0.12,0.244,0.18,0.535,0.18,0.875h-2.949V5.149z
		 M42.143,3.89c0-0.073-0.004-0.163-0.01-0.271c-0.007-0.106-0.03-0.213-0.07-0.32c-0.039-0.105-0.104-0.195-0.195-0.27
		c-0.09-0.073-0.215-0.109-0.375-0.109c-0.227,0-0.401,0.053-0.524,0.16c-0.124,0.105-0.215,0.241-0.274,0.404
		c-0.061,0.164-0.1,0.34-0.115,0.53c-0.018,0.19-0.029,0.372-0.035,0.545h1.6V3.89z"/>
	<path fill="#C4C3A7" d="M12.653,12.059v3.618h-0.274c-0.071-0.239-0.191-0.546-0.36-0.921c-0.169-0.373-0.405-0.736-0.709-1.089
		s-0.694-0.659-1.175-0.921c-0.479-0.26-1.064-0.391-1.756-0.391H5.015v6.537h1.185c0.522,0,0.963-0.073,1.322-0.222
		c0.36-0.147,0.66-0.359,0.9-0.635c0.239-0.274,0.437-0.606,0.592-0.994s0.282-0.821,0.381-1.302H9.67v6.58H9.395
		c-0.099-0.408-0.215-0.803-0.35-1.184c-0.133-0.381-0.313-0.717-0.539-1.006s-0.504-0.518-0.836-0.688
		c-0.331-0.17-0.744-0.254-1.237-0.254H5.015v7.639h3.47c0.649,0,1.234-0.109,1.757-0.328c0.521-0.219,0.983-0.525,1.386-0.92
		c0.402-0.396,0.736-0.857,1.006-1.387c0.268-0.529,0.472-1.097,0.613-1.703h0.275v4.634H0v-0.296h1.947V12.355H0v-0.297H12.653z"/>
	<path fill="#C4C3A7" d="M22.873,12.059v0.297h-1.947v14.473h3.491c0.466,0,0.935-0.078,1.407-0.232
		c0.473-0.156,0.917-0.413,1.333-0.773c0.416-0.359,0.79-0.824,1.122-1.396c0.33-0.57,0.588-1.266,0.771-2.084h0.275v4.782H15.911
		v-0.296h1.946V12.355h-1.946v-0.297H22.873z"/>
	<path fill="#C4C3A7" d="M38.594,12.059v0.297h-1.947v14.473h3.491c0.466,0,0.935-0.078,1.407-0.232
		c0.473-0.156,0.917-0.413,1.333-0.773c0.416-0.359,0.79-0.824,1.122-1.396c0.33-0.57,0.588-1.266,0.771-2.084h0.275v4.782H31.632
		v-0.296h1.946V12.355h-1.946v-0.297H38.594z"/>
	<path fill="#C4C3A7" d="M47.628,26.828l6.306-15.361h0.57l6.666,15.361h1.819v0.296H55.88v-0.296h1.968l-2.455-5.671h-5.078
		l-2.348,5.671h1.883v0.296h-3.999v-0.296H47.628z M50.421,20.861h4.866l-2.496-5.777L50.421,20.861z"/>
</g>
<g>
</g>
<g>
</g>
<g>
</g>
<g>
</g>
<g>
</g>
<g>
</g>
</svg>
