<?xml version="1.0" encoding="utf-8"?>
<!-- Generator: Adobe Illustrator 16.0.0, SVG Export Plug-In . SVG Version: 6.00 Build 0)  -->
<!DOCTYPE svg PUBLIC "-//W3C//DTD SVG 1.1//EN" "http://www.w3.org/Graphics/SVG/1.1/DTD/svg11.dtd">
<svg version="1.1" id="Layer_1" xmlns="http://www.w3.org/2000/svg" xmlns:xlink="http://www.w3.org/1999/xlink" x="0px" y="0px"
	 width="125.179px" height="88.146px" viewBox="0 0 125.179 88.146" enable-background="new 0 0 125.179 88.146"
	 xml:space="preserve">
<g>
	<path fill="#3D3D3D" d="M0,24.062h3.73V1.076H0V0.605h19.222v5.813h-0.37c-0.292-0.874-0.605-1.642-0.941-2.302
		s-0.739-1.221-1.21-1.681c-0.47-0.459-1.031-0.801-1.68-1.024c-0.65-0.225-1.434-0.336-2.353-0.336H7.091v10.383h2.184
		c0.739,0,1.366-0.066,1.882-0.201c0.515-0.135,0.958-0.387,1.328-0.756s0.683-0.873,0.941-1.512
		c0.257-0.639,0.509-1.463,0.756-2.471h0.37v10.451h-0.37c-0.157-0.649-0.319-1.277-0.487-1.882
		c-0.168-0.604-0.403-1.143-0.706-1.612c-0.302-0.471-0.706-0.846-1.209-1.127c-0.504-0.279-1.16-0.42-1.966-0.42H7.091v12.132
		h6.351c1.232,0,2.257-0.263,3.075-0.79c0.817-0.525,1.484-1.153,2-1.881c0.515-0.729,0.896-1.484,1.143-2.27
		c0.246-0.783,0.403-1.433,0.47-1.948h0.37v7.359H0V24.062z"/>
	<path fill="#3D3D3D" d="M21.776,24.062h3.73V1.076h-3.73V0.605h6.385c0.269,0,0.538-0.006,0.807-0.018
		c0.269-0.011,0.538-0.027,0.807-0.05c0.269,0,0.538-0.005,0.807-0.017c0.269-0.012,0.538-0.018,0.806-0.018
		c1.322,0,2.487,0.073,3.495,0.219c1.008,0.146,1.95,0.566,2.823,1.26c0.784,0.605,1.338,1.289,1.664,2.051
		c0.324,0.762,0.486,1.479,0.486,2.15c0,0.336-0.062,0.768-0.184,1.294c-0.124,0.526-0.393,1.064-0.807,1.612
		c-0.416,0.55-1.015,1.055-1.799,1.513c-0.784,0.46-1.826,0.769-3.125,0.925v0.066c0.358,0.045,0.845,0.129,1.462,0.252
		c0.616,0.124,1.243,0.331,1.882,0.622c0.639,0.292,1.227,0.678,1.764,1.159c0.538,0.482,0.919,1.104,1.143,1.865
		c0.135,0.449,0.23,0.958,0.286,1.529s0.101,1.159,0.135,1.764c0.033,0.605,0.067,1.188,0.101,1.748
		c0.033,0.561,0.096,1.031,0.186,1.412c0.134,0.582,0.346,1.108,0.638,1.578c0.291,0.471,0.762,0.707,1.411,0.707
		c0.291,0,0.594-0.057,0.908-0.169c0.312-0.112,0.593-0.29,0.84-0.538l0.303,0.37c-0.113,0.09-0.241,0.185-0.387,0.286
		c-0.146,0.101-0.331,0.196-0.555,0.285c-0.225,0.09-0.499,0.162-0.823,0.219c-0.325,0.056-0.723,0.084-1.192,0.084
		c-0.896,0-1.643-0.112-2.235-0.336c-0.594-0.225-1.07-0.555-1.429-0.992c-0.358-0.436-0.621-0.975-0.789-1.612
		c-0.168-0.639-0.286-1.384-0.354-2.235L37,16.534c-0.09-1.12-0.314-1.993-0.672-2.621c-0.359-0.627-0.779-1.087-1.26-1.378
		c-0.482-0.291-0.98-0.465-1.496-0.521c-0.516-0.055-0.963-0.084-1.344-0.084h-3.36v12.132h3.73v0.471H21.776V24.062z
		 M28.867,11.459h3.091c0.627,0,1.198-0.078,1.714-0.234c0.515-0.156,0.958-0.432,1.328-0.823s0.655-0.925,0.857-1.597
		s0.302-1.523,0.302-2.554c0-1.165-0.151-2.101-0.454-2.806c-0.302-0.706-0.694-1.238-1.176-1.597s-1.02-0.593-1.613-0.706
		c-0.594-0.111-1.182-0.168-1.764-0.168c-0.403,0-0.812,0.006-1.227,0.018c-0.415,0.011-0.768,0.039-1.059,0.084V11.459z"/>
	<path fill="#3D3D3D" d="M44.022,24.062h3.73V1.076h-3.73V0.605h7.562l6.217,18.08h0.067l6.217-18.08h7.427v0.471h-3.73v22.985h3.73
		v0.471h-10.82v-0.471h3.73V1.277h-0.068l-8.031,23.289L48.324,1.513h-0.067v22.549h3.73v0.471h-7.965V24.062z"/>
	<path fill="#3D3D3D" d="M71.613,24.062h3.73V1.076h-3.73V0.605h10.82v0.471h-3.73v22.985h3.73v0.471h-10.82V24.062z"/>
	<path fill="#3D3D3D" d="M87.742,24.062h3.73V1.076h-1.949c-0.448,0-0.952,0.039-1.512,0.117c-0.561,0.078-1.126,0.297-1.697,0.655
		s-1.121,0.924-1.646,1.696c-0.527,0.773-0.98,1.844-1.361,3.21h-0.369V0.605h20.432v6.149H103c-0.381-1.366-0.836-2.437-1.361-3.21
		c-0.527-0.772-1.075-1.338-1.646-1.696c-0.572-0.358-1.138-0.577-1.697-0.655c-0.561-0.078-1.064-0.117-1.512-0.117h-1.949v22.985
		h3.729v0.471H87.742V24.062z"/>
	<path fill="#3D3D3D" d="M100.21,24.062h2.958L112.24,0h0.807l9.141,24.062h2.991v0.471h-10.351v-0.471h3.73l-3.528-9.343h-7.797
		l-3.528,9.343h3.73v0.471h-7.226V24.062z M111.132,4.47l-3.696,9.779h7.393L111.132,4.47z"/>
	<path fill="#3D3D3D" d="M0.472,53.916h3.066l9.41-24.953h0.836l9.479,24.953h3.102v0.488H15.632v-0.488H19.5l-3.659-9.688H7.756
		l-3.66,9.688h3.869v0.488H0.472V53.916z M11.798,33.598L7.965,43.74h7.667L11.798,33.598z"/>
	<path fill="#3D3D3D" d="M27.271,53.916h2.684V39.941h-2.684v-0.488h5.611v3.52h0.07c0.092-0.348,0.244-0.743,0.453-1.185
		c0.209-0.44,0.499-0.865,0.871-1.272c0.372-0.406,0.819-0.749,1.342-1.027c0.523-0.279,1.155-0.418,1.899-0.418
		c0.534,0,0.998,0.086,1.395,0.261c0.395,0.175,0.719,0.396,0.975,0.662c0.256,0.268,0.441,0.575,0.559,0.924
		c0.115,0.349,0.174,0.696,0.174,1.046c0,0.766-0.174,1.277-0.523,1.533c-0.348,0.256-0.754,0.383-1.219,0.383
		c-1.023,0-1.533-0.324-1.533-0.976c0-0.209,0.022-0.378,0.069-0.505c0.046-0.128,0.099-0.256,0.157-0.384
		c0.057-0.128,0.109-0.272,0.156-0.436s0.07-0.396,0.07-0.697c0-0.743-0.407-1.115-1.221-1.115c-0.372,0-0.767,0.14-1.185,0.419
		c-0.418,0.278-0.808,0.686-1.167,1.219c-0.36,0.535-0.662,1.18-0.906,1.935c-0.244,0.755-0.366,1.62-0.366,2.597v7.98h3.032v0.488
		h-8.712V53.916z"/>
	<path fill="#3D3D3D" d="M57.173,54.021c-0.302,0.232-0.662,0.436-1.08,0.61c-0.419,0.174-0.93,0.261-1.534,0.261
		c-1.115,0-1.922-0.238-2.422-0.714c-0.5-0.477-0.842-1.145-1.027-2.004h-0.07c-0.093,0.209-0.221,0.471-0.383,0.783
		c-0.163,0.314-0.413,0.616-0.75,0.906c-0.336,0.291-0.783,0.535-1.342,0.732c-0.557,0.197-1.266,0.296-2.125,0.296
		c-0.977,0-1.755-0.11-2.336-0.331c-0.58-0.221-1.033-0.493-1.358-0.818c-0.325-0.326-0.54-0.691-0.646-1.098
		c-0.104-0.406-0.156-0.785-0.156-1.133c0-0.813,0.162-1.465,0.488-1.952c0.324-0.487,0.749-0.876,1.271-1.167
		c0.523-0.291,1.104-0.529,1.742-0.715s1.284-0.383,1.935-0.592c0.767-0.256,1.399-0.477,1.899-0.662
		c0.5-0.187,0.889-0.413,1.168-0.68c0.278-0.268,0.471-0.604,0.574-1.012c0.105-0.406,0.157-0.958,0.157-1.654
		c0-0.559-0.034-1.058-0.104-1.499s-0.197-0.819-0.383-1.133c-0.187-0.313-0.453-0.552-0.803-0.714
		c-0.348-0.162-0.812-0.244-1.394-0.244c-0.767,0-1.399,0.134-1.899,0.4c-0.5,0.268-0.749,0.703-0.749,1.307
		c0,0.396,0.034,0.785,0.104,1.168s0.104,0.668,0.104,0.854c0,0.326-0.116,0.599-0.349,0.819s-0.569,0.331-1.01,0.331
		c-0.768,0-1.244-0.14-1.43-0.418c-0.186-0.279-0.279-0.639-0.279-1.08c0-0.512,0.117-1,0.35-1.465
		c0.231-0.464,0.574-0.877,1.027-1.236c0.453-0.36,1.022-0.645,1.708-0.854C46.758,39.104,47.543,39,48.426,39
		c1.068,0,1.963,0.134,2.684,0.4c0.72,0.268,1.301,0.628,1.742,1.08c0.441,0.453,0.755,0.965,0.941,1.534
		c0.186,0.569,0.278,1.167,0.278,1.795v8.677c0,0.675,0.104,1.128,0.313,1.359c0.209,0.232,0.512,0.35,0.906,0.35
		c0.256,0,0.523-0.047,0.802-0.141c0.278-0.092,0.546-0.231,0.802-0.418L57.173,54.021z M51.074,45.865h-0.07
		c-0.047,0.303-0.43,0.604-1.149,0.906l-2.614,1.045c-0.743,0.303-1.312,0.727-1.707,1.273c-0.396,0.545-0.593,1.225-0.593,2.038
		c0,0.349,0.035,0.709,0.104,1.08c0.07,0.372,0.197,0.703,0.384,0.993c0.186,0.291,0.446,0.529,0.784,0.715
		c0.336,0.186,0.771,0.279,1.307,0.279c0.767,0,1.389-0.163,1.864-0.488s0.837-0.732,1.081-1.221
		c0.244-0.487,0.406-1.016,0.487-1.585s0.122-1.086,0.122-1.551V45.865z"/>
	<path fill="#3D3D3D" d="M56.302,39.453h8.435v0.488h-2.858l4.495,10.942l4.67-10.942h-2.857v-0.488h5.297v0.488h-1.881
		l-6.587,15.612l-6.343-15.612h-2.37V39.453z"/>
	<path fill="#3D3D3D" d="M90.002,54.021c-0.303,0.232-0.662,0.436-1.08,0.61c-0.419,0.174-0.93,0.261-1.534,0.261
		c-1.115,0-1.923-0.238-2.422-0.714c-0.5-0.477-0.843-1.145-1.028-2.004h-0.069c-0.093,0.209-0.222,0.471-0.384,0.783
		c-0.162,0.314-0.412,0.616-0.749,0.906c-0.337,0.291-0.784,0.535-1.342,0.732s-1.267,0.296-2.126,0.296
		c-0.976,0-1.754-0.11-2.335-0.331s-1.034-0.493-1.358-0.818c-0.326-0.326-0.541-0.691-0.646-1.098s-0.157-0.785-0.157-1.133
		c0-0.813,0.163-1.465,0.488-1.952s0.75-0.876,1.272-1.167s1.103-0.529,1.742-0.715c0.639-0.186,1.284-0.383,1.935-0.592
		c0.767-0.256,1.399-0.477,1.898-0.662c0.5-0.187,0.889-0.413,1.168-0.68c0.279-0.268,0.471-0.604,0.575-1.012
		c0.104-0.406,0.157-0.958,0.157-1.654c0-0.559-0.035-1.058-0.105-1.499c-0.069-0.441-0.197-0.819-0.383-1.133
		s-0.453-0.552-0.802-0.714s-0.813-0.244-1.394-0.244c-0.768,0-1.4,0.134-1.899,0.4c-0.5,0.268-0.749,0.703-0.749,1.307
		c0,0.396,0.034,0.785,0.104,1.168c0.07,0.383,0.105,0.668,0.105,0.854c0,0.326-0.117,0.599-0.349,0.819
		c-0.233,0.221-0.569,0.331-1.011,0.331c-0.767,0-1.243-0.14-1.43-0.418c-0.186-0.279-0.278-0.639-0.278-1.08
		c0-0.512,0.116-1,0.349-1.465c0.232-0.464,0.575-0.877,1.028-1.236c0.453-0.36,1.022-0.645,1.708-0.854
		C79.587,39.104,80.371,39,81.254,39c1.068,0,1.963,0.134,2.684,0.4c0.721,0.268,1.301,0.628,1.742,1.08
		c0.441,0.453,0.756,0.965,0.941,1.534S86.9,43.182,86.9,43.81v8.677c0,0.675,0.104,1.128,0.312,1.359
		c0.21,0.232,0.512,0.35,0.906,0.35c0.256,0,0.523-0.047,0.803-0.141c0.278-0.092,0.545-0.231,0.801-0.418L90.002,54.021z
		 M83.902,45.865h-0.069c-0.047,0.303-0.431,0.604-1.149,0.906l-2.614,1.045c-0.743,0.303-1.313,0.727-1.708,1.273
		c-0.395,0.545-0.592,1.225-0.592,2.038c0,0.349,0.035,0.709,0.104,1.08c0.07,0.372,0.197,0.703,0.385,0.993
		c0.186,0.291,0.446,0.529,0.783,0.715s0.772,0.279,1.307,0.279c0.768,0,1.389-0.163,1.865-0.488
		c0.476-0.325,0.836-0.732,1.08-1.221c0.244-0.487,0.406-1.016,0.488-1.585c0.08-0.569,0.121-1.086,0.121-1.551V45.865z"/>
	<path fill="#3D3D3D" d="M105.648,50.57c-0.068,0.256-0.203,0.622-0.4,1.098c-0.197,0.477-0.512,0.953-0.94,1.43
		c-0.431,0.476-1.011,0.895-1.743,1.254c-0.731,0.359-1.678,0.54-2.84,0.54c-0.883,0-1.801-0.14-2.754-0.418
		c-0.952-0.278-1.823-0.726-2.613-1.342c-0.79-0.615-1.435-1.423-1.934-2.423c-0.5-0.998-0.75-2.229-0.75-3.693
		c0-1.139,0.215-2.195,0.645-3.172c0.43-0.975,1.012-1.823,1.743-2.543c0.731-0.721,1.591-1.284,2.579-1.691
		C97.627,39.203,98.68,39,99.795,39c0.627,0,1.271,0.076,1.934,0.227c0.662,0.151,1.266,0.383,1.812,0.697
		c0.545,0.313,0.998,0.721,1.359,1.22c0.359,0.499,0.539,1.109,0.539,1.829c0,0.488-0.156,0.889-0.47,1.203
		c-0.313,0.312-0.761,0.471-1.342,0.471c-0.396,0-0.772-0.088-1.133-0.262c-0.36-0.175-0.54-0.471-0.54-0.889
		c0-0.326,0.081-0.721,0.244-1.186c0.162-0.465,0.244-0.848,0.244-1.15c0-0.533-0.268-0.945-0.803-1.236
		c-0.534-0.291-1.149-0.436-1.846-0.436c-0.512,0-1.041,0.064-1.586,0.191c-0.547,0.128-1.046,0.447-1.499,0.959
		c-0.453,0.511-0.825,1.277-1.115,2.299c-0.29,1.023-0.436,2.418-0.436,4.183c0,0.999,0.063,1.94,0.192,2.823
		c0.127,0.883,0.359,1.654,0.696,2.317c0.337,0.662,0.802,1.185,1.394,1.567c0.593,0.384,1.365,0.576,2.318,0.576
		c1.021,0,1.864-0.151,2.526-0.453c0.662-0.303,1.185-0.668,1.568-1.098s0.667-0.865,0.854-1.308c0.187-0.44,0.325-0.802,0.419-1.08
		L105.648,50.57z"/>
	<path fill="#3D3D3D" d="M123.527,54.021c-0.303,0.232-0.662,0.436-1.08,0.61c-0.419,0.174-0.93,0.261-1.534,0.261
		c-1.115,0-1.923-0.238-2.422-0.714c-0.5-0.477-0.843-1.145-1.028-2.004h-0.069c-0.093,0.209-0.222,0.471-0.384,0.783
		c-0.162,0.314-0.412,0.616-0.749,0.906c-0.337,0.291-0.784,0.535-1.342,0.732s-1.267,0.296-2.126,0.296
		c-0.976,0-1.754-0.11-2.335-0.331s-1.034-0.493-1.358-0.818c-0.326-0.326-0.541-0.691-0.646-1.098s-0.157-0.785-0.157-1.133
		c0-0.813,0.163-1.465,0.488-1.952s0.75-0.876,1.272-1.167s1.103-0.529,1.742-0.715c0.639-0.186,1.284-0.383,1.935-0.592
		c0.767-0.256,1.399-0.477,1.898-0.662c0.5-0.187,0.889-0.413,1.168-0.68c0.279-0.268,0.471-0.604,0.575-1.012
		c0.104-0.406,0.157-0.958,0.157-1.654c0-0.559-0.035-1.058-0.105-1.499c-0.069-0.441-0.197-0.819-0.383-1.133
		s-0.453-0.552-0.802-0.714s-0.813-0.244-1.394-0.244c-0.768,0-1.4,0.134-1.899,0.4c-0.5,0.268-0.749,0.703-0.749,1.307
		c0,0.396,0.034,0.785,0.104,1.168c0.07,0.383,0.105,0.668,0.105,0.854c0,0.326-0.117,0.599-0.349,0.819
		c-0.233,0.221-0.569,0.331-1.011,0.331c-0.767,0-1.243-0.14-1.43-0.418c-0.186-0.279-0.278-0.639-0.278-1.08
		c0-0.512,0.116-1,0.349-1.465c0.232-0.464,0.575-0.877,1.028-1.236c0.453-0.36,1.022-0.645,1.708-0.854
		c0.685-0.209,1.469-0.313,2.352-0.313c1.068,0,1.963,0.134,2.684,0.4c0.721,0.268,1.301,0.628,1.742,1.08
		c0.441,0.453,0.756,0.965,0.941,1.534s0.279,1.167,0.279,1.795v8.677c0,0.675,0.104,1.128,0.312,1.359
		c0.21,0.232,0.512,0.35,0.906,0.35c0.256,0,0.523-0.047,0.803-0.141c0.278-0.092,0.545-0.231,0.801-0.418L123.527,54.021z
		 M117.428,45.865h-0.069c-0.047,0.303-0.431,0.604-1.149,0.906l-2.614,1.045c-0.743,0.303-1.313,0.727-1.708,1.273
		c-0.395,0.545-0.592,1.225-0.592,2.038c0,0.349,0.035,0.709,0.104,1.08c0.07,0.372,0.197,0.703,0.385,0.993
		c0.186,0.291,0.446,0.529,0.783,0.715s0.772,0.279,1.307,0.279c0.768,0,1.389-0.163,1.865-0.488
		c0.476-0.325,0.836-0.732,1.08-1.221c0.244-0.487,0.406-1.016,0.488-1.585c0.08-0.569,0.121-1.086,0.121-1.551V45.865z"/>
	<path fill="#3D3D3D" d="M40.4,70.462h0.968v-5.96H40.4v-0.121h1.961l1.611,4.688h0.018l1.611-4.688h1.926v0.121h-0.967v5.96h0.967
		v0.122h-2.805v-0.122h0.967v-5.907h-0.018l-2.082,6.038l-2.074-5.978h-0.018v5.847h0.968v0.122H40.4V70.462z"/>
	<path fill="#3D3D3D" d="M48.922,70.462h0.767l2.353-6.238h0.209l2.37,6.238h0.775v0.122h-2.684v-0.122h0.968l-0.916-2.422h-2.021
		l-0.914,2.422h0.967v0.122h-1.873V70.462z M51.754,65.383l-0.959,2.535h1.917L51.754,65.383z"/>
	<path fill="#3D3D3D" d="M56.824,70.462h0.967v-5.96h-0.967v-0.121h1.621c0.081,0,0.162-0.002,0.244-0.004
		c0.08-0.004,0.162-0.008,0.243-0.014c0.081,0,0.163-0.002,0.244-0.004c0.081-0.004,0.163-0.005,0.244-0.005
		c0.174,0,0.329,0.003,0.466,0.009s0.264,0.016,0.383,0.03s0.232,0.035,0.34,0.062c0.107,0.025,0.223,0.059,0.345,0.1
		c0.354,0.117,0.661,0.271,0.919,0.467c0.259,0.194,0.471,0.42,0.637,0.675c0.165,0.256,0.287,0.534,0.365,0.837
		c0.078,0.302,0.117,0.618,0.117,0.949c0,0.383-0.046,0.728-0.139,1.032c-0.094,0.306-0.221,0.575-0.383,0.811
		c-0.163,0.235-0.354,0.438-0.571,0.61c-0.218,0.171-0.452,0.309-0.701,0.413c-0.14,0.063-0.272,0.113-0.396,0.148
		c-0.125,0.034-0.253,0.061-0.384,0.078s-0.273,0.029-0.432,0.035c-0.156,0.005-0.336,0.009-0.539,0.009
		c-0.088,0-0.181-0.002-0.279-0.005s-0.197-0.007-0.297-0.013c-0.098-0.006-0.195-0.01-0.291-0.014
		c-0.096-0.002-0.188-0.004-0.274-0.004h-1.481V70.462z M58.662,70.462c0.1,0.012,0.214,0.021,0.345,0.026s0.274,0.009,0.431,0.009
		c0.198,0,0.395-0.011,0.589-0.03c0.194-0.021,0.38-0.064,0.558-0.131c0.177-0.066,0.342-0.162,0.496-0.287s0.292-0.289,0.414-0.493
		c0.186-0.313,0.314-0.634,0.388-0.962s0.108-0.688,0.108-1.076c0-0.459-0.043-0.876-0.13-1.25
		c-0.087-0.375-0.231-0.695-0.432-0.959s-0.466-0.469-0.797-0.614s-0.741-0.218-1.229-0.218c-0.146,0-0.277,0.003-0.396,0.009
		s-0.233,0.012-0.345,0.017V70.462z"/>
	<path fill="#3D3D3D" d="M65.102,70.462h0.967v-5.96h-0.967v-0.121h1.655c0.069,0,0.14-0.002,0.209-0.004
		c0.069-0.004,0.14-0.008,0.209-0.014c0.069,0,0.14-0.002,0.209-0.004c0.069-0.004,0.14-0.005,0.209-0.005
		c0.343,0,0.646,0.019,0.906,0.057s0.505,0.147,0.731,0.327c0.203,0.156,0.348,0.334,0.432,0.531s0.127,0.383,0.127,0.558
		c0,0.087-0.017,0.198-0.049,0.335c-0.031,0.137-0.102,0.276-0.209,0.418c-0.107,0.143-0.263,0.273-0.466,0.393
		c-0.204,0.119-0.474,0.199-0.81,0.24v0.017c0.092,0.012,0.219,0.034,0.379,0.065c0.159,0.032,0.322,0.086,0.487,0.161
		s0.317,0.176,0.458,0.301c0.139,0.125,0.237,0.286,0.295,0.483c0.035,0.116,0.061,0.248,0.074,0.396
		c0.016,0.148,0.027,0.301,0.035,0.457c0.009,0.157,0.018,0.309,0.026,0.453c0.009,0.146,0.024,0.268,0.048,0.366
		c0.035,0.151,0.09,0.288,0.166,0.409c0.075,0.123,0.197,0.184,0.365,0.184c0.076,0,0.154-0.015,0.235-0.044
		c0.081-0.028,0.153-0.075,0.218-0.14l0.078,0.096c-0.029,0.023-0.062,0.049-0.1,0.074c-0.038,0.026-0.086,0.051-0.145,0.074
		c-0.058,0.023-0.129,0.042-0.213,0.057s-0.188,0.021-0.309,0.021c-0.232,0-0.426-0.029-0.58-0.087s-0.277-0.144-0.37-0.257
		s-0.161-0.252-0.204-0.418c-0.045-0.166-0.074-0.359-0.092-0.58l-0.062-0.793c-0.022-0.289-0.081-0.516-0.175-0.679
		c-0.092-0.163-0.201-0.282-0.326-0.357s-0.254-0.12-0.388-0.136c-0.134-0.014-0.249-0.021-0.349-0.021h-0.871v3.146h0.967v0.122
		h-2.805V70.462z M66.939,67.195h0.802c0.163,0,0.311-0.021,0.444-0.062c0.133-0.04,0.248-0.112,0.344-0.214s0.17-0.239,0.223-0.414
		c0.053-0.174,0.078-0.395,0.078-0.662c0-0.301-0.039-0.544-0.117-0.727c-0.078-0.184-0.181-0.321-0.305-0.414
		c-0.125-0.093-0.266-0.154-0.419-0.184c-0.153-0.028-0.306-0.043-0.457-0.043c-0.104,0-0.211,0.002-0.318,0.004
		c-0.107,0.004-0.198,0.011-0.274,0.021V67.195z"/>
	<path fill="#3D3D3D" d="M72.594,70.462h0.967v-5.96h-0.967v-0.121h2.805v0.121h-0.967v5.96h0.967v0.122h-2.805V70.462z"/>
	<path fill="#3D3D3D" d="M77.124,70.462h0.968v-5.96h-0.968v-0.121h1.62c0.082,0,0.163-0.002,0.244-0.004
		c0.082-0.004,0.163-0.008,0.244-0.014c0.082,0,0.162-0.002,0.244-0.004c0.081-0.004,0.162-0.005,0.244-0.005
		c0.174,0,0.33,0.003,0.466,0.009c0.137,0.006,0.265,0.016,0.384,0.03s0.232,0.035,0.34,0.062c0.107,0.025,0.222,0.059,0.344,0.1
		c0.354,0.117,0.66,0.271,0.919,0.467c0.259,0.194,0.471,0.42,0.636,0.675c0.166,0.256,0.288,0.534,0.366,0.837
		c0.079,0.302,0.118,0.618,0.118,0.949c0,0.383-0.047,0.728-0.14,1.032c-0.093,0.306-0.221,0.575-0.384,0.811
		c-0.162,0.235-0.353,0.438-0.57,0.61c-0.218,0.171-0.451,0.309-0.701,0.413c-0.14,0.063-0.271,0.113-0.396,0.148
		c-0.125,0.034-0.253,0.061-0.383,0.078c-0.131,0.018-0.275,0.029-0.432,0.035c-0.157,0.005-0.338,0.009-0.541,0.009
		c-0.086,0-0.18-0.002-0.278-0.005s-0.197-0.007-0.296-0.013c-0.1-0.006-0.196-0.01-0.292-0.014
		c-0.097-0.002-0.188-0.004-0.274-0.004h-1.481V70.462z M78.963,70.462c0.098,0.012,0.213,0.021,0.344,0.026
		s0.274,0.009,0.432,0.009c0.197,0,0.393-0.011,0.588-0.03c0.194-0.021,0.381-0.064,0.558-0.131s0.343-0.162,0.497-0.287
		c0.153-0.125,0.291-0.289,0.413-0.493c0.187-0.313,0.315-0.634,0.388-0.962s0.109-0.688,0.109-1.076
		c0-0.459-0.044-0.876-0.131-1.25c-0.088-0.375-0.23-0.695-0.432-0.959c-0.2-0.264-0.466-0.469-0.797-0.614s-0.74-0.218-1.229-0.218
		c-0.146,0-0.277,0.003-0.396,0.009s-0.234,0.012-0.344,0.017V70.462z"/>
</g>
<g>
	<path fill="#3D3D3D" d="M28.781,73.342c0,0,0.052,0.148,0.273,0.317c0.217,0.172,0.581,0.374,1.029,0.647
		c0.905,0.533,2.182,1.329,3.743,2.223c0.775,0.463,1.642,0.906,2.551,1.389c0.927,0.451,1.897,0.938,2.933,1.377
		c1.025,0.456,2.108,0.879,3.219,1.273c1.107,0.406,2.253,0.752,3.401,1.09c1.164,0.299,2.308,0.608,3.474,0.831
		c1.16,0.224,2.291,0.519,3.398,0.7c1.105,0.198,2.173,0.391,3.186,0.572c1.015,0.17,1.99,0.349,2.869,0.596
		c0.883,0.232,1.678,0.574,2.267,1.073c0.577,0.507,0.918,1.043,1.271,1.435c0.677,0.805,1.081,1.248,1.081,1.248l-0.036,0.033
		c0,0-0.438-0.414-1.174-1.167c-0.381-0.36-0.772-0.89-1.32-1.328c-0.551-0.431-1.33-0.712-2.189-0.912
		c-0.863-0.216-1.816-0.362-2.844-0.505c-1.021-0.156-2.097-0.365-3.211-0.559c-1.116-0.187-2.242-0.47-3.398-0.727
		c-1.154-0.244-2.326-0.584-3.482-0.906c-1.152-0.359-2.301-0.725-3.41-1.15c-1.111-0.416-2.193-0.857-3.218-1.333
		c-1.032-0.458-2.003-0.958-2.923-1.433c-0.904-0.505-1.768-0.969-2.531-1.446c-1.548-0.931-2.804-1.75-3.699-2.303
		c-0.443-0.283-0.8-0.49-1.022-0.673c-0.228-0.184-0.275-0.348-0.279-0.338L28.781,73.342z"/>
</g>
<path fill="#3D3D3D" d="M28.828,73.394c-0.26,0.077-0.851-0.323-1.125-0.522c-0.428-0.314-0.504-0.579-0.643-1.062
	c-0.146-0.508-0.287-0.982-0.367-1.505c0.124,0.299,0.539,0.399,0.804,0.558c0.462,0.275,0.713,0.52,0.89,1.022
	c0.187,0.532,0.365,1.001,0.45,1.562"/>
<path fill="#3D3D3D" d="M31.152,74.896c-0.739-0.211-0.576-1.937-0.476-2.438c0.08-0.42,0.034-0.977,0.218-1.361
	c0.219,0.156,0.357,0.395,0.459,0.652c0.214,0.535,0.696,1.273,0.751,1.83C32.159,74.133,31.663,74.736,31.152,74.896
	c-0.229,0.071-0.399,0.065-0.634,0.088c-0.362,0.034-0.695,0.167-1.063,0.224c-0.627,0.094-1.638,0.486-1.889,1.146
	c0.71,0.148,1.942,0.424,2.58,0c0.318-0.209,0.603-0.544,0.754-0.896c0.109-0.261,0.145-0.594,0.308-0.825"/>
<path fill="#3D3D3D" d="M33.61,76.59c-0.039-0.23-0.226-0.532-0.287-0.803c-0.087-0.381-0.102-0.73-0.102-1.123
	c0-0.551,0.017-1.295,0.486-1.676c0.423,0.518,0.705,0.928,0.705,1.641c0,0.493,0.1,1.703-0.499,1.938
	c-0.126,0.049-0.342,0.01-0.481,0.021c-0.406,0.039-0.795,0.148-1.187,0.26c-0.639,0.183-1.298,0.359-1.801,0.801
	c0.426-0.008,0.831,0.223,1.255,0.237c0.298,0.01,0.66,0.05,0.942-0.054c0.617-0.219,0.979-0.74,1.097-1.373"/>
<path fill="#3D3D3D" d="M35.658,77.523c0.454-1.108-0.326-2.334,0.881-3.232c0.715,1.215,0.316,2.562-0.79,3.271
	c-0.6,0.385-1.084,0.783-1.77,1.002c-0.372,0.119-0.833,0.245-1.016,0.596c0.547,0.301,1.19,0.598,1.812,0.338
	c1.084-0.455,0.467-1.086,0.974-1.936"/>
<g>
	<path fill="#3D3D3D" d="M93.873,73.367c-0.004-0.01-0.051,0.154-0.278,0.338c-0.222,0.184-0.579,0.39-1.022,0.673
		c-0.895,0.553-2.15,1.374-3.698,2.304c-0.764,0.477-1.627,0.941-2.531,1.445c-0.92,0.475-1.891,0.975-2.923,1.434
		c-1.025,0.475-2.107,0.916-3.219,1.332c-1.108,0.426-2.258,0.792-3.409,1.15c-1.157,0.322-2.329,0.662-3.483,0.906
		c-1.156,0.257-2.281,0.54-3.398,0.727c-1.113,0.193-2.188,0.402-3.211,0.559c-1.026,0.143-1.98,0.289-2.844,0.505
		c-0.859,0.2-1.638,0.481-2.188,0.912c-0.549,0.438-0.939,0.968-1.321,1.329c-0.736,0.752-1.173,1.166-1.173,1.166l-0.036-0.033
		c0,0,0.404-0.443,1.082-1.248c0.352-0.391,0.691-0.928,1.27-1.435c0.589-0.499,1.383-0.841,2.267-1.073
		c0.879-0.247,1.854-0.426,2.868-0.596c1.014-0.182,2.081-0.374,3.186-0.572c1.107-0.182,2.239-0.477,3.399-0.7
		c1.165-0.223,2.31-0.532,3.474-0.831c1.147-0.338,2.294-0.684,3.401-1.089c1.11-0.396,2.192-0.818,3.218-1.274
		c1.035-0.438,2.006-0.926,2.934-1.377c0.908-0.482,1.775-0.926,2.551-1.387c1.561-0.895,2.838-1.691,3.743-2.225
		c0.448-0.273,0.812-0.476,1.028-0.647c0.222-0.169,0.273-0.317,0.273-0.317L93.873,73.367z"/>
</g>
<path fill="#3D3D3D" d="M93.784,73.394c0.259,0.077,0.851-0.323,1.125-0.522c0.427-0.314,0.503-0.579,0.642-1.062
	c0.145-0.508,0.287-0.982,0.367-1.505c-0.125,0.299-0.539,0.399-0.805,0.558c-0.463,0.275-0.713,0.52-0.89,1.022
	c-0.188,0.532-0.364,1.001-0.45,1.562"/>
<path fill="#3D3D3D" d="M91.459,74.896c0.739-0.211,0.576-1.937,0.477-2.438c-0.08-0.42-0.033-0.977-0.219-1.361
	c-0.219,0.156-0.357,0.395-0.459,0.652c-0.214,0.535-0.695,1.273-0.751,1.83C90.453,74.133,90.948,74.736,91.459,74.896
	c0.229,0.071,0.398,0.065,0.635,0.088c0.362,0.034,0.696,0.167,1.062,0.224c0.628,0.094,1.639,0.486,1.889,1.146
	c-0.709,0.148-1.942,0.424-2.58,0c-0.316-0.209-0.602-0.544-0.753-0.896c-0.108-0.261-0.146-0.594-0.309-0.825"/>
<path fill="#3D3D3D" d="M89.002,76.59c0.038-0.23,0.227-0.532,0.287-0.803c0.087-0.381,0.102-0.73,0.102-1.123
	c0-0.551-0.018-1.295-0.486-1.676c-0.422,0.518-0.705,0.928-0.705,1.641c0,0.493-0.1,1.703,0.498,1.938
	c0.127,0.049,0.343,0.01,0.482,0.021c0.405,0.039,0.795,0.148,1.186,0.26c0.64,0.183,1.299,0.359,1.802,0.801
	c-0.425-0.008-0.831,0.223-1.257,0.237c-0.297,0.01-0.659,0.05-0.941-0.054c-0.617-0.219-0.979-0.74-1.096-1.373"/>
<path fill="#3D3D3D" d="M86.956,77.523c-0.456-1.108,0.324-2.334-0.884-3.232c-0.715,1.215-0.316,2.562,0.791,3.271
	c0.6,0.385,1.084,0.783,1.769,1.002c0.372,0.119,0.834,0.245,1.017,0.596c-0.547,0.301-1.191,0.598-1.812,0.338
	c-1.083-0.455-0.466-1.086-0.974-1.936"/>
<g>
	<path fill="#BEC6A7" d="M59.176,35.787c-0.09,0.254,0.029,0.448,0.299,0.448c0.463,0,0.941-0.344,1.419-1.165l0.104,0.06
		c-0.553,1.061-1.523,1.538-2.062,1.538c-0.896,0-1.329-0.791-0.956-1.881c-0.553,1.194-1.314,1.881-2.062,1.881
		c-1.419,0-1.957-1.135-1.957-2.345c0-1.942,1.897-4.287,4.198-4.287c0.553,0,0.985,0.269,1.061,0.807l1.583-5.124
		c0.015-0.015-0.015-0.045-0.075-0.045l-0.82,0.03c-0.03,0,0.014-0.12,0.045-0.12l2.42-0.074c0.029,0,0.029,0.029,0.029,0.045
		L59.176,35.787z M58.145,30.155c-0.313,0-0.553,0.06-0.896,0.329c-1.09,0.836-1.896,3.675-1.896,4.944
		c0,0.776,0.209,1.046,0.702,1.046c0.896,0,1.644-1.18,2.136-2.42l0.912-2.869C59.176,30.559,58.816,30.155,58.145,30.155z"/>
	<path fill="#BEC6A7" d="M63.91,33.218h-0.643c-0.254,0.866-0.418,1.688-0.418,2.122c0,0.717,0.224,1.209,0.985,1.209
		c1.181,0,1.747-0.522,2.331-1.18l0.074,0.074c-0.702,0.837-1.345,1.225-2.36,1.225c-1.345,0-2.346-1.03-2.346-2.509
		c0-2.136,1.808-4.123,3.794-4.123c1.256,0,1.883,0.687,1.883,1.27C67.211,32.501,65.717,33.218,63.91,33.218z M65.314,30.155
		c-1.181,0-1.555,1.315-2.018,2.942h0.373c1.838,0,2.271-1.164,2.271-2.121C65.941,30.379,65.717,30.155,65.314,30.155z"/>
</g>
<g>
</g>
<g>
</g>
<g>
</g>
<g>
</g>
<g>
</g>
<g>
</g>
</svg>
