<?xml version="1.0" encoding="utf-8"?>
<!-- Generator: Adobe Illustrator 16.0.0, SVG Export Plug-In . SVG Version: 6.00 Build 0)  -->
<!DOCTYPE svg PUBLIC "-//W3C//DTD SVG 1.1//EN" "http://www.w3.org/Graphics/SVG/1.1/DTD/svg11.dtd">
<svg version="1.1" id="Layer_1" xmlns="http://www.w3.org/2000/svg" xmlns:xlink="http://www.w3.org/1999/xlink" x="0px" y="0px"
	 width="130.154px" height="53.126px" viewBox="0 0 130.154 53.126" enable-background="new 0 0 130.154 53.126"
	 xml:space="preserve">
<line fill="none" stroke="#3D3D3D" stroke-width="0.5" stroke-miterlimit="10" x1="127.76" y1="13.103" x2="1.527" y2="13.103"/>
<line fill="none" stroke="#3D3D3D" stroke-width="0.5" stroke-miterlimit="10" x1="127.76" y1="48.465" x2="1.527" y2="48.465"/>
<g>
	<path d="M34.97,3.377h2.695v0.154h-0.924l1.419,3.454l1.485-3.454h-0.913V3.377h1.683v0.154h-0.594l-1.815,4.246
		c-0.139,0.315-0.271,0.632-0.396,0.951s-0.25,0.64-0.374,0.963c-0.103,0.264-0.206,0.494-0.308,0.692s-0.211,0.359-0.324,0.484
		c-0.114,0.124-0.237,0.218-0.369,0.28s-0.286,0.094-0.462,0.094c-0.213,0-0.383-0.033-0.512-0.1
		c-0.128-0.065-0.229-0.143-0.302-0.23s-0.121-0.18-0.143-0.275c-0.022-0.095-0.033-0.176-0.033-0.242
		c0-0.183,0.052-0.32,0.154-0.412s0.227-0.138,0.374-0.138c0.051,0,0.106,0.006,0.165,0.017c0.059,0.011,0.113,0.031,0.165,0.061
		c0.051,0.029,0.095,0.069,0.132,0.121c0.037,0.051,0.055,0.113,0.055,0.187c0,0.104-0.032,0.2-0.094,0.292
		c-0.062,0.092-0.093,0.192-0.093,0.303c0,0.095,0.025,0.157,0.077,0.187s0.121,0.044,0.209,0.044c0.117,0,0.226-0.027,0.325-0.082
		c0.099-0.056,0.196-0.146,0.292-0.27c0.095-0.125,0.19-0.288,0.286-0.489c0.095-0.202,0.201-0.449,0.319-0.743l0.484-1.231
		l-1.903-4.708H34.97V3.377z"/>
	<path d="M49.92,0.165h1.793v7.777h0.846v0.153h-1.771V7.139h-0.022c-0.029,0.088-0.072,0.194-0.131,0.319s-0.146,0.246-0.259,0.363
		c-0.114,0.117-0.257,0.218-0.429,0.302c-0.173,0.085-0.384,0.127-0.633,0.127c-0.322,0-0.629-0.07-0.919-0.209
		c-0.29-0.14-0.544-0.326-0.765-0.562c-0.22-0.234-0.395-0.504-0.521-0.808c-0.129-0.305-0.193-0.626-0.193-0.963
		c0-0.33,0.062-0.646,0.188-0.946s0.293-0.562,0.506-0.786s0.458-0.403,0.736-0.539c0.279-0.136,0.576-0.203,0.892-0.203
		c0.403,0,0.729,0.099,0.979,0.297c0.248,0.197,0.425,0.439,0.527,0.726h0.021V0.319H49.92V0.165z M48.016,5.577
		c0,0.381,0.012,0.728,0.033,1.039c0.022,0.312,0.078,0.578,0.166,0.798s0.219,0.389,0.396,0.506
		c0.176,0.117,0.414,0.176,0.715,0.176c0.308,0,0.556-0.065,0.743-0.198c0.187-0.132,0.331-0.302,0.434-0.511
		c0.104-0.209,0.172-0.442,0.209-0.699c0.037-0.256,0.055-0.506,0.055-0.747c0-0.286-0.005-0.534-0.016-0.743
		c-0.012-0.209-0.031-0.394-0.061-0.556c-0.029-0.161-0.07-0.3-0.121-0.418c-0.051-0.117-0.113-0.227-0.188-0.33
		c-0.109-0.146-0.252-0.268-0.429-0.362c-0.176-0.096-0.399-0.144-0.671-0.144c-0.257,0-0.467,0.052-0.633,0.154
		c-0.164,0.103-0.293,0.249-0.385,0.44c-0.092,0.19-0.156,0.419-0.192,0.688C48.035,4.938,48.016,5.239,48.016,5.577z"/>
	<path d="M55.958,5.368c0,0.073-0.002,0.148-0.005,0.226c-0.004,0.077-0.006,0.174-0.006,0.291c0,0.242,0.014,0.495,0.044,0.759
		c0.029,0.265,0.093,0.503,0.192,0.716c0.1,0.212,0.246,0.389,0.439,0.527c0.195,0.14,0.453,0.209,0.775,0.209
		c0.323,0,0.59-0.048,0.799-0.143c0.209-0.096,0.373-0.211,0.494-0.347s0.211-0.273,0.27-0.412c0.059-0.14,0.103-0.253,0.133-0.342
		l0.164,0.033c-0.021,0.081-0.064,0.196-0.127,0.347c-0.062,0.15-0.16,0.301-0.297,0.451c-0.135,0.15-0.318,0.282-0.549,0.396
		c-0.231,0.114-0.53,0.171-0.896,0.171c-0.367,0-0.707-0.059-1.018-0.176c-0.312-0.117-0.582-0.286-0.809-0.506
		c-0.229-0.221-0.404-0.482-0.528-0.787c-0.125-0.304-0.187-0.644-0.187-1.018c0-0.322,0.063-0.636,0.191-0.94
		c0.129-0.304,0.305-0.573,0.528-0.809c0.224-0.234,0.485-0.423,0.786-0.566c0.301-0.143,0.623-0.214,0.969-0.214
		c0.205,0,0.425,0.036,0.66,0.109c0.234,0.073,0.452,0.192,0.654,0.357c0.201,0.165,0.37,0.384,0.506,0.654
		c0.136,0.271,0.203,0.609,0.203,1.013H55.958z M58.225,5.214c0.014-0.103,0.021-0.198,0.021-0.286s0-0.18,0-0.274
		c0-0.25-0.023-0.455-0.072-0.616c-0.047-0.161-0.113-0.29-0.197-0.385c-0.084-0.096-0.188-0.163-0.309-0.204
		c-0.121-0.04-0.25-0.061-0.391-0.061c-0.248,0-0.454,0.05-0.615,0.148c-0.162,0.1-0.29,0.233-0.385,0.401
		c-0.096,0.169-0.167,0.363-0.215,0.583c-0.048,0.221-0.078,0.451-0.094,0.693H58.225z"/>
	<path d="M61.953,6.556h0.121c0.051,0.177,0.117,0.354,0.197,0.534c0.081,0.18,0.189,0.345,0.324,0.494
		c0.137,0.15,0.303,0.273,0.501,0.369c0.198,0.095,0.437,0.143,0.716,0.143c0.234,0,0.443-0.071,0.627-0.214
		c0.183-0.144,0.274-0.376,0.274-0.699c0-0.278-0.071-0.475-0.214-0.588c-0.144-0.114-0.311-0.204-0.501-0.27l-0.858-0.297
		c-0.109-0.037-0.229-0.083-0.357-0.138c-0.129-0.056-0.247-0.132-0.357-0.231c-0.109-0.099-0.199-0.226-0.27-0.379
		c-0.07-0.154-0.104-0.353-0.104-0.595c0-0.205,0.04-0.396,0.121-0.571c0.081-0.177,0.19-0.33,0.33-0.462
		c0.14-0.133,0.306-0.235,0.501-0.309c0.193-0.073,0.404-0.109,0.632-0.109c0.161,0,0.292,0.013,0.391,0.038
		s0.185,0.052,0.259,0.077c0.072,0.025,0.139,0.051,0.197,0.077c0.059,0.025,0.129,0.038,0.209,0.038
		c0.081,0,0.14-0.029,0.176-0.088h0.121v1.254h-0.121c-0.051-0.161-0.109-0.317-0.176-0.468c-0.065-0.149-0.145-0.284-0.236-0.401
		s-0.205-0.209-0.341-0.274c-0.136-0.066-0.295-0.1-0.479-0.1c-0.353,0-0.625,0.079-0.819,0.236
		c-0.194,0.158-0.291,0.369-0.291,0.633c0,0.235,0.082,0.413,0.247,0.533c0.165,0.121,0.409,0.233,0.731,0.336l0.803,0.264
		c0.345,0.118,0.627,0.279,0.848,0.484c0.22,0.205,0.33,0.477,0.33,0.813c0,0.198-0.039,0.393-0.115,0.583
		c-0.078,0.191-0.191,0.358-0.342,0.501s-0.334,0.259-0.55,0.347S64.014,8.25,63.734,8.25c-0.16,0-0.31-0.017-0.445-0.05
		c-0.135-0.033-0.26-0.067-0.373-0.104c-0.114-0.036-0.219-0.071-0.314-0.104s-0.184-0.049-0.264-0.049s-0.139,0.016-0.176,0.049
		s-0.066,0.068-0.088,0.104h-0.121V6.556z"/>
	<path d="M67.816,11.021h0.846v-7.49h-0.846V3.377h1.771v0.924h0.022c0.109-0.308,0.291-0.562,0.544-0.765
		c0.253-0.201,0.581-0.302,0.984-0.302c0.315,0,0.612,0.067,0.892,0.203c0.278,0.136,0.523,0.315,0.736,0.539
		s0.381,0.485,0.506,0.786s0.188,0.616,0.188,0.946c0,0.337-0.064,0.658-0.193,0.963c-0.128,0.304-0.302,0.573-0.521,0.808
		c-0.221,0.235-0.475,0.422-0.765,0.562c-0.29,0.139-0.597,0.209-0.919,0.209c-0.249,0-0.46-0.042-0.633-0.127
		c-0.172-0.084-0.312-0.183-0.423-0.297c-0.11-0.113-0.194-0.23-0.253-0.352s-0.1-0.219-0.121-0.292h-0.021v3.839h0.847v0.154h-2.64
		V11.021z M72.359,5.577c0-0.338-0.02-0.64-0.056-0.907c-0.036-0.269-0.101-0.497-0.192-0.688c-0.092-0.191-0.221-0.338-0.385-0.44
		c-0.165-0.103-0.376-0.154-0.633-0.154c-0.271,0-0.495,0.048-0.671,0.144c-0.177,0.095-0.319,0.216-0.429,0.362
		c-0.081,0.104-0.145,0.213-0.193,0.33c-0.047,0.118-0.086,0.257-0.115,0.418c-0.029,0.162-0.049,0.347-0.061,0.556
		c-0.011,0.209-0.016,0.457-0.016,0.743c0,0.241,0.018,0.491,0.055,0.747c0.036,0.257,0.105,0.49,0.209,0.699
		c0.103,0.209,0.247,0.379,0.434,0.511c0.188,0.133,0.436,0.198,0.743,0.198c0.301,0,0.539-0.059,0.715-0.176
		c0.177-0.117,0.308-0.286,0.396-0.506c0.089-0.22,0.144-0.485,0.166-0.798C72.348,6.305,72.359,5.958,72.359,5.577z"/>
	<path d="M81.775,8.096h-1.771v-1.11h-0.021c-0.066,0.146-0.145,0.295-0.236,0.445s-0.206,0.286-0.342,0.407
		c-0.135,0.12-0.293,0.22-0.473,0.297S78.541,8.25,78.299,8.25c-0.293,0-0.531-0.033-0.715-0.099
		c-0.184-0.066-0.326-0.136-0.429-0.209c-0.052-0.037-0.108-0.083-0.171-0.138c-0.062-0.056-0.119-0.13-0.17-0.226
		c-0.052-0.096-0.096-0.219-0.133-0.369c-0.036-0.149-0.055-0.335-0.055-0.555V3.531H75.78V3.377h1.793v3.377
		c0,0.19,0.013,0.367,0.038,0.528s0.075,0.302,0.148,0.423c0.074,0.121,0.169,0.217,0.286,0.286c0.118,0.07,0.271,0.104,0.462,0.104
		c0.162,0,0.328-0.048,0.501-0.143c0.172-0.096,0.329-0.231,0.473-0.407s0.263-0.387,0.358-0.633
		c0.095-0.245,0.143-0.522,0.143-0.83V3.531h-0.836V3.377h1.781v4.565h0.848V8.096z"/>
	<path d="M85.13,5.368c0,0.073-0.002,0.148-0.005,0.226c-0.004,0.077-0.006,0.174-0.006,0.291c0,0.242,0.014,0.495,0.044,0.759
		c0.029,0.265,0.093,0.503,0.192,0.716c0.1,0.212,0.246,0.389,0.439,0.527c0.195,0.14,0.453,0.209,0.775,0.209
		c0.323,0,0.59-0.048,0.799-0.143c0.209-0.096,0.373-0.211,0.494-0.347s0.211-0.273,0.27-0.412c0.059-0.14,0.103-0.253,0.133-0.342
		l0.164,0.033c-0.021,0.081-0.064,0.196-0.127,0.347c-0.062,0.15-0.16,0.301-0.297,0.451c-0.135,0.15-0.318,0.282-0.549,0.396
		c-0.231,0.114-0.53,0.171-0.896,0.171c-0.367,0-0.707-0.059-1.018-0.176c-0.312-0.117-0.582-0.286-0.809-0.506
		c-0.229-0.221-0.404-0.482-0.528-0.787c-0.125-0.304-0.187-0.644-0.187-1.018c0-0.322,0.063-0.636,0.191-0.94
		c0.129-0.304,0.305-0.573,0.528-0.809c0.224-0.234,0.485-0.423,0.786-0.566c0.301-0.143,0.623-0.214,0.969-0.214
		c0.205,0,0.425,0.036,0.66,0.109c0.234,0.073,0.452,0.192,0.654,0.357c0.201,0.165,0.37,0.384,0.506,0.654
		c0.136,0.271,0.203,0.609,0.203,1.013H85.13z M87.396,5.214c0.014-0.103,0.021-0.198,0.021-0.286s0-0.18,0-0.274
		c0-0.25-0.023-0.455-0.072-0.616c-0.047-0.161-0.113-0.29-0.197-0.385c-0.084-0.096-0.188-0.163-0.309-0.204
		c-0.121-0.04-0.25-0.061-0.391-0.061c-0.248,0-0.454,0.05-0.615,0.148c-0.162,0.1-0.29,0.233-0.385,0.401
		c-0.096,0.169-0.167,0.363-0.215,0.583c-0.048,0.221-0.078,0.451-0.094,0.693H87.396z M87.109,0.44
		c0.146-0.177,0.252-0.294,0.314-0.353S87.568,0,87.671,0s0.19,0.038,0.265,0.115c0.072,0.077,0.109,0.167,0.109,0.27
		c0,0.081-0.023,0.144-0.071,0.188s-0.091,0.08-0.126,0.109l-1.882,1.343h-0.153L87.109,0.44z"/>
	<path d="M91.125,6.556h0.121c0.051,0.177,0.117,0.354,0.197,0.534c0.081,0.18,0.189,0.345,0.324,0.494
		c0.137,0.15,0.303,0.273,0.501,0.369c0.198,0.095,0.437,0.143,0.716,0.143c0.234,0,0.443-0.071,0.627-0.214
		c0.183-0.144,0.274-0.376,0.274-0.699c0-0.278-0.071-0.475-0.214-0.588c-0.144-0.114-0.311-0.204-0.501-0.27l-0.858-0.297
		c-0.109-0.037-0.229-0.083-0.357-0.138c-0.129-0.056-0.247-0.132-0.357-0.231c-0.109-0.099-0.199-0.226-0.27-0.379
		c-0.07-0.154-0.104-0.353-0.104-0.595c0-0.205,0.04-0.396,0.121-0.571c0.081-0.177,0.19-0.33,0.33-0.462
		c0.14-0.133,0.306-0.235,0.501-0.309c0.193-0.073,0.404-0.109,0.632-0.109c0.161,0,0.292,0.013,0.391,0.038
		s0.185,0.052,0.259,0.077c0.072,0.025,0.139,0.051,0.197,0.077c0.059,0.025,0.129,0.038,0.209,0.038
		c0.081,0,0.14-0.029,0.176-0.088h0.121v1.254h-0.121c-0.051-0.161-0.109-0.317-0.176-0.468c-0.065-0.149-0.145-0.284-0.236-0.401
		s-0.205-0.209-0.341-0.274c-0.136-0.066-0.295-0.1-0.479-0.1c-0.353,0-0.625,0.079-0.819,0.236
		c-0.194,0.158-0.291,0.369-0.291,0.633c0,0.235,0.082,0.413,0.247,0.533c0.165,0.121,0.409,0.233,0.731,0.336l0.803,0.264
		c0.345,0.118,0.627,0.279,0.848,0.484c0.22,0.205,0.33,0.477,0.33,0.813c0,0.198-0.039,0.393-0.115,0.583
		c-0.078,0.191-0.191,0.358-0.342,0.501s-0.334,0.259-0.55,0.347S93.186,8.25,92.906,8.25c-0.16,0-0.31-0.017-0.445-0.05
		c-0.135-0.033-0.26-0.067-0.373-0.104c-0.114-0.036-0.219-0.071-0.314-0.104S91.59,7.942,91.51,7.942s-0.139,0.016-0.176,0.049
		s-0.066,0.068-0.088,0.104h-0.121V6.556z"/>
	<path fill="#64665D" d="M4.175,50.569c-0.647,1.974-1.748,2.557-2.783,2.557C0.453,53.126,0,52.479,0,51.67
		c0-2.007,5.017-10.972,6.764-16.7c0.065-0.13,0.777-0.13,0.68,0C5.664,40.698,5.017,47.883,4.175,50.569z M7.962,32.931
		c-0.712,0-1.262-0.582-1.262-1.392c0-1.197,0.971-2.298,2.104-2.298c0.777,0,1.327,0.551,1.327,1.392
		C10.13,31.83,9.127,32.931,7.962,32.931z"/>
	<path fill="#64665D" d="M30.68,25.002c-0.032,0.064-0.68,0.064-0.68,0c1.003-3.107-0.032-5.664-3.884-5.664h-2.686
		c-0.162,0-0.227,0.064-0.259,0.13l-3.042,9.741h1.198c2.654,0,4.175-1.165,4.854-3.398c0.032-0.064,0.68-0.064,0.68,0l-2.589,8.156
		c0,0.097-0.68,0.097-0.647,0c0.712-2.201,0.162-4.11-2.492-4.11h-1.23L16.408,40.86c0,0.097,0.032,0.129,0.194,0.129h3.042
		c0.097,0-0.129,0.647-0.194,0.647H8.997c-0.065,0,0.129-0.647,0.226-0.647h2.881c0.162,0,0.227-0.032,0.259-0.129l6.731-21.393
		c0.033-0.065-0.032-0.13-0.162-0.13H16.02c-0.065,0,0.129-0.647,0.194-0.647h16.15c0.064,0,0.064,0.065,0.064,0.098L30.68,25.002z"
		/>
	<path fill="#64665D" d="M45.145,19.402h-2.881c-0.161,0-0.227,0.065-0.258,0.13l-6.765,21.393
		c-0.032,0.097,0.032,0.129,0.162,0.129h2.913c0.064,0-0.129,0.647-0.194,0.647H27.83c-0.065,0,0.129-0.647,0.194-0.647h2.913
		c0.129,0,0.226-0.032,0.259-0.129l6.731-21.393c0-0.064-0.032-0.13-0.194-0.13h-2.88c-0.097,0,0.129-0.646,0.194-0.646h10.292
		C45.403,18.756,45.242,19.402,45.145,19.402z"/>
	<path fill="#64665D" d="M62.425,25.066c-0.032,0.097-0.712,0.097-0.68,0c0.972-3.107-0.064-5.631-3.916-5.631h-2.621
		c-0.162,0-0.227,0.032-0.259,0.097l-3.074,9.773h0.906c2.653,0,4.143-1.197,4.854-3.431c0.033-0.064,0.713-0.064,0.68,0
		l-2.557,8.188c-0.032,0.064-0.712,0.064-0.68,0c0.68-2.233,0.13-4.143-2.523-4.143H51.68l-3.494,11.036
		c-0.033,0.064,0.031,0.097,0.161,0.097h2.298c5.826,0,8.512-2.977,9.547-6.278c0.033-0.064,0.713-0.064,0.68,0l-2.168,6.829
		c0,0.064-0.032,0.097-0.098,0.097H40.773c-0.064,0,0.129-0.647,0.227-0.647h2.881c0.162,0,0.227-0.032,0.259-0.097l6.731-21.425
		c0.032-0.064-0.032-0.097-0.162-0.097h-2.912c-0.064,0,0.129-0.647,0.193-0.647h16.086c0.097,0,0.097,0.032,0.064,0.097
		L62.425,25.066z"/>
	<path fill="#64665D" d="M78.604,24.257c0,0.098-0.647,0.098-0.647,0c1.068-3.43-0.906-5.404-3.236-5.404
		c-2.654,0-4.175,1.488-4.175,3.884c0,4.531,7.509,6.278,7.509,11.716c0,4.401-2.945,7.8-7.801,7.8
		c-2.783,0-3.851-1.295-5.016-1.295c-0.874,0-1.166,0.162-1.457,0.68c-0.031,0.064-0.68,0.064-0.646,0l2.104-7.185
		c0.032-0.065,0.712-0.065,0.68,0c-1.101,3.431,0.291,7.185,4.401,7.185c3.171,0,4.952-1.586,4.952-4.401
		c0-4.854-7.412-6.085-7.412-11.716c0-3.884,3.043-7.314,6.926-7.314c1.877,0,2.978,0.81,3.754,0.81c0.68,0,1.004-0.227,1.263-0.712
		c0.065-0.098,0.68-0.098,0.647,0L78.604,24.257z"/>
	<path fill="#64665D" d="M100.9,26.005c0,0.064-0.646,0.064-0.614,0c1.165-3.754,0.81-6.603-3.981-6.603h-0.452
		c-0.13,0-0.194,0.065-0.227,0.13l-6.731,21.393c-0.033,0.097,0.031,0.129,0.161,0.129h2.913c0.064,0-0.129,0.647-0.227,0.647
		h-10.26c-0.064,0,0.13-0.647,0.194-0.647h2.88c0.162,0,0.227-0.032,0.26-0.129l6.764-21.393c0.033-0.064-0.032-0.13-0.162-0.13
		H91.03c-4.661,0-6.731,2.59-7.897,6.344c0,0.064-0.68,0.064-0.68,0l2.169-6.894c0-0.032,0.032-0.097,0.13-0.097h18.35
		c0.064,0,0.064,0.064,0.064,0.097L100.9,26.005z"/>
	<path fill="#64665D" d="M108.02,41.701c-0.064,0,0.162-0.647,0.227-0.647h2.363c0.162,0,0.227-0.032,0.227-0.097v-6.926h-7.639
		l-4.207,5.664c-0.873,1.165-0.873,1.358-0.453,1.358h2.428c0.064,0-0.162,0.647-0.227,0.647h-6.537
		c-0.065,0,0.129-0.647,0.193-0.647h2.072c0.518,0,0.905-0.291,1.65-1.326l15.793-21.425c0.098-0.13,0.777-0.098,0.777,0v22.654
		c0,0.064,0.064,0.097,0.227,0.097h3.074c0.064,0-0.098,0.647-0.162,0.647H108.02z M110.836,23.675l-7.152,9.677h7.152V23.675z"/>
	<path fill="#64665D" d="M121.352,42.122c-0.776,0-1.326-0.55-1.326-1.392c0-1.197,1.003-2.298,2.136-2.298
		c0.744,0,1.327,0.583,1.327,1.392C123.488,41.021,122.452,42.122,121.352,42.122z M123.391,36.394c-0.064,0.13-0.744,0.13-0.68,0
		c1.78-5.729,2.428-12.913,3.301-15.6c0.615-1.974,1.748-2.557,2.752-2.557c0.938,0,1.391,0.647,1.391,1.457
		C130.154,21.7,125.139,30.665,123.391,36.394z"/>
</g>
<g>
</g>
<g>
</g>
<g>
</g>
<g>
</g>
<g>
</g>
<g>
</g>
</svg>
