<?xml version="1.0" encoding="utf-8"?>
<!-- Generator: Adobe Illustrator 16.0.0, SVG Export Plug-In . SVG Version: 6.00 Build 0)  -->
<!DOCTYPE svg PUBLIC "-//W3C//DTD SVG 1.1//EN" "http://www.w3.org/Graphics/SVG/1.1/DTD/svg11.dtd">
<svg version="1.1" id="Layer_1" xmlns="http://www.w3.org/2000/svg" xmlns:xlink="http://www.w3.org/1999/xlink" x="0px" y="0px"
	 width="154.874px" height="29.859px" viewBox="0 0 154.874 29.859" enable-background="new 0 0 154.874 29.859"
	 xml:space="preserve">
<g>
	<path fill="#64665D" d="M1.691,8.048C0.722,8.048,0,7.304,0,6.237c0-1.54,1.304-2.973,2.747-2.973c0.97,0,1.691,0.743,1.691,1.81
		C4.438,6.614,3.135,8.048,1.691,8.048z M2.779,3.351c-0.463,0-0.765,0.227-1.034,0.689C1.508,4.46,0.948,6.518,0.948,7.089
		c0,0.517,0.151,0.872,0.7,0.872c0.452,0,0.775-0.215,1.034-0.679C2.93,6.852,3.479,4.794,3.479,4.233
		C3.479,3.706,3.329,3.351,2.779,3.351z"/>
	<path fill="#64665D" d="M10.832,3.426h-0.808L8.785,7.401C8.721,7.595,8.796,7.735,8.99,7.735c0.334,0,0.668-0.216,1.023-0.841
		l0.075,0.043c-0.388,0.776-1.034,1.11-1.476,1.11c-0.679,0-0.98-0.485-0.711-1.357l1.023-3.265H8.139
		c-0.021,0,0.011-0.086,0.032-0.086h0.787l0.495-1.595l1.121-0.054L10.057,3.34h0.808C10.875,3.34,10.854,3.426,10.832,3.426z"/>
	<path fill="#64665D" d="M14.756,7.401c-0.064,0.183,0.011,0.334,0.215,0.334c0.323,0,0.679-0.248,1.013-0.841l0.076,0.043
		c-0.377,0.743-1.034,1.11-1.465,1.11c-0.646,0-0.958-0.593-0.7-1.368c-0.366,0.883-0.937,1.368-1.486,1.368
		c-1.045,0-1.422-0.862-1.422-1.713c0-1.39,1.357-3.06,3.017-3.06c0.388,0,0.711,0.183,0.765,0.581l0.162-0.495l1.121-0.075
		L14.756,7.401z M14.002,3.351c-0.227,0-0.388,0.054-0.646,0.248c-0.786,0.592-1.368,2.628-1.368,3.533
		c0,0.56,0.172,0.775,0.539,0.775c0.614,0,1.121-0.775,1.487-1.713l0.679-2.111C14.724,3.642,14.465,3.351,14.002,3.351z"/>
	<path fill="#64665D" d="M17.852,7.38c-0.075,0.215,0.022,0.355,0.216,0.355c0.334,0,0.679-0.248,1.002-0.841l0.086,0.043
		c-0.388,0.754-1.034,1.11-1.487,1.11c-0.678,0-0.991-0.464-0.7-1.347l2.058-6.55c0.011-0.021-0.011-0.032-0.054-0.032L18.38,0.13
		c-0.022,0,0-0.087,0.021-0.087L20.146,0c0.021,0,0.032,0.011,0.021,0.021L17.852,7.38z"/>
	<path fill="#64665D" d="M24.081,8.048c-0.894,0-1.26-0.528-1.26-1.347c0-0.787,0.7-1.864,0.7-2.845c0-0.226-0.054-0.312-0.27-0.312
		s-0.495,0.237-0.743,0.744l-0.075-0.044c0.323-0.7,0.851-0.979,1.249-0.979c0.528,0,0.819,0.279,0.819,0.872
		c0,1.023-0.743,2.209-0.743,2.952c0,0.56,0.172,0.732,0.549,0.732c0.818,0,1.993-1.088,1.993-2.413
		c0-0.775-0.216-0.948-0.216-1.497c0-0.345,0.173-0.646,0.485-0.646c0.431,0,0.614,0.377,0.614,0.786
		C27.185,6.033,25.202,8.048,24.081,8.048z"/>
	<path fill="#64665D" d="M29.622,5.559h-0.463c-0.184,0.625-0.302,1.218-0.302,1.53c0,0.517,0.161,0.872,0.711,0.872
		c0.851,0,1.261-0.377,1.681-0.851l0.054,0.054c-0.507,0.604-0.97,0.884-1.702,0.884c-0.97,0-1.691-0.744-1.691-1.811
		c0-1.54,1.304-2.973,2.736-2.973c0.904,0,1.357,0.495,1.357,0.915C32.003,5.042,30.926,5.559,29.622,5.559z M30.635,3.351
		c-0.851,0-1.12,0.948-1.454,2.122h0.27c1.324,0,1.637-0.84,1.637-1.529C31.087,3.512,30.926,3.351,30.635,3.351z"/>
	<path fill="#64665D" d="M33.407,6.809c0.107-0.043,0.162-0.054,0.312-0.054c0.818,0,1.551,0.743,2.014,0.743
		c0.496,0,0.787-0.377,0.787-0.743c0-0.248-0.098-0.345-0.259-0.345c-0.183,0-0.291,0.172-0.636,0.172
		c-0.248,0-0.388-0.15-0.388-0.388c0-0.334,0.227-0.549,0.561-0.549c0.56,0,0.818,0.538,0.818,1.045
		c0,0.743-0.593,1.357-1.497,1.357c-0.657,0-1.325-0.496-1.95-0.496c-0.377,0-0.646,0.14-0.958,0.507l-0.076-0.076l3.458-3.565
		c-0.151,0.086-0.377,0.14-0.636,0.14c-0.409,0-0.98-0.097-1.551-0.334l-0.345,0.884l-0.075-0.021L33.72,3.21
		c0.938,0.432,1.54,0.604,1.971,0.604c0.398,0,0.68-0.183,0.959-0.463l0.107-0.097l0.064,0.054L33.407,6.809z"/>
	<path fill="#64665D" d="M43.571,7.412c-0.064,0.183,0.021,0.323,0.215,0.323c0.334,0,0.679-0.248,1.023-0.841l0.076,0.043
		c-0.399,0.766-1.1,1.11-1.487,1.11c-0.646,0-0.958-0.571-0.689-1.357c-0.398,0.861-0.948,1.357-1.486,1.357
		c-1.023,0-1.411-0.819-1.411-1.691c0-1.4,1.367-3.092,3.027-3.092c0.398,0,0.711,0.193,0.764,0.581l1.143-3.694
		c0.011-0.011-0.011-0.032-0.054-0.032l-0.593,0.021c-0.021,0,0.011-0.087,0.032-0.087L45.876,0c0.021,0,0.021,0.021,0.021,0.032
		L43.571,7.412z M42.827,3.351c-0.226,0-0.398,0.043-0.646,0.237c-0.786,0.603-1.367,2.649-1.367,3.565
		c0,0.561,0.15,0.754,0.506,0.754c0.646,0,1.186-0.851,1.541-1.745l0.656-2.068C43.571,3.642,43.312,3.351,42.827,3.351z"/>
	<path fill="#64665D" d="M47.216,5.559h-0.463c-0.184,0.625-0.302,1.218-0.302,1.53c0,0.517,0.161,0.872,0.711,0.872
		c0.851,0,1.261-0.377,1.681-0.851l0.054,0.054c-0.507,0.604-0.97,0.884-1.702,0.884c-0.97,0-1.691-0.744-1.691-1.811
		c0-1.54,1.304-2.973,2.736-2.973c0.904,0,1.357,0.495,1.357,0.915C49.597,5.042,48.52,5.559,47.216,5.559z M48.229,3.351
		c-0.851,0-1.12,0.948-1.454,2.122h0.27c1.324,0,1.637-0.84,1.637-1.529C48.681,3.512,48.52,3.351,48.229,3.351z"/>
	<path fill="#64665D" d="M51.108,8.78c-0.518,1.637-1.174,2.553-2.381,2.553c-0.625,0-1.152-0.334-1.152-0.905
		c0-0.388,0.258-0.624,0.561-0.624c0.355,0,0.484,0.183,0.484,0.409c0,0.27-0.205,0.484-0.205,0.657
		c0,0.236,0.107,0.388,0.323,0.388c0.507,0,0.668-0.507,1.175-2.144l1.594-5.063c0.098-0.302-0.011-0.507-0.215-0.507
		c-0.227,0-0.507,0.227-0.754,0.733l-0.076-0.044c0.312-0.689,0.862-0.969,1.261-0.969c0.722,0,0.991,0.613,0.56,1.799L51.108,8.78z
		 M52.542,1.831c-0.346,0-0.625-0.279-0.625-0.613c0-0.345,0.279-0.625,0.625-0.625c0.344,0,0.613,0.28,0.613,0.625
		C53.155,1.552,52.886,1.831,52.542,1.831z"/>
	<path fill="#64665D" d="M57.121,7.401c-0.064,0.183,0.011,0.334,0.216,0.334c0.322,0,0.678-0.248,1.012-0.841l0.076,0.043
		c-0.377,0.743-1.034,1.11-1.465,1.11c-0.646,0-0.959-0.593-0.701-1.368c-0.365,0.883-0.937,1.368-1.486,1.368
		c-1.045,0-1.422-0.862-1.422-1.713c0-1.39,1.357-3.06,3.017-3.06c0.388,0,0.711,0.183,0.765,0.581l0.162-0.495l1.12-0.075
		L57.121,7.401z M56.367,3.351c-0.227,0-0.388,0.054-0.646,0.248c-0.786,0.592-1.368,2.628-1.368,3.533
		c0,0.56,0.172,0.775,0.539,0.775c0.613,0,1.12-0.775,1.486-1.713l0.679-2.111C57.089,3.642,56.83,3.351,56.367,3.351z"/>
	<path fill="#64665D" d="M62.975,4.869c-0.345,0-0.55-0.193-0.55-0.42c0-0.248,0.141-0.291,0.141-0.474
		c0-0.173-0.064-0.28-0.291-0.28c-0.258,0-0.57,0.334-1.25,1.734L60.228,7.95h-1.109l1.238-3.889
		c0.098-0.312-0.01-0.518-0.226-0.518s-0.495,0.216-0.743,0.744l-0.076-0.044c0.312-0.7,0.852-0.979,1.25-0.979
		c0.646,0,1.013,0.527,0.604,1.702c0.549-1.218,1.013-1.702,1.529-1.702c0.475,0,0.852,0.345,0.852,0.861
		C63.546,4.503,63.298,4.869,62.975,4.869z"/>
	<path fill="#64665D" d="M64.972,7.38c-0.076,0.215,0.021,0.355,0.215,0.355c0.334,0,0.68-0.248,1.002-0.841l0.086,0.043
		c-0.387,0.754-1.033,1.11-1.486,1.11c-0.679,0-0.99-0.464-0.7-1.347l2.058-6.55c0.011-0.021-0.011-0.032-0.054-0.032L65.499,0.13
		c-0.021,0,0-0.087,0.021-0.087L67.267,0c0.021,0,0.031,0.011,0.021,0.021L64.972,7.38z"/>
	<path fill="#64665D" d="M68.829,5.559h-0.463c-0.183,0.625-0.301,1.218-0.301,1.53c0,0.517,0.161,0.872,0.711,0.872
		c0.851,0,1.26-0.377,1.68-0.851l0.055,0.054c-0.507,0.604-0.971,0.884-1.703,0.884c-0.969,0-1.691-0.744-1.691-1.811
		c0-1.54,1.305-2.973,2.736-2.973c0.905,0,1.357,0.495,1.357,0.915C71.21,5.042,70.134,5.559,68.829,5.559z M69.843,3.351
		c-0.852,0-1.121,0.948-1.455,2.122h0.27c1.325,0,1.638-0.84,1.638-1.529C70.295,3.512,70.134,3.351,69.843,3.351z"/>
	<path fill="#64665D" d="M74.898,4.665c-0.323,0-0.464-0.216-0.464-0.442c0-0.258,0.184-0.312,0.184-0.517s-0.129-0.355-0.42-0.355
		c-0.549,0-0.83,0.334-0.83,0.829c0,0.916,1.466,1.218,1.466,2.456c0,0.668-0.593,1.412-1.81,1.412
		c-0.938,0-1.466-0.636-1.466-1.089c0-0.345,0.227-0.657,0.561-0.657c0.323,0,0.485,0.259,0.485,0.464
		c0,0.517-0.399,0.388-0.399,0.7c0,0.248,0.204,0.495,0.819,0.495c0.656,0,0.904-0.388,0.904-0.904c0-1.056-1.368-1.175-1.368-2.316
		c0-0.614,0.7-1.476,1.648-1.476c0.668,0,1.196,0.366,1.196,0.872C75.405,4.481,75.179,4.665,74.898,4.665z"/>
	<path fill="#64665D" d="M82.347,7.401c-0.064,0.193,0.01,0.334,0.215,0.334c0.334,0,0.657-0.216,1.013-0.841l0.075,0.043
		c-0.398,0.776-1.033,1.11-1.465,1.11c-0.646,0-1.045-0.528-0.613-1.735c-0.646,1.164-1.455,1.735-2.08,1.735
		c-0.527,0-0.872-0.367-0.872-0.991c0-0.959,1.022-2.521,1.022-3.189c0-0.247-0.074-0.323-0.258-0.323
		c-0.205,0-0.484,0.216-0.732,0.733l-0.086-0.044c0.322-0.7,0.861-0.969,1.249-0.969c0.55,0,0.786,0.355,0.786,0.775
		c0,0.883-0.947,2.09-0.947,3.07c0,0.259,0.193,0.452,0.452,0.452c0.452,0,0.872-0.366,1.583-1.583l0.819-2.618l1.12-0.054
		L82.347,7.401z"/>
	<path fill="#64665D" d="M88.243,8.048c-0.57,0-0.926-0.334-0.926-0.776c0-0.872,0.937-2.079,0.937-3.06
		c0-0.269-0.183-0.463-0.441-0.463c-0.452,0-0.873,0.366-1.584,1.595L85.41,7.95H84.3l1.239-3.889
		c0.097-0.312-0.021-0.518-0.226-0.518c-0.216,0-0.496,0.205-0.744,0.744l-0.086-0.044c0.323-0.7,0.861-0.979,1.261-0.979
		c0.646,0,1.022,0.538,0.593,1.734c0.646-1.153,1.476-1.734,2.09-1.734c0.527,0,0.872,0.366,0.872,0.991
		c0,0.969-0.991,2.401-0.991,3.069c0,0.248,0.098,0.41,0.334,0.41c0.323,0,0.657-0.216,1.002-0.841l0.076,0.043
		C89.342,7.703,88.674,8.048,88.243,8.048z"/>
	<path fill="#64665D" d="M99.259,8.048c-0.571,0-0.938-0.334-0.938-0.776c0-0.883,0.947-2.09,0.947-3.06
		c0-0.269-0.193-0.463-0.451-0.463c-0.346,0-0.712,0.366-1.423,1.627L96.587,7.95h-1.109l0.969-3.113
		c0.227-0.7,0.055-1.088-0.398-1.088c-0.355,0-0.689,0.334-1.422,1.595L93.808,7.95h-1.109l1.238-3.899
		c0.098-0.302-0.021-0.507-0.227-0.507c-0.215,0-0.495,0.205-0.742,0.733l-0.087-0.033c0.312-0.7,0.862-0.979,1.261-0.979
		c0.646,0,1.023,0.538,0.582,1.734c0.668-1.186,1.313-1.734,1.96-1.734c0.657,0,1.239,0.549,0.829,1.734
		c0.637-1.143,1.282-1.734,1.929-1.734c0.528,0,0.862,0.366,0.862,0.991c0,0.969-0.98,2.38-0.98,3.069
		c0,0.248,0.097,0.41,0.322,0.41c0.334,0,0.668-0.227,1.014-0.841l0.075,0.043C100.347,7.691,99.689,8.048,99.259,8.048z"/>
	<path fill="#64665D" d="M103.078,5.559h-0.463c-0.184,0.625-0.302,1.218-0.302,1.53c0,0.517,0.162,0.872,0.711,0.872
		c0.852,0,1.26-0.377,1.681-0.851l0.054,0.054c-0.506,0.604-0.97,0.884-1.702,0.884c-0.97,0-1.691-0.744-1.691-1.811
		c0-1.54,1.304-2.973,2.736-2.973c0.905,0,1.357,0.495,1.357,0.915C105.459,5.042,104.382,5.559,103.078,5.559z M104.091,3.351
		c-0.852,0-1.12,0.948-1.454,2.122h0.269c1.326,0,1.639-0.84,1.639-1.529C104.544,3.512,104.382,3.351,104.091,3.351z"/>
	<path fill="#64665D" d="M110.03,8.048c-0.571,0-0.927-0.334-0.927-0.776c0-0.872,0.937-2.079,0.937-3.06
		c0-0.269-0.183-0.463-0.441-0.463c-0.452,0-0.873,0.366-1.584,1.595l-0.818,2.606h-1.109l1.238-3.889
		c0.098-0.312-0.021-0.518-0.226-0.518c-0.216,0-0.495,0.205-0.743,0.744l-0.086-0.044c0.322-0.7,0.861-0.979,1.26-0.979
		c0.646,0,1.023,0.538,0.593,1.734c0.646-1.153,1.476-1.734,2.09-1.734c0.528,0,0.872,0.366,0.872,0.991
		c0,0.969-0.99,2.401-0.99,3.069c0,0.248,0.097,0.41,0.334,0.41c0.322,0,0.656-0.216,1.002-0.841l0.075,0.043
		C111.128,7.703,110.461,8.048,110.03,8.048z"/>
	<path fill="#64665D" d="M115.162,4.665c-0.323,0-0.464-0.216-0.464-0.442c0-0.258,0.184-0.312,0.184-0.517s-0.129-0.355-0.42-0.355
		c-0.549,0-0.83,0.334-0.83,0.829c0,0.916,1.466,1.218,1.466,2.456c0,0.668-0.593,1.412-1.81,1.412
		c-0.938,0-1.466-0.636-1.466-1.089c0-0.345,0.227-0.657,0.561-0.657c0.323,0,0.485,0.259,0.485,0.464
		c0,0.517-0.399,0.388-0.399,0.7c0,0.248,0.204,0.495,0.819,0.495c0.656,0,0.904-0.388,0.904-0.904c0-1.056-1.368-1.175-1.368-2.316
		c0-0.614,0.7-1.476,1.648-1.476c0.668,0,1.196,0.366,1.196,0.872C115.669,4.481,115.442,4.665,115.162,4.665z"/>
	<path fill="#64665D" d="M120.065,7.401c-0.064,0.183,0.012,0.334,0.216,0.334c0.323,0,0.679-0.248,1.013-0.841l0.076,0.043
		c-0.377,0.743-1.035,1.11-1.466,1.11c-0.646,0-0.958-0.593-0.7-1.368c-0.366,0.883-0.938,1.368-1.486,1.368
		c-1.045,0-1.422-0.862-1.422-1.713c0-1.39,1.357-3.06,3.016-3.06c0.389,0,0.711,0.183,0.766,0.581l0.161-0.495l1.12-0.075
		L120.065,7.401z M119.312,3.351c-0.226,0-0.387,0.054-0.646,0.248c-0.786,0.592-1.367,2.628-1.367,3.533
		c0,0.56,0.172,0.775,0.538,0.775c0.614,0,1.12-0.775,1.487-1.713l0.678-2.111C120.034,3.642,119.775,3.351,119.312,3.351z"/>
	<path fill="#64665D" d="M122.946,8.78c-0.518,1.637-1.174,2.553-2.381,2.553c-0.625,0-1.152-0.334-1.152-0.905
		c0-0.388,0.258-0.624,0.561-0.624c0.355,0,0.484,0.183,0.484,0.409c0,0.27-0.205,0.484-0.205,0.657
		c0,0.236,0.107,0.388,0.323,0.388c0.507,0,0.668-0.507,1.175-2.144l1.594-5.063c0.098-0.302-0.011-0.507-0.215-0.507
		c-0.227,0-0.507,0.227-0.754,0.733L122.3,4.233c0.312-0.689,0.862-0.969,1.261-0.969c0.722,0,0.991,0.613,0.56,1.799L122.946,8.78z
		 M124.38,1.831c-0.346,0-0.625-0.279-0.625-0.613c0-0.345,0.279-0.625,0.625-0.625c0.344,0,0.613,0.28,0.613,0.625
		C124.993,1.552,124.724,1.831,124.38,1.831z"/>
	<path fill="#64665D" d="M126.901,5.559h-0.463c-0.183,0.625-0.301,1.218-0.301,1.53c0,0.517,0.161,0.872,0.711,0.872
		c0.851,0,1.26-0.377,1.68-0.851l0.055,0.054c-0.507,0.604-0.971,0.884-1.703,0.884c-0.969,0-1.691-0.744-1.691-1.811
		c0-1.54,1.305-2.973,2.736-2.973c0.905,0,1.357,0.495,1.357,0.915C129.282,5.042,128.206,5.559,126.901,5.559z M127.915,3.351
		c-0.852,0-1.121,0.948-1.455,2.122h0.27c1.325,0,1.638-0.84,1.638-1.529C128.367,3.512,128.206,3.351,127.915,3.351z"/>
	<path fill="#64665D" d="M134.038,5.559h-0.463c-0.184,0.625-0.302,1.218-0.302,1.53c0,0.517,0.161,0.872,0.711,0.872
		c0.851,0,1.261-0.377,1.681-0.851l0.054,0.054c-0.507,0.604-0.97,0.884-1.702,0.884c-0.97,0-1.691-0.744-1.691-1.811
		c0-1.54,1.304-2.973,2.736-2.973c0.904,0,1.357,0.495,1.357,0.915C136.419,5.042,135.342,5.559,134.038,5.559z M135.051,3.351
		c-0.851,0-1.12,0.948-1.454,2.122h0.27c1.324,0,1.637-0.84,1.637-1.529C135.503,3.512,135.342,3.351,135.051,3.351z"/>
	<path fill="#64665D" d="M140.99,8.048c-0.571,0-0.927-0.334-0.927-0.776c0-0.872,0.938-2.079,0.938-3.06
		c0-0.269-0.184-0.463-0.441-0.463c-0.453,0-0.873,0.366-1.584,1.595l-0.818,2.606h-1.109l1.238-3.889
		c0.098-0.312-0.021-0.518-0.227-0.518c-0.215,0-0.495,0.205-0.742,0.744l-0.087-0.044c0.323-0.7,0.862-0.979,1.261-0.979
		c0.646,0,1.023,0.538,0.592,1.734c0.646-1.153,1.477-1.734,2.09-1.734c0.528,0,0.873,0.366,0.873,0.991
		c0,0.969-0.991,2.401-0.991,3.069c0,0.248,0.097,0.41,0.334,0.41c0.323,0,0.657-0.216,1.002-0.841l0.075,0.043
		C142.089,7.703,141.421,8.048,140.99,8.048z"/>
	<path fill="#64665D" d="M148.505,4.665c-0.324,0-0.464-0.216-0.464-0.442c0-0.258,0.183-0.312,0.183-0.517s-0.129-0.355-0.42-0.355
		c-0.549,0-0.829,0.334-0.829,0.829c0,0.916,1.465,1.218,1.465,2.456c0,0.668-0.593,1.412-1.81,1.412
		c-0.938,0-1.465-0.636-1.465-1.089c0-0.345,0.227-0.657,0.561-0.657c0.322,0,0.484,0.259,0.484,0.464
		c0,0.517-0.398,0.388-0.398,0.7c0,0.248,0.204,0.495,0.818,0.495c0.657,0,0.904-0.388,0.904-0.904c0-1.056-1.367-1.175-1.367-2.316
		c0-0.614,0.699-1.476,1.648-1.476c0.668,0,1.195,0.366,1.195,0.872C149.011,4.481,148.784,4.665,148.505,4.665z"/>
	<path fill="#64665D" d="M153.57,7.401c-0.064,0.193,0.011,0.334,0.216,0.334c0.334,0,0.656-0.216,1.012-0.841l0.076,0.043
		c-0.398,0.776-1.034,1.11-1.465,1.11c-0.646,0-1.045-0.528-0.614-1.735c-0.646,1.164-1.454,1.735-2.079,1.735
		c-0.528,0-0.873-0.367-0.873-0.991c0-0.959,1.023-2.521,1.023-3.189c0-0.247-0.075-0.323-0.258-0.323
		c-0.205,0-0.485,0.216-0.732,0.733l-0.087-0.044c0.323-0.7,0.862-0.969,1.249-0.969c0.551,0,0.787,0.355,0.787,0.775
		c0,0.883-0.948,2.09-0.948,3.07c0,0.259,0.194,0.452,0.452,0.452c0.453,0,0.873-0.366,1.584-1.583l0.818-2.618l1.121-0.054
		L153.57,7.401z"/>
	<path fill="#C4C3A7" d="M11.059,29.511H0.141c-0.02,0-0.02-0.242,0-0.242H1.9c0.081,0,0.121-0.021,0.121-0.081V15.5
		c0-0.061-0.041-0.081-0.121-0.081H0.141c-0.02,0-0.02-0.242,0-0.242h6.288c0.04,0,0.04,0.242,0,0.242H4.669
		c-0.081,0-0.121,0.021-0.121,0.081v13.688c0,0.061,0.041,0.081,0.121,0.081h2.001c3.013,0,4.226-2.346,4.226-4.407
		c0-0.041,0.223-0.041,0.223,0v4.589C11.119,29.491,11.099,29.511,11.059,29.511z"/>
	<path fill="#C4C3A7" d="M12.349,29.511c-0.02,0-0.02-0.242,0-0.242h1.759c0.081,0,0.121-0.021,0.121-0.081V15.5
		c0-0.061-0.041-0.081-0.121-0.081h-1.759c-0.02,0-0.02-0.242,0-0.242h6.288c0.04,0,0.04,0.242,0,0.242h-1.779
		c-0.081,0-0.122,0.021-0.122,0.081v13.688c0,0.061,0.041,0.081,0.122,0.081h1.779c0.04,0,0.04,0.242,0,0.242H12.349z"/>
	<path fill="#C4C3A7" d="M26.884,29.511h-6.652c-0.04,0-0.04-0.242,0-0.242h1.739c0.101,0,0.142-0.021,0.142-0.081V15.5
		c0-0.061-0.041-0.081-0.142-0.081h-1.739c-0.04,0-0.04-0.242,0-0.242h5.682c2.486,0,4.609,1.071,4.609,3.315
		c0,1.941-1.92,3.376-3.699,3.376c2.607,0,4.711,1.436,4.711,3.842C31.534,27.631,29.997,29.511,26.884,29.511z M25.59,15.419
		h-0.829c-0.102,0-0.142,0.021-0.142,0.081v6.247h1.638c1.477,0,1.981-0.688,1.981-3.174C28.238,16.188,27.571,15.419,25.59,15.419z
		 M26.075,21.97h-1.456v7.218c0,0.061,0.04,0.081,0.142,0.081h1.577c1.88,0,2.729-0.789,2.729-3.438
		C29.067,22.597,28.077,21.97,26.075,21.97z"/>
	<path fill="#C4C3A7" d="M45.44,29.854c-1.638,0-3.256-1.031-3.256-3.922v-1.314c0-1.779-1.192-2.446-3.012-2.446h-1.517v7.016
		c0,0.061,0.04,0.081,0.142,0.081h1.921c0.021,0,0.021,0.242,0,0.242h-6.45c-0.04,0-0.04-0.242,0-0.242h1.76
		c0.08,0,0.121-0.021,0.121-0.081V15.5c0-0.061-0.041-0.081-0.121-0.081h-1.76c-0.04,0-0.04-0.242,0-0.242h6.146
		c2.973,0,4.752,1.536,4.752,3.518c0,1.88-1.76,3.356-4.044,3.356c3.255,0,4.671,1.738,4.671,3.922v1.819
		c0,1.031,0.444,1.679,1.192,1.679c0.546,0,0.89-0.202,1.152-0.506c0.04-0.02,0.183,0.162,0.142,0.183
		C46.876,29.571,46.29,29.854,45.44,29.854z M38.91,15.419h-1.112c-0.102,0-0.142,0.021-0.142,0.081v6.43h1.517
		c1.961,0,2.467-0.587,2.467-3.154C41.64,16.248,40.79,15.419,38.91,15.419z"/>
	<path fill="#C4C3A7" d="M53.706,29.854c-3.559,0-6.47-3.356-6.47-7.501c0-4.023,2.709-7.521,6.47-7.521
		c3.578,0,6.47,3.355,6.47,7.521C60.176,26.498,57.284,29.854,53.706,29.854z M56.011,15.844c-0.606-0.586-1.375-0.769-2.305-0.769
		c-0.91,0-1.678,0.183-2.285,0.769c-0.99,0.971-1.455,3.013-1.455,6.51c0,4.004,0.465,5.54,1.455,6.511
		c0.607,0.586,1.375,0.768,2.285,0.768c0.93,0,1.698-0.182,2.305-0.768c0.99-0.971,1.455-2.507,1.455-6.511
		C57.466,18.856,57.001,16.814,56.011,15.844z"/>
	<path fill="#C4C3A7" d="M69.155,28.783c-0.084,0.267,0,0.437,0.23,0.437c0.364,0,0.74-0.279,1.104-0.897l0.134,0.061
		c-0.449,0.873-1.178,1.237-1.613,1.237c-0.717,0-1.02-0.582-0.765-1.432c-0.4,0.874-1.007,1.432-1.638,1.432
		c-1.152,0-1.59-0.922-1.59-1.904c0-1.565,1.541-3.481,3.409-3.481c0.425,0,0.801,0.206,0.861,0.618l1.274-4.063
		c0.012-0.024-0.013-0.049-0.061-0.049l-0.668,0.024c-0.023,0,0.024-0.146,0.049-0.146l1.832-0.049c0.023,0,0.023,0.013,0.023,0.037
		L69.155,28.783z M68.403,24.38c-0.375,0-0.582,0.097-0.861,0.327c-0.885,0.667-1.504,2.742-1.504,3.772
		c0,0.631,0.182,0.935,0.703,0.935c0.704,0,1.348-0.971,1.76-2.087l0.68-2.123C69.241,24.695,68.95,24.38,68.403,24.38z"/>
	<path fill="#C4C3A7" d="M72.951,26.866h-0.618c-0.182,0.655-0.291,1.165-0.291,1.541c0,0.582,0.182,1.067,0.922,1.067
		c0.922,0,1.406-0.4,1.893-0.958l0.084,0.097c-0.57,0.667-1.128,1.007-1.953,1.007c-1.092,0-1.904-0.837-1.904-2.038
		c0-1.734,1.468-3.336,3.094-3.336c1.019,0,1.432,0.559,1.432,1.031C75.608,26.235,74.479,26.866,72.951,26.866z M74.152,24.38
		c-1.031,0-1.396,0.946-1.771,2.341h0.436c1.492,0,1.881-0.946,1.881-1.723C74.698,24.574,74.517,24.38,74.152,24.38z"/>
	<path fill="#C4C3A7" d="M90.77,15.419c-0.161,0-0.222,0.081-0.485,0.85l-4.63,13.546c-0.021,0.061-0.222,0.061-0.242,0L79.326,15.5
		c-0.021-0.061-0.061-0.081-0.161-0.081h-1.84c-0.041,0-0.041-0.242,0-0.242h6.833c0.062,0,0.062,0.242,0,0.242h-2.021
		c-0.101,0-0.122,0.021-0.101,0.081l4.528,10.958l3.497-10.189c0.264-0.789,0.243-0.85,0.121-0.85h-1.818
		c-0.021,0-0.021-0.242,0-0.242h4.062c0.041,0,0.041,0.242,0,0.242H90.77z"/>
	<path fill="#C4C3A7" d="M92.626,29.511c-0.02,0-0.02-0.242,0-0.242h1.76c0.08,0,0.121-0.021,0.121-0.081V15.5
		c0-0.061-0.041-0.081-0.121-0.081h-1.76c-0.02,0-0.02-0.242,0-0.242h6.288c0.04,0,0.04,0.242,0,0.242h-1.779
		c-0.081,0-0.122,0.021-0.122,0.081v13.688c0,0.061,0.041,0.081,0.122,0.081h1.779c0.04,0,0.04,0.242,0,0.242H92.626z"/>
	<path fill="#C4C3A7" d="M105.462,29.854c-1.436,0-2.467-0.829-3.295-0.829c-0.566,0-1.031,0.404-1.092,0.769
		c-0.021,0.061-0.202,0.061-0.202,0v-4.711c0-0.061,0.202-0.061,0.202,0c0,1.618,1.799,4.549,4.367,4.549
		c2.305,0,3.477-1.395,3.477-2.709c0-1.94-1.253-2.486-4.326-3.619c-1.859-0.688-3.336-1.698-3.336-4.104
		c0-2.427,1.779-4.367,3.781-4.367c1.152,0,1.658,0.546,2.547,0.546c0.586,0,0.789-0.263,0.829-0.485
		c-0.021-0.061,0.223-0.061,0.223,0v3.619c0,0.04-0.223,0.04-0.223,0c0-1.921-1.617-3.438-3.356-3.438
		c-1.557,0-2.668,1.133-2.668,2.507c0,1.456,1.132,2.346,3.639,3.256c2.568,0.95,4.186,1.88,4.186,4.347
		C110.214,27.227,108.597,29.854,105.462,29.854z"/>
	<path fill="#C4C3A7" d="M111.605,29.511c-0.021,0-0.021-0.242,0-0.242h1.759c0.081,0,0.121-0.021,0.121-0.081V15.5
		c0-0.061-0.04-0.081-0.121-0.081h-1.759c-0.021,0-0.021-0.242,0-0.242h6.288c0.04,0,0.04,0.242,0,0.242h-1.779
		c-0.081,0-0.121,0.021-0.121,0.081v13.688c0,0.061,0.04,0.081,0.121,0.081h1.779c0.04,0,0.04,0.242,0,0.242H111.605z"/>
	<path fill="#C4C3A7" d="M130.911,19.847c0-2.345-1.293-4.428-4.185-4.428h-0.263c-0.081,0-0.121,0.021-0.121,0.081v13.688
		c0,0.061,0.04,0.081,0.121,0.081h1.759c0.04,0,0.04,0.242,0,0.242h-6.268c-0.04,0-0.04-0.242,0-0.242h1.759
		c0.081,0,0.121-0.021,0.121-0.081V15.5c0-0.061-0.04-0.081-0.121-0.081h-0.283c-2.891,0-4.084,2.083-4.084,4.428
		c0,0.041-0.223,0.041-0.223,0v-4.609c0-0.021,0.021-0.061,0.061-0.061h11.889c0.041,0,0.041,0.04,0.041,0.061v4.609
		C131.114,19.888,130.911,19.888,130.911,19.847z"/>
	<path fill="#C4C3A7" d="M138.106,29.511c-0.041,0-0.041-0.242,0-0.242h1.799c0.081,0,0.102-0.041,0.102-0.061l-1.557-4.509h-4.549
		l-1.335,3.72c-0.243,0.729-0.263,0.85-0.161,0.85h1.758c0.041,0,0.041,0.242,0,0.242h-3.82c-0.041,0-0.041-0.242,0-0.242h1.516
		c0.182,0,0.223-0.061,0.485-0.85l4.792-13.525c0.02-0.061,0.223-0.061,0.242,0l5.338,14.314c0,0.02,0.061,0.061,0.142,0.061h1.718
		c0.041,0,0.041,0.242,0,0.242H138.106z M136.206,18.188l-2.225,6.268h4.388L136.206,18.188z"/>
	<path fill="#C4C3A7" d="M149.769,29.854c-1.436,0-2.467-0.829-3.295-0.829c-0.566,0-1.031,0.404-1.092,0.769
		c-0.021,0.061-0.203,0.061-0.203,0v-4.711c0-0.061,0.203-0.061,0.203,0c0,1.618,1.799,4.549,4.366,4.549
		c2.306,0,3.478-1.395,3.478-2.709c0-1.94-1.254-2.486-4.326-3.619c-1.86-0.688-3.336-1.698-3.336-4.104
		c0-2.427,1.779-4.367,3.78-4.367c1.152,0,1.658,0.546,2.548,0.546c0.586,0,0.788-0.263,0.828-0.485
		c-0.02-0.061,0.223-0.061,0.223,0v3.619c0,0.04-0.223,0.04-0.223,0c0-1.921-1.617-3.438-3.355-3.438
		c-1.557,0-2.669,1.133-2.669,2.507c0,1.456,1.132,2.346,3.64,3.256c2.567,0.95,4.185,1.88,4.185,4.347
		C154.52,27.227,152.902,29.854,149.769,29.854z"/>
</g>
<g>
</g>
<g>
</g>
<g>
</g>
<g>
</g>
<g>
</g>
<g>
</g>
</svg>
