<?xml version="1.0" encoding="utf-8"?>
<!-- Generator: Adobe Illustrator 16.0.0, SVG Export Plug-In . SVG Version: 6.00 Build 0)  -->
<!DOCTYPE svg PUBLIC "-//W3C//DTD SVG 1.1//EN" "http://www.w3.org/Graphics/SVG/1.1/DTD/svg11.dtd">
<svg version="1.1" id="Layer_1" xmlns="http://www.w3.org/2000/svg" xmlns:xlink="http://www.w3.org/1999/xlink" x="0px" y="0px"
	 width="47.622px" height="20.352px" viewBox="0 0 47.622 20.352" enable-background="new 0 0 47.622 20.352" xml:space="preserve">
<g>
	<path fill="#C4C3A7" d="M6.354,20.352c-1.726,0-3.396-1.123-4.301-1.123c-0.767,0-1.369,0.547-1.424,1.04
		c-0.055,0.083-0.63,0.083-0.63,0v-6.847c0-0.082,0.63-0.082,0.63,0c0,2.19,2.328,6.299,5.697,6.299
		c3.013,0,4.136-1.643,4.136-3.424c0-2.684-1.507-2.93-5.532-4.465c-2.438-0.931-4.355-2.3-4.355-5.56C0.575,2.575,3.013,0,5.642,0
		c1.699,0,1.699,0.74,3.178,0.74c0.74,0,1.014-0.356,1.068-0.658c0-0.082,0.603-0.082,0.603,0v5.369c0,0.055-0.603,0.055-0.603,0
		c0-2.602-1.78-4.793-4.219-4.793c-2.081,0-3.259,1.287-3.259,3.149c0,1.972,1.343,2.685,4.629,3.917
		c3.342,1.342,5.45,2.547,5.45,5.889C12.489,16.79,10.436,20.352,6.354,20.352z"/>
	<path fill="#C4C3A7" d="M30.262,20.352c-2.137,0-4.849-1.397-4.849-5.314v-1.78c0-2.41-1.314-3.149-3.67-3.149h-1.205v9.011
		c0,0.083,0.055,0.11,0.137,0.11h1.945v0.656h-8.436c-0.056,0-0.056-0.656,0-0.656h2.328c0.055,0,0.109-0.027,0.109-0.11V1.232
		c0-0.082-0.055-0.109-0.109-0.109h-2.328c-0.056,0-0.056-0.656,0-0.656h8.189c3.861,0,6.244,2.081,6.244,4.766
		c0,2.547-2.137,4.546-4.711,4.546c3.834,0,5.479,2.657,5.479,5.313v2.465c0,1.397,0.629,1.863,1.588,1.863
		c0.712,0,0.932-0.082,1.287-0.493c0.027-0.027,0.466,0.438,0.411,0.466C32.124,19.967,31.384,20.352,30.262,20.352z M21.716,1.123
		h-1.041c-0.082,0-0.137,0.027-0.137,0.109v8.217h1.205c2.547,0,2.959-0.629,2.959-4.107C24.702,1.918,24.181,1.123,21.716,1.123z"
		/>
	<path fill="#C4C3A7" d="M46.991,20.296c-0.055-0.329-0.41-0.821-1.15-0.821c-1.205,0-3.231,0.877-4.684,0.877
		c-4.93,0-8.6-4.739-8.6-10.162C32.558,4.738,36.118,0,41.021,0c1.26,0,3.014,0.74,4.219,0.74c0.738,0,1.232-0.356,1.287-0.658
		c0-0.055,0.602-0.055,0.602,0v6.684c0,0.055-0.602,0.055-0.602,0c0-2.711-2.932-6.107-5.506-6.107
		c-1.178,0-1.917,0.246-2.629,0.986c-1.15,1.26-1.562,3.971-1.562,8.545c0,4.602,0.411,7.258,1.562,8.518
		c0.712,0.795,1.588,1.014,2.766,1.014c3.15,0,5.834-3.533,5.834-7.121c0-0.055,0.631-0.055,0.631,0v7.696
		C47.622,20.323,47.046,20.323,46.991,20.296z"/>
</g>
<g>
</g>
<g>
</g>
<g>
</g>
<g>
</g>
<g>
</g>
<g>
</g>
</svg>
