<?xml version="1.0" encoding="utf-8"?>
<!-- Generator: Adobe Illustrator 16.0.0, SVG Export Plug-In . SVG Version: 6.00 Build 0)  -->
<!DOCTYPE svg PUBLIC "-//W3C//DTD SVG 1.1//EN" "http://www.w3.org/Graphics/SVG/1.1/DTD/svg11.dtd">
<svg version="1.1" id="Layer_1" xmlns="http://www.w3.org/2000/svg" xmlns:xlink="http://www.w3.org/1999/xlink" x="0px" y="0px"
	 width="86.598px" height="25.098px" viewBox="0 0 86.598 25.098" enable-background="new 0 0 86.598 25.098" xml:space="preserve">
<g>
	<path fill="#64665D" d="M9.068,11.69c1.899,0.076,2.641,0.931,2.641,2.28c0,1.063-0.665,2.583-0.665,3.4
		c0,0.646,0.285,1.083,0.836,1.083c0.513,0,0.798-0.076,1.178-0.305c0.038-0.019,0.152,0.418,0.095,0.438
		c-0.551,0.304-1.14,0.418-1.976,0.418c-1.311,0-2.603-0.627-2.603-2.318c0-1.063,0.779-3.039,0.779-3.837
		c0-0.76-0.399-0.95-1.482-0.95H6.693l-1.976,6.25c-0.019,0.058,0.019,0.076,0.095,0.076h1.71c0.038,0-0.114,0.456-0.152,0.456
		H0.007c-0.038,0,0.095-0.456,0.151-0.456H1.85c0.095,0,0.133-0.019,0.151-0.076L5.915,5.744c0.019-0.037-0.02-0.075-0.096-0.075
		h-1.71c-0.037,0,0.096-0.456,0.134-0.456h4.996c2.508,0,3.875,1.102,3.875,2.926C13.114,9.905,11.937,11.501,9.068,11.69z
		 M9.505,5.669h-0.74c-0.076,0-0.114,0.038-0.134,0.075l-1.805,5.699h1.216c0.874,0,1.292-0.322,1.786-1.063
		c0.437-0.665,1.045-2.546,1.045-3.591C10.873,6.049,10.55,5.669,9.505,5.669z"/>
	<path fill="#64665D" d="M25.104,9.183c-0.02,0.058-0.494,0.058-0.476,0c0.552-1.767,0.058-3.514-2.374-3.514h-0.912
		c-0.095,0-0.133,0.038-0.152,0.075l-1.767,5.604h0.304c1.559,0,2.546-0.854,2.964-2.166c0.02-0.037,0.494-0.037,0.475,0
		l-1.634,5.206c-0.019,0.037-0.493,0.037-0.475,0c0.399-1.292,0.095-2.584-1.463-2.584H19.29l-2.014,6.345
		c-0.019,0.058,0.019,0.076,0.095,0.076h0.703c3.42,0,5.187-1.938,5.813-3.875c0-0.058,0.475-0.058,0.475,0l-1.368,4.274
		c0,0.038-0.019,0.057-0.057,0.057H12.565c-0.038,0,0.113-0.456,0.151-0.456h1.71c0.076,0,0.114-0.019,0.133-0.076l3.914-12.405
		c0.019-0.037-0.02-0.075-0.096-0.075h-1.71c-0.037,0,0.114-0.456,0.152-0.456h9.328c0.057,0,0.057,0.038,0.038,0.057L25.104,9.183z
		"/>
	<path fill="#64665D" d="M38.289,13.762h-1.71c-0.075,0-0.113,0.019-0.133,0.075l-1.558,4.901c0,0.038-0.532,0.058-0.513,0
		c0.095-0.38-0.114-0.702-0.665-0.702c-0.874,0-1.425,0.969-3.021,0.969c-2.735,0-4.18-1.919-4.18-5.072
		c0-4.56,3.609-9.062,7.675-9.062c1.292,0,1.729,0.684,2.432,0.684s0.894-0.323,1.045-0.627c0.02-0.038,0.476-0.02,0.476,0
		l-1.406,4.445c0,0.038-0.475,0.038-0.475,0c0.607-1.881-0.058-4.027-2.071-4.027c-1.349,0-2.165,0.57-2.735,1.672
		c-0.703,1.33-2.755,7.066-2.755,9.327c0,1.273,0.323,2.185,1.995,2.185c1.254,0,1.71-0.493,1.919-1.178l1.12-3.515
		c0.02-0.057-0.019-0.075-0.095-0.075h-1.71c-0.038,0,0.096-0.456,0.134-0.456h6.383C38.479,13.306,38.327,13.762,38.289,13.762z"/>
	<path fill="#64665D" d="M43.249,18.682c-0.038,0,0.095-0.456,0.133-0.456h1.387c0.076,0,0.114-0.019,0.114-0.057v-3.951h-4.294
		l-2.432,3.21c-0.456,0.665-0.475,0.798-0.209,0.798h1.235c0.038,0-0.114,0.456-0.152,0.456h-3.837
		c-0.038,0,0.095-0.456,0.151-0.456h1.197c0.342,0,0.627-0.209,1.025-0.778l9.309-12.501c0.058-0.075,0.608-0.057,0.608,0v13.223
		c0,0.038,0.038,0.057,0.133,0.057h1.843c0.038,0-0.095,0.456-0.133,0.456H43.249z M44.883,8.442l-3.933,5.3h3.933V8.442z"/>
	<path fill="#64665D" d="M59.322,18.625c0,0.038-0.02,0.057-0.058,0.057H49.216c-0.058,0,0.095-0.456,0.133-0.456h1.71
		c0.075,0,0.133-0.019,0.151-0.076l3.895-12.405c0.02-0.037,0-0.075-0.095-0.075H53.3c-0.038,0,0.114-0.456,0.152-0.456h6.363
		c0.038,0-0.095,0.456-0.133,0.456h-1.709c-0.076,0-0.134,0.038-0.152,0.075l-3.913,12.405c0,0.058,0.019,0.076,0.113,0.076h0.399
		c3.4,0,5.167-1.938,5.794-3.875c0-0.058,0.475-0.058,0.475,0L59.322,18.625z"/>
	<path fill="#64665D" d="M66.79,18.682c-0.038,0,0.095-0.456,0.133-0.456h1.387c0.076,0,0.114-0.019,0.114-0.057v-3.951H64.13
		l-2.432,3.21c-0.456,0.665-0.475,0.798-0.209,0.798h1.235c0.038,0-0.114,0.456-0.152,0.456h-3.837
		c-0.038,0,0.095-0.456,0.151-0.456h1.197c0.342,0,0.627-0.209,1.025-0.778l9.309-12.501c0.058-0.075,0.608-0.057,0.608,0v13.223
		c0,0.038,0.038,0.057,0.133,0.057h1.843c0.038,0-0.095,0.456-0.133,0.456H66.79z M68.424,8.442l-3.933,5.3h3.933V8.442z"/>
	<path fill="#64665D" d="M81.818,11.69c1.899,0.076,2.641,0.931,2.641,2.28c0,1.063-0.665,2.583-0.665,3.4
		c0,0.646,0.285,1.083,0.836,1.083c0.513,0,0.798-0.076,1.178-0.305c0.038-0.019,0.152,0.418,0.095,0.438
		c-0.551,0.304-1.14,0.418-1.976,0.418c-1.311,0-2.603-0.627-2.603-2.318c0-1.063,0.779-3.039,0.779-3.837
		c0-0.76-0.399-0.95-1.482-0.95h-1.178l-1.976,6.25c-0.019,0.058,0.019,0.076,0.095,0.076h1.71c0.038,0-0.114,0.456-0.152,0.456
		h-6.363c-0.038,0,0.095-0.456,0.151-0.456H74.6c0.095,0,0.133-0.019,0.151-0.076l3.914-12.405c0.019-0.037-0.02-0.075-0.096-0.075
		h-1.71c-0.037,0,0.096-0.456,0.134-0.456h4.996c2.508,0,3.875,1.102,3.875,2.926C85.864,9.905,84.687,11.501,81.818,11.69z
		 M82.255,5.669h-0.74c-0.076,0-0.114,0.038-0.134,0.075l-1.805,5.699h1.216c0.874,0,1.292-0.322,1.786-1.063
		c0.437-0.665,1.045-2.546,1.045-3.591C83.623,6.049,83.3,5.669,82.255,5.669z"/>
</g>
<g>
	<rect x="1.07" y="24.598" fill="#64665D" width="85.527" height="0.5"/>
</g>
<g>
	<rect x="1.07" fill="#64665D" width="85.527" height="0.5"/>
</g>
<g>
</g>
<g>
</g>
<g>
</g>
<g>
</g>
<g>
</g>
<g>
</g>
</svg>
